<?xml version="1.0" encoding="UTF-8"?>
<svg version="1.1" xmlns="http://www.w3.org/2000/svg" width="335" height="216">
<path d="M0 0 C110.55 0 221.1 0 335 0 C335 71.28 335 142.56 335 216 C224.45 216 113.9 216 0 216 C0 144.72 0 73.44 0 0 Z " fill="#0E0E0E" transform="translate(0,0)"/>
<path d="M0 0 C14.94576353 1.03801276 29.853644 1.3434273 44.83322144 1.33218384 C46.25702621 1.33327148 46.25702621 1.33327148 47.70959473 1.3343811 C50.43967975 1.3341441 53.16957477 1.3254017 55.89962769 1.31265259 C56.69939026 1.3114592 57.49915283 1.31026581 58.32315063 1.30903625 C63.19444465 1.269105 67.95301414 0.89717691 72.79478455 0.3747406 C76.73234439 0.00887414 80.65822935 -0.03714769 84.61056519 -0.05844116 C85.4581691 -0.06414124 86.30577301 -0.06984131 87.17906189 -0.07571411 C88.9562661 -0.08507993 90.73348703 -0.09166412 92.51071167 -0.09555054 C95.19860499 -0.10528135 97.88574019 -0.13639525 100.57345581 -0.16781616 C122.2963155 -0.30275482 122.2963155 -0.30275482 129.95822144 5.70718384 C135.01053979 12.5503816 132.73954834 24.0308333 131.83712769 31.94937134 C130.62417888 39.79122639 130.62417888 39.79122639 129.27072144 41.14468384 C128.87755664 42.82352621 128.52986692 44.51318429 128.20822144 46.20718384 C128.03161987 47.1262854 127.85501831 48.04538696 127.67306519 48.99234009 C127.54029175 49.70261353 127.40751831 50.41288696 127.27072144 51.14468384 C126.61072144 51.14468384 125.95072144 51.14468384 125.27072144 51.14468384 C125.14954956 51.7131604 125.02837769 52.28163696 124.90353394 52.86734009 C123.8575009 57.68713848 122.67867659 62.41797724 121.27072144 67.14468384 C120.61072144 67.14468384 119.95072144 67.14468384 119.27072144 67.14468384 C119.16115112 67.76214478 119.05158081 68.37960571 118.93869019 69.01577759 C118.12008811 73.38831065 117.20178623 77.57452391 115.70822144 81.76968384 C112.01743079 92.45060829 112.25955899 104.33992448 115.27072144 115.14468384 C115.60072144 115.47468384 115.93072144 115.80468384 116.27072144 116.14468384 C116.23156173 118.93104773 116.12555716 121.67773749 115.95822144 124.45718384 C115.91117065 125.27299927 115.86411987 126.0888147 115.81564331 126.92935181 C115.45649222 132.55272679 114.783938 138.03633041 113.74337769 143.57827759 C113.29836568 145.99458243 112.97945211 148.39110781 112.70822144 150.83218384 C112.27072144 154.14468384 112.27072144 154.14468384 111.27072144 155.14468384 C111.06468059 156.47250262 110.90442554 157.80764279 110.77072144 159.14468384 C110.38183255 163.03357273 110.38183255 163.03357273 109.27072144 164.14468384 C108.96895163 165.93140013 108.70510854 167.72456075 108.45822144 169.51968384 C106.12287293 184.29253234 106.12287293 184.29253234 102.27072144 188.14468384 C99.9377471 188.18561321 97.60366919 188.18710107 95.27072144 188.14468384 C97.27435944 173.73468121 99.42200809 159.43213017 103.45431519 145.43765259 C104.70711245 140.38450382 105.07740836 135.33513999 105.27072144 130.14468384 C104.61072144 130.14468384 103.95072144 130.14468384 103.27072144 130.14468384 C101.76451496 127.37601384 100.90994834 124.92453859 100.33322144 121.83218384 C99.70713402 118.79190335 98.92486222 116.09820641 97.64572144 113.26968384 C96.27072144 110.14468384 96.27072144 110.14468384 96.27072144 107.14468384 C95.61072144 107.14468384 94.95072144 107.14468384 94.27072144 107.14468384 C94.08509644 106.30550415 94.08509644 106.30550415 93.89572144 105.44937134 C91.56734237 96.39779773 87.18077174 85.05092425 78.95822144 79.83218384 C76.74150905 78.69460122 74.64746896 77.93693301 72.27072144 77.14468384 C72.27072144 76.48468384 72.27072144 75.82468384 72.27072144 75.14468384 C70.52001626 75.25938521 68.77014608 75.38687411 67.02072144 75.51968384 C66.04619019 75.58929321 65.07165894 75.65890259 64.06759644 75.73062134 C61.37438955 76.12933632 59.60108865 76.77975447 57.27072144 78.14468384 C57.27072144 80.45468384 57.27072144 82.76468384 57.27072144 85.14468384 C58.24654175 85.10987915 59.22236206 85.07507446 60.22775269 85.03921509 C61.50005737 85.01214478 62.77236206 84.98507446 64.08322144 84.95718384 C65.34779175 84.92237915 66.61236206 84.88757446 67.91525269 84.85171509 C71.27072144 85.14468384 71.27072144 85.14468384 73.21994019 86.65640259 C73.566698 87.1475354 73.91345581 87.63866821 74.27072144 88.14468384 C71.81995669 95.00682512 63.27017162 97.90732682 57.17697144 100.86343384 C53.54477093 102.46472653 51.24462389 103.38798399 47.27072144 103.14468384 C44.52072144 100.83218384 44.52072144 100.83218384 42.27072144 98.14468384 C41.28072144 97.48468384 40.29072144 96.82468384 39.27072144 96.14468384 C39.27072144 94.82468384 39.27072144 93.50468384 39.27072144 92.14468384 C35.97072144 92.14468384 32.67072144 92.14468384 29.27072144 92.14468384 C28.77572144 94.12468384 28.77572144 94.12468384 28.27072144 96.14468384 C20.07450488 95.94521839 13.6729964 93.50554701 6.27072144 90.14468384 C2.37440806 88.3767327 -1.08968601 87.72035067 -5.34255981 87.29312134 C-6.58972778 87.16421509 -7.83689575 87.03530884 -9.12185669 86.90249634 C-10.41543091 86.77616821 -11.70900513 86.64984009 -13.04177856 86.51968384 C-14.35468872 86.38562134 -15.66759888 86.25155884 -17.02029419 86.11343384 C-20.25602016 85.7839781 -23.49227612 85.46130919 -26.72927856 85.14468384 C-26.13998845 82.11404896 -25.47883294 79.14290134 -24.72927856 76.14468384 C-27.69927856 75.81468384 -30.66927856 75.48468384 -33.72927856 75.14468384 C-34.71927856 77.78468384 -35.70927856 80.42468384 -36.72927856 83.14468384 C-51.41065339 83.34985833 -66.06176033 82.72594299 -80.72927856 82.14468384 C-80.81177856 80.86593384 -80.89427856 79.58718384 -80.97927856 78.26968384 C-81.20896625 76.0763458 -81.20896625 76.0763458 -81.72927856 74.14468384 C-83.51680189 72.96112042 -83.51680189 72.96112042 -85.72927856 72.14468384 C-87.41372672 70.0440779 -88.92708347 67.998091 -90.41677856 65.76968384 C-91.02102661 64.90343384 -91.02102661 64.90343384 -91.63748169 64.01968384 C-95.38847047 58.5157204 -95.38847047 58.5157204 -95.72927856 55.14468384 C-94.79578305 51.62612383 -93.75672654 49.18585579 -91.72927856 46.14468384 C-91.17333971 44.01265835 -90.67972952 41.8639626 -90.22927856 39.70718384 C-89.42083829 35.84512405 -88.561958 32.62603874 -86.72927856 29.14468384 C-86.33546955 27.78050882 -85.9800882 26.4045651 -85.66677856 25.01968384 C-84.72927856 21.14468384 -84.72927856 21.14468384 -83.72927856 19.14468384 C-81.43630981 18.83609009 -81.43630981 18.83609009 -78.54177856 18.70718384 C-73.92168692 18.38317741 -70.76801163 17.52650077 -66.72927856 15.14468384 C-66.06927856 15.14468384 -65.40927856 15.14468384 -64.72927856 15.14468384 C-64.39927856 14.15468384 -64.06927856 13.16468384 -63.72927856 12.14468384 C-62.73927856 12.14468384 -61.74927856 12.14468384 -60.72927856 12.14468384 C-60.62615356 11.44343384 -60.52302856 10.74218384 -60.41677856 10.01968384 C-59.5792425 6.51726032 -58.33235749 2.74776276 -55.72927856 0.14468384 C-54.0772696 -0.01391657 -52.41885629 -0.10663105 -50.76052856 -0.17172241 C-49.71252075 -0.21361694 -48.66451294 -0.25551147 -47.58474731 -0.29867554 C-46.47744263 -0.33799194 -45.37013794 -0.37730835 -44.22927856 -0.41781616 C-43.18384888 -0.46099976 -42.13841919 -0.50418335 -41.06130981 -0.54867554 C-27.31232434 -1.07110382 -13.72787274 -0.97524936 0 0 Z " fill="#FBFBFB" transform="translate(167.72927856445313,18.855316162109375)"/>
<path d="M0 0 C110.55 0 221.1 0 335 0 C335 71.28 335 142.56 335 216 C316.19 216 297.38 216 278 216 C279 212 280 208 281 204 C281.66 204 282.32 204 283 204 C287.12014425 188.58067229 288.97361663 172.60060471 291.125 156.8125 C291.73863496 152.38672573 292.76096211 148.29533135 294 144 C294.43854627 140.67394683 294.7442685 137.34469887 295 134 C294.01 133.67 293.02 133.34 292 133 C292 132.01 292 131.02 292 130 C291.34 130 290.68 130 290 130 C287.41610584 124.83221167 288.29568202 114.94990323 289.6015625 109.48046875 C290.34734633 107.6310755 291.1724367 105.81427338 292 104 C292.531469 101.7008189 292.9735386 99.40325562 293.375 97.078125 C294 95 294 95 295.4375 93.125 C297.40425948 90.45020711 298.09356702 87.93762264 299 84.75 C300.47119127 79.7309744 302.09115608 74.867552 304 70 C304.66 70 305.32 70 306 70 C308.54125153 82.09143873 308.27607472 96.21388191 304.68359375 107.98828125 C302.13839334 119.20170705 303.53443963 130.50862323 308 141 C308.33 141.99 308.66 142.98 309 144 C310.32 144 311.64 144 313 144 C313 143.34 313 142.68 313 142 C313.99 141.67 314.98 141.34 316 141 C315.69024532 139.22868439 315.37709575 137.45796222 315.0625 135.6875 C314.88847656 134.70136719 314.71445312 133.71523437 314.53515625 132.69921875 C314.04253153 129.91810787 314.04253153 129.91810787 313 127 C312.42560832 120.33926575 313.07080209 114.19978857 314.5 107.6875 C318.12018321 90.50111219 316.76921906 72.17109131 311.95703125 55.35546875 C310.21089712 48.48361298 310.24572988 41.25258376 309.87695312 34.203125 C309.80541016 33.0790625 309.73386719 31.955 309.66015625 30.796875 C309.60480713 29.77948242 309.54945801 28.76208984 309.49243164 27.71386719 C308.9439325 24.69100333 307.9302356 23.33243532 306 21 C306 20.34 306 19.68 306 19 C305.34 19 304.68 19 304 19 C303.2884375 18.0409375 303.2884375 18.0409375 302.5625 17.0625 C301.0908635 14.71627037 301.0908635 14.71627037 298 14 C298 13.34 298 12.68 298 12 C296.68 12 295.36 12 294 12 C294 11.34 294 10.68 294 10 C285.06476812 9.19812022 276.15724898 8.86988803 267.1875 8.8125 C266.25357422 8.79960937 265.31964844 8.78671875 264.35742188 8.7734375 C258.3902654 8.76533545 252.58751816 9.25362671 246.671875 9.99609375 C235.80881449 11.32086252 224.99217137 11.3044185 214.0625 11.25 C212.50506577 11.24734131 212.50506577 11.24734131 210.91616821 11.24462891 C198.26980677 11.21937431 185.78775383 10.89530369 173.19262695 9.72070312 C162.55193175 8.8030698 151.92276464 8.77036147 141.25 8.75 C139.90462662 8.74250732 139.90462662 8.74250732 138.53207397 8.73486328 C128.56892027 8.68907831 118.9375791 8.9970811 109.09423828 10.60791016 C105.26185289 11.09353513 101.83386139 10.79042314 98.02734375 10.26953125 C95.52313354 10.04657576 93.25428531 10.02834148 90.75390625 10.13671875 C90.00093262 10.16362793 89.24795898 10.19053711 88.47216797 10.21826172 C86.98427894 10.27963436 85.49711884 10.36472412 84.01220703 10.47705078 C81.03060993 10.58202191 78.70504531 10.54711193 76.29541016 8.67724609 C74.73828125 7.04296875 74.73828125 7.04296875 73.4152832 5.39916992 C69.56464116 1.59236821 62.57961824 2.77735988 57.5625 2.75 C56.62083984 2.729375 55.67917969 2.70875 54.70898438 2.6875 C47.85278989 2.64726544 47.85278989 2.64726544 42 6 C41.35160156 6.71929688 40.70320313 7.43859375 40.03515625 8.1796875 C38 10 38 10 35.37109375 10.3203125 C34.40300781 10.25585938 33.43492188 10.19140625 32.4375 10.125 C27.19798757 9.93284184 22.58608095 10.45189192 17.47265625 11.5625 C14.93092115 12.01222248 12.57558752 12.07371986 10 12 C10 12.66 10 13.32 10 14 C8.02 14.99 8.02 14.99 6 16 C6.61896811 19.59775213 7.59924684 22.75701261 9 26.125 C10.08194112 28.74234287 11.10385187 31.3115556 12 34 C13.81296615 34.62092718 13.81296615 34.62092718 16 35 C16.74121094 35.32613281 17.48242188 35.65226562 18.24609375 35.98828125 C21.34221875 37.12572292 24.02712998 37.4083822 27.3125 37.625 C28.38113281 37.69976562 29.44976563 37.77453125 30.55078125 37.8515625 C31.35902344 37.90054688 32.16726562 37.94953125 33 38 C33.495 41.96 33.495 41.96 34 46 C34.99 46.33 35.98 46.66 37 47 C37.14695312 47.87398437 37.14695312 47.87398437 37.296875 48.765625 C38.39565639 54.78997814 40.04557888 60.44088811 42.0546875 66.22265625 C42.83452203 68.51382299 43.51220859 70.78569311 44.125 73.125 C44.78308824 76.09681373 44.78308824 76.09681373 47 78 C49.33394962 77.96790819 51.66745168 77.89950029 54 77.8125 C58.52104004 77.89101848 61.78318745 78.32709123 65.07421875 81.6015625 C70.10790213 87.59326362 73.73575297 94.51446692 76 102 C72.27034861 104.03435531 70.33094958 105 66 105 C65.773125 105.598125 65.54625 106.19625 65.3125 106.8125 C63.66064339 109.56559434 61.76147267 110.44224619 59 112 C58.67 112.66 58.34 113.32 58 114 C55.69 114 53.38 114 51 114 C51 114.66 51 115.32 51 116 C48.03 116.495 48.03 116.495 45 117 C45 117.66 45 118.32 45 119 C44.34 119 43.68 119 43 119 C43 119.66 43 120.32 43 121 C42.34 121 41.68 121 41 121 C40.855625 121.804375 40.71125 122.60875 40.5625 123.4375 C40 126 40 126 39 127 C38.01357732 133.31310518 37.70583036 139.62165538 37.4375 146 C37.37272461 147.44826172 37.37272461 147.44826172 37.30664062 148.92578125 C37.20158354 151.28372919 37.1003923 153.64184884 37 156 C40.3 156 43.6 156 47 156 C46.99476318 155.2886792 46.98952637 154.5773584 46.98413086 153.84448242 C46.96335982 150.62549725 46.95033942 147.40652617 46.9375 144.1875 C46.92912109 143.06794922 46.92074219 141.94839844 46.91210938 140.79492188 C46.90888672 139.72177734 46.90566406 138.64863281 46.90234375 137.54296875 C46.89710693 136.55321045 46.89187012 135.56345215 46.88647461 134.54370117 C47 132 47 132 48 129 C48.66 129 49.32 129 50 129 C50 128.34 50 127.68 50 127 C50.66 127 51.32 127 52 127 C52.06731323 127.86782104 52.06731323 127.86782104 52.13598633 128.75317383 C53.22630061 142.98542628 53.22630061 142.98542628 56.390625 156.86328125 C58.33683369 163.68748737 56.11705917 169.5352242 54 176 C53.59692589 177.37289486 53.20005565 178.74764396 52.8125 180.125 C52.544375 181.07375 52.27625 182.0225 52 183 C51.34 183 50.68 183 50 183 C49.91363281 183.54785156 49.82726563 184.09570312 49.73828125 184.66015625 C48.73967595 190.2944889 47.24685471 195.64479353 45.4375 201.0625 C45.21553955 201.72967041 44.9935791 202.39684082 44.76489258 203.08422852 C43.13506369 207.86493631 43.13506369 207.86493631 42 209 C41.67 211.31 41.34 213.62 41 216 C27.47 216 13.94 216 0 216 C0 144.72 0 73.44 0 0 Z " fill="#FBFBFB" transform="translate(0,0)"/>
<path d="M0 0 C1.47119044 0.00934862 2.94238188 0.01854293 4.41357422 0.02758789 C12.94681676 0.108808 21.3924696 0.49451275 29.86743164 1.53222656 C36.22405182 2.30796803 42.5388996 2.55655394 48.9375 2.75 C69.07652137 3.44393257 69.07652137 3.44393257 73.41015625 7.7890625 C75.44190633 9.81561628 77.4175214 10.39600513 80.125 11.3125 C81.10597656 11.65023437 82.08695313 11.98796875 83.09765625 12.3359375 C84.03480469 12.65820312 84.97195312 12.98046875 85.9375 13.3125 C87.31434997 13.84944686 88.68959404 14.39054753 90.0625 14.9375 C94.25176862 16.52803145 98.54853918 17.44893132 102.9375 18.3125 C102.9375 17.3225 102.9375 16.3325 102.9375 15.3125 C105.34392102 16.27107435 106.66834295 16.84994863 107.9921875 19.125 C108.26289063 19.846875 108.53359375 20.56875 108.8125 21.3125 C110.67476863 25.8976873 113.04244337 29.96089069 115.66796875 34.1484375 C116.9375 36.3125 116.9375 36.3125 117.9375 39.3125 C111.3125 39.4375 111.3125 39.4375 107.9375 38.3125 C103.09472946 37.86521036 98.66078705 37.76425626 94.1875 39.8125 C88.44487583 42.33972923 82.07635707 41.54529374 75.9375 41.3125 C75.6075 42.6325 75.2775 43.9525 74.9375 45.3125 C74.2775 45.3125 73.6175 45.3125 72.9375 45.3125 C74.05171381 57.63949987 74.05171381 57.63949987 76.5 69.75 C78.63235612 78.12865181 78.67410742 86.71136996 78.9375 95.3125 C78.2775 95.3125 77.6175 95.3125 76.9375 95.3125 C75.97404556 93.44012629 75.01696898 91.5644701 74.0625 89.6875 C73.52882813 88.64335937 72.99515625 87.59921875 72.4453125 86.5234375 C70.04481672 81.41150089 68.70142224 76.57661391 67.875 71 C67.60440348 67.34164971 67.60440348 67.34164971 65.9375 64.3125 C65.57955633 62.37764904 65.27770992 60.43236091 65 58.484375 C64.82726562 57.29199219 64.65453125 56.09960938 64.4765625 54.87109375 C64.29867187 53.61425781 64.12078125 52.35742188 63.9375 51.0625 C63.58444622 48.5987986 63.23032005 46.13525058 62.875 43.671875 C62.71902344 42.57327148 62.56304687 41.47466797 62.40234375 40.34277344 C61.98851628 37.64507044 61.49815058 34.98303251 60.9375 32.3125 C56.4825 32.8075 56.4825 32.8075 51.9375 33.3125 C52.2675 34.715 52.5975 36.1175 52.9375 37.5625 C53.67266599 40.68695544 53.9375 43.04032865 53.9375 46.3125 C42.0575 46.3125 30.1775 46.3125 17.9375 46.3125 C17.9375 45.6525 17.9375 44.9925 17.9375 44.3125 C17.28523438 44.33570313 16.63296875 44.35890625 15.9609375 44.3828125 C10.75589534 44.49029125 6.86705045 44.09552889 1.9375 42.3125 C-1.05985591 41.86165804 -4.04157876 41.5871292 -7.0625 41.3125 C-7.0625 37.6825 -7.0625 34.0525 -7.0625 30.3125 C-11.5175 29.3225 -11.5175 29.3225 -16.0625 28.3125 C-16.02125 29.01375 -15.98 29.715 -15.9375 30.4375 C-16.07918332 33.69621628 -16.92984686 36.2684947 -18.0625 39.3125 C-18.7225 39.3125 -19.3825 39.3125 -20.0625 39.3125 C-20.145 40.42625 -20.2275 41.54 -20.3125 42.6875 C-21.59406447 52.79761968 -27.25663427 64.01840609 -33.0625 72.3125 C-33.7225 72.3125 -34.3825 72.3125 -35.0625 72.3125 C-35.17851563 73.17746094 -35.29453125 74.04242188 -35.4140625 74.93359375 C-36.06884023 78.34553794 -37.07868249 81.18383767 -38.4375 84.375 C-38.85773437 85.37660156 -39.27796875 86.37820312 -39.7109375 87.41015625 C-41.01356833 90.20742419 -42.26528967 92.80101377 -44.0625 95.3125 C-45.0525 95.3125 -46.0425 95.3125 -47.0625 95.3125 C-45.8114061 85.28507577 -43.25198846 75.70683224 -39.24267578 66.41186523 C-37.02294991 61.12933821 -36.66323635 56.57034106 -36.8125 50.875 C-36.81765625 50.06095703 -36.8228125 49.24691406 -36.828125 48.40820312 C-36.51999031 44.54851771 -36.51999031 44.54851771 -38.0625 41.3125 C-39.05051278 34.56717816 -39.19864793 27.6849241 -39.3125 20.875 C-39.33828125 19.55628906 -39.3640625 18.23757812 -39.390625 16.87890625 C-38.90231621 11.57145476 -37.05930449 9.22262584 -33.1875 5.6875 C-23.60876163 -0.67141087 -11.0537954 -0.14764883 0 0 Z " fill="#F8F8F8" transform="translate(101.0625,110.6875)"/>
<path d="M0 0 C6.625 -0.25 6.625 -0.25 10 2 C10.28970736 5.91104938 10.02708885 9.23952955 9 13 C9.87011719 12.96519531 9.87011719 12.96519531 10.7578125 12.9296875 C15.70646908 12.8153621 19.29651098 13.36817728 24 15 C27.32452994 15.45630803 30.65424597 15.74873784 34 16 C34 16.66 34 17.32 34 18 C45.88 18 57.76 18 70 18 C69.01 14.535 69.01 14.535 68 11 C67.875 7.5625 67.875 7.5625 68 5 C72.455 4.505 72.455 4.505 77 4 C78.79209904 7.58419807 78.80962744 11.67858435 79.25 15.625 C79.36601562 16.50285156 79.48203125 17.38070312 79.6015625 18.28515625 C80.27737483 24.43139543 79.59469828 28.37815372 77 34 C76.67 33.01 76.34 32.02 76 31 C75.34 31 74.68 31 74 31 C74.165 31.53625 74.33 32.0725 74.5 32.625 C75.09660212 35.45886009 75.0656368 38.1119806 75 41 C75.66 41 76.32 41 77 41 C77.16435547 42.35931641 77.16435547 42.35931641 77.33203125 43.74609375 C78.34726677 51.89513322 78.34726677 51.89513322 80.625 59.75 C82.40127138 64.489699 82.28197899 68.99748386 82 74 C82.66 74 83.32 74 84 74 C84 74.99 84 75.98 84 77 C48.69 77 13.38 77 -23 77 C-21 72 -21 72 -19.0625 69.6875 C-16.8448294 66.79780801 -15.82259348 64.25093005 -14.66015625 60.83984375 C-14 59 -14 59 -12.8125 57 C-11.48059631 53.72146783 -11.88295817 50.51125487 -12 47 C-11.34 47 -10.68 47 -10 47 C-10 46.34 -10 45.68 -10 45 C-10.66 45 -11.32 45 -12 45 C-12.495 43.515 -12.495 43.515 -13 42 C-12.67 41.34 -12.34 40.68 -12 40 C-12.66 40 -13.32 40 -14 40 C-13.95875 40.78375 -13.9175 41.5675 -13.875 42.375 C-14 45 -14 45 -16 47 C-16.12375 47.825 -16.2475 48.65 -16.375 49.5 C-17 52 -17 52 -19.0625 53.3125 C-19.701875 53.539375 -20.34125 53.76625 -21 54 C-21 54.99 -21 55.98 -21 57 C-21.66 57 -22.32 57 -23 57 C-21.77443263 52.62297367 -20.46939453 48.30322683 -19 44 C-18.34 44 -17.68 44 -17 44 C-16.896875 43.443125 -16.79375 42.88625 -16.6875 42.3125 C-15.85807174 39.52260494 -14.5490342 37.46698039 -13 35 C-9.7744182 29.81300382 -7.85199823 24.94153125 -6.25 19.0625 C-6.02957031 18.28326172 -5.80914062 17.50402344 -5.58203125 16.70117188 C-5.04638073 14.80310589 -4.52199702 12.90186621 -4 11 C-3.34 11 -2.68 11 -2 11 C-2.04125 10.29875 -2.0825 9.5975 -2.125 8.875 C-1.98331668 5.61628372 -1.13265314 3.0440053 0 0 Z " fill="#0A0A0A" transform="translate(85,139)"/>
<path d="M0 0 C0 0.66 0 1.32 0 2 C1.32 2 2.64 2 4 2 C4 2.66 4 3.32 4 4 C4.61875 4.0825 5.2375 4.165 5.875 4.25 C8 5 8 5 9.25 7.0625 C9.4975 7.701875 9.745 8.34125 10 9 C10.66 9 11.32 9 12 9 C16.88355298 14.34513643 16.66680206 19.83147805 16.9375 26.8125 C17.44327332 36.01537536 18.58563061 44.7026576 20.625 53.6875 C24.1785015 69.87751256 24.16628572 85.32101291 20.6796875 101.4921875 C19.02548176 110.02941025 19.69271554 117.41557707 22.44140625 125.625 C23.04224605 128.17961956 22.85587793 129.55139558 22 132 C21.01 132 20.02 132 19 132 C19 132.66 19 133.32 19 134 C17.68 134 16.36 134 15 134 C9.4560015 127.3472018 8.71114398 118.43223857 8.625 110.125 C8.61122314 109.40675049 8.59744629 108.68850098 8.58325195 107.94848633 C8.62042475 103.50113312 9.29951679 99.66413023 10.51171875 95.3828125 C12.4403521 88.1584734 12.3331728 81.18304797 12.1875 73.75 C12.17240372 72.40756735 12.15872418 71.06511799 12.14648438 69.72265625 C12.11150604 66.48133056 12.06242337 63.24089338 12 60 C9.82520338 60.80678601 9.82520338 60.80678601 9.25390625 62.93359375 C9.02574219 63.75988281 8.79757812 64.58617188 8.5625 65.4375 C8.17771484 66.78521484 8.17771484 66.78521484 7.78515625 68.16015625 C7.27048467 70.02167981 6.75740621 71.88364473 6.24609375 73.74609375 C5.99988281 74.61363281 5.75367188 75.48117188 5.5 76.375 C5.2834375 77.16648437 5.066875 77.95796875 4.84375 78.7734375 C4 81 4 81 2.5390625 82.77734375 C0.3082316 85.99902594 -0.28308364 89.39887636 -1.125 93.1875 C-2.89074915 100.89074915 -2.89074915 100.89074915 -4 102 C-4.23481693 104.18292774 -4.41363323 106.37203174 -4.5625 108.5625 C-4.64628906 109.76003906 -4.73007812 110.95757812 -4.81640625 112.19140625 C-4.87699219 113.11824219 -4.93757812 114.04507813 -5 115 C-5.33 115 -5.66 115 -6 115 C-6.99 109.06 -6.99 109.06 -8 103 C-11.85880936 109.75291638 -11.28506966 116.38758424 -11 124 C-15.68143973 116.9778404 -14.77407505 106.37873968 -13.3125 98.3125 C-11.61742573 90.77746181 -9.24482792 83.38565523 -7 76 C-6.34 76 -5.68 76 -5 76 C-5.0825 75.21625 -5.165 74.4325 -5.25 73.625 C-4.90508489 68.62373094 -3.01353919 64.5484412 -1 60 C-0.34 60 0.32 60 1 60 C1.06058594 59.28972656 1.12117187 58.57945313 1.18359375 57.84765625 C1.26738281 56.92855469 1.35117187 56.00945312 1.4375 55.0625 C1.55931641 53.68771484 1.55931641 53.68771484 1.68359375 52.28515625 C2 50 2 50 3 49 C4.79351666 41.99612107 5.27190961 34.82487021 5.4375 27.625 C5.47174072 26.86453369 5.50598145 26.10406738 5.54125977 25.32055664 C5.57248437 21.32336749 5.12572114 19.22902067 3.16015625 15.6484375 C-2.73614689 9.68875922 -12.13390537 9.74177547 -20.00390625 9.67529297 C-23.52386534 9.6712381 -27.04276922 9.70530389 -30.5625 9.7421875 C-32.44530672 9.75033746 -34.32812044 9.75699568 -36.2109375 9.76223755 C-41.13516715 9.77924955 -46.05911513 9.8134539 -50.98321533 9.85229492 C-58.89145261 9.9118143 -66.79983608 9.94534324 -74.70822144 9.97806168 C-77.46643625 9.99201767 -80.22451133 10.01359828 -82.98266602 10.03634644 C-84.66552639 10.04636576 -86.34838768 10.05623141 -88.03125 10.06591797 C-88.79799545 10.07422638 -89.56474091 10.08253479 -90.35472107 10.09109497 C-93.51702394 10.10440545 -95.97550396 10.00816535 -99 9 C-101.13661258 8.84929203 -103.27712124 8.7514034 -105.41796875 8.68359375 C-106.67158203 8.64169922 -107.92519531 8.59980469 -109.21679688 8.55664062 C-111.18229492 8.49766602 -111.18229492 8.49766602 -113.1875 8.4375 C-114.52279978 8.39429008 -115.85808652 8.350675 -117.19335938 8.30664062 C-120.46213297 8.20043498 -123.73098333 8.09839003 -127 8 C-127 7.34 -127 6.68 -127 6 C-131.29 6 -135.58 6 -140 6 C-140 5.67 -140 5.34 -140 5 C-142.64 4.67 -145.28 4.34 -148 4 C-147.67 3.34 -147.34 2.68 -147 2 C-152.94 1.67 -158.88 1.34 -165 1 C-165 0.67 -165 0.34 -165 0 C-159.21590487 -0.02470049 -153.43184038 -0.04286023 -147.64770508 -0.05493164 C-145.67960068 -0.0599635 -143.71150003 -0.06678958 -141.7434082 -0.07543945 C-138.91616899 -0.08755517 -136.08897916 -0.09323976 -133.26171875 -0.09765625 C-132.38037766 -0.10281754 -131.49903656 -0.10797882 -130.59098816 -0.11329651 C-129.77036392 -0.11337204 -128.94973969 -0.11344757 -128.10424805 -0.11352539 C-127.02169991 -0.11685631 -127.02169991 -0.11685631 -125.9172821 -0.12025452 C-124 0 -124 0 -121 1 C-118.38784198 1.23380086 -115.79723532 1.41624164 -113.1796875 1.55078125 C-112.38956268 1.59262039 -111.59943787 1.63445953 -110.78536987 1.67756653 C-101.83205097 2.11202819 -92.87997739 2.18609378 -83.91748047 2.18530273 C-81.0789589 2.18753623 -78.24079943 2.20591936 -75.40234375 2.22460938 C-73.58333464 2.2275362 -71.76432372 2.22952574 -69.9453125 2.23046875 C-69.10372589 2.23765427 -68.26213928 2.24483978 -67.39505005 2.25224304 C-66.61257904 2.24916641 -65.83010803 2.24608978 -65.02392578 2.24291992 C-63.99949875 2.24505745 -63.99949875 2.24505745 -62.95437622 2.24723816 C-60.63579123 1.95392581 -59.06258319 1.07454018 -57 0 C-54.39681222 -0.47277626 -51.87427325 -0.8442302 -49.25 -1.125 C-48.08537231 -1.2502002 -48.08537231 -1.2502002 -46.8972168 -1.37792969 C-31.28368863 -2.87526383 -15.45640515 -2.77422657 0 0 Z " fill="#0E0E0E" transform="translate(294,10)"/>
<path d="M0 0 C1.16402344 0.12761719 1.16402344 0.12761719 2.3515625 0.2578125 C4.375 0.875 4.375 0.875 6.375 3.875 C6.73282538 6.46923398 6.97665184 8.95683632 7.125 11.5625 C7.18042969 12.24505859 7.23585937 12.92761719 7.29296875 13.63085938 C7.56634428 18.01729399 7.07585673 21.59713595 5.88720703 25.81420898 C4.78775847 30.23768149 4.61653052 34.83686792 4.25195312 39.36914062 C3.5931201 46.54507876 2.04638629 52.63232607 0.375 59.875 C-14.145 59.875 -28.665 59.875 -43.625 59.875 C-43.295 59.215 -42.965 58.555 -42.625 57.875 C-42.47495027 56.5015365 -42.37661994 55.1221474 -42.30859375 53.7421875 C-42.26669922 52.93652344 -42.22480469 52.13085938 -42.18164062 51.30078125 C-42.14232422 50.45902344 -42.10300781 49.61726563 -42.0625 48.75 C-41.99772461 47.47576172 -41.99772461 47.47576172 -41.93164062 46.17578125 C-41.82545764 44.07571777 -41.72471503 41.97538052 -41.625 39.875 C-42.285 39.875 -42.945 39.875 -43.625 39.875 C-46.4467992 28.5878032 -46.79336043 17.47316264 -46.625 5.875 C-37.0901413 2.83999716 -29.66693196 1.55802532 -19.625 2.875 C-17.62704418 2.99795113 -15.6262872 3.08264472 -13.625 3.125 C-12.75875 3.15078125 -11.8925 3.1765625 -11 3.203125 C-8.52606619 3.05757448 -8.52606619 3.05757448 -6.6015625 1.3515625 C-4.12736441 -0.49675148 -3.01406296 -0.39313865 0 0 Z " fill="#FAFAFA" transform="translate(232.625,156.125)"/>
<path d="M0 0 C0 0.66 0 1.32 0 2 C1.32 2 2.64 2 4 2 C4 2.66 4 3.32 4 4 C4.598125 4.04125 5.19625 4.0825 5.8125 4.125 C8 5 8 5 9.75 7.9375 C11 11 11 11 11 13 C11.66 13 12.32 13 13 13 C14.32286246 17.96073422 14.08893197 22.91111512 14 28 C12.35 28.33 10.7 28.66 9 29 C9 30.65 9 32.3 9 34 C8.67 34 8.34 34 8 34 C7.98582031 33.03578125 7.97164062 32.0715625 7.95703125 31.078125 C7.88548828 29.18320312 7.88548828 29.18320312 7.8125 27.25 C7.77769531 25.99703125 7.74289062 24.7440625 7.70703125 23.453125 C7.31322159 19.85475679 7.31322159 19.85475679 4.55859375 17.6796875 C3.71425781 17.12539063 2.86992187 16.57109375 2 16 C1.4225 15.29875 0.845 14.5975 0.25 13.875 C-5.09010124 9.42491564 -13.11173274 9.71175109 -19.77685547 9.78881836 C-20.60240433 9.7901326 -21.42795319 9.79144684 -22.27851868 9.7928009 C-24.97486367 9.79922999 -27.67091397 9.81962545 -30.3671875 9.83984375 C-32.25285535 9.84612197 -34.13852692 9.85135946 -36.02420044 9.85560608 C-40.96482506 9.86884881 -45.90532379 9.89326249 -50.84588623 9.92095947 C-58.77399983 9.96425107 -66.70214926 9.99378191 -74.63034439 10.0170002 C-77.39739822 10.02722444 -80.16435134 10.04426704 -82.93136597 10.06199646 C-84.62074698 10.06882204 -86.31012888 10.07543083 -87.99951172 10.08178711 C-88.76939926 10.08852448 -89.5392868 10.09526184 -90.33250427 10.10220337 C-93.49906157 10.10899831 -95.97189513 10.00936829 -99 9 C-101.13661258 8.84929203 -103.27712124 8.7514034 -105.41796875 8.68359375 C-106.67158203 8.64169922 -107.92519531 8.59980469 -109.21679688 8.55664062 C-111.18229492 8.49766602 -111.18229492 8.49766602 -113.1875 8.4375 C-114.52279978 8.39429008 -115.85808652 8.350675 -117.19335938 8.30664062 C-120.46213297 8.20043498 -123.73098333 8.09839003 -127 8 C-127 7.34 -127 6.68 -127 6 C-131.29 6 -135.58 6 -140 6 C-140 5.67 -140 5.34 -140 5 C-142.64 4.67 -145.28 4.34 -148 4 C-147.67 3.34 -147.34 2.68 -147 2 C-152.94 1.67 -158.88 1.34 -165 1 C-165 0.67 -165 0.34 -165 0 C-159.21590487 -0.02470049 -153.43184038 -0.04286023 -147.64770508 -0.05493164 C-145.67960068 -0.0599635 -143.71150003 -0.06678958 -141.7434082 -0.07543945 C-138.91616899 -0.08755517 -136.08897916 -0.09323976 -133.26171875 -0.09765625 C-132.38037766 -0.10281754 -131.49903656 -0.10797882 -130.59098816 -0.11329651 C-129.77036392 -0.11337204 -128.94973969 -0.11344757 -128.10424805 -0.11352539 C-127.02169991 -0.11685631 -127.02169991 -0.11685631 -125.9172821 -0.12025452 C-124 0 -124 0 -121 1 C-118.38784198 1.23380086 -115.79723532 1.41624164 -113.1796875 1.55078125 C-112.38956268 1.59262039 -111.59943787 1.63445953 -110.78536987 1.67756653 C-101.83205097 2.11202819 -92.87997739 2.18609378 -83.91748047 2.18530273 C-81.0789589 2.18753623 -78.24079943 2.20591936 -75.40234375 2.22460938 C-73.58333464 2.2275362 -71.76432372 2.22952574 -69.9453125 2.23046875 C-69.10372589 2.23765427 -68.26213928 2.24483978 -67.39505005 2.25224304 C-66.61257904 2.24916641 -65.83010803 2.24608978 -65.02392578 2.24291992 C-63.99949875 2.24505745 -63.99949875 2.24505745 -62.95437622 2.24723816 C-60.63579123 1.95392581 -59.06258319 1.07454018 -57 0 C-54.39681222 -0.47277626 -51.87427325 -0.8442302 -49.25 -1.125 C-48.08537231 -1.2502002 -48.08537231 -1.2502002 -46.8972168 -1.37792969 C-31.28368863 -2.87526383 -15.45640515 -2.77422657 0 0 Z " fill="#0C0C0C" transform="translate(294,10)"/>
<path d="M0 0 C3.12048385 2.84398528 4.82270103 5.44067827 5.3046875 9.6796875 C5.31166172 12.14158869 5.22192849 14.54892311 5 17 C3.02 17 1.04 17 -1 17 C-1 19.97 -1 22.94 -1 26 C-0.01 26 0.98 26 2 26 C1.39891424 31.65020618 -0.07528683 36.66164461 -2 42 C-6.75 40.125 -6.75 40.125 -9 39 C-13.04451087 38.73622755 -15.47720989 39.05639166 -19 41 C-19.99 41 -20.98 41 -22 41 C-22.67756882 39.44219668 -23.34159457 37.87849904 -24 36.3125 C-24.37125 35.44238281 -24.7425 34.57226562 -25.125 33.67578125 C-26.01870488 30.9427998 -26.16449676 28.85299066 -26 26 C-24.68 26 -23.36 26 -22 26 C-22 23.03 -22 20.06 -22 17 C-24.31 17 -26.62 17 -29 17 C-29.57673832 12.53256666 -29.93057317 8.63996662 -27.65234375 4.625 C-20.45035156 -3.98573352 -9.77587853 -5.82792759 0 0 Z " fill="#F2F2F2" transform="translate(70,14)"/>
<path d="M0 0 C0.99 0 1.98 0 3 0 C3.58601114 10.92259649 2.41584667 21.10957959 0.51074219 31.86499023 C0.33317383 32.87376221 0.15560547 33.88253418 -0.02734375 34.921875 C-0.18968506 35.80456055 -0.35202637 36.68724609 -0.51928711 37.59667969 C-1.24069981 42.70409109 -1.57164237 47.85970845 -2 53 C-10.58 53 -19.16 53 -28 53 C-26 48 -26 48 -24.0625 45.6875 C-21.85195749 42.80709612 -20.83409157 40.26460076 -19.66015625 36.87109375 C-18.93572215 34.81781604 -18.03663122 32.91378072 -17 31 C-16.34 31 -15.68 31 -15 31 C-14.91105469 30.35675781 -14.82210937 29.71351563 -14.73046875 29.05078125 C-12.31585425 18.96621479 -7.07799963 7.57181355 0 0 Z " fill="#F4F4F4" transform="translate(90,163)"/>
<path d="M0 0 C0.33 0 0.66 0 1 0 C1.11069824 0.78648926 1.22139648 1.57297852 1.33544922 2.38330078 C1.84285557 5.96471315 2.35884181 9.54483893 2.875 13.125 C3.04902344 14.3625 3.22304687 15.6 3.40234375 16.875 C3.57636719 18.07382813 3.75039062 19.27265625 3.9296875 20.5078125 C4.08679199 21.60754395 4.24389648 22.70727539 4.40576172 23.84033203 C5.00533723 27.02837896 5.95070495 29.93533296 7 33 C7.144375 34.11375 7.28875 35.2275 7.4375 36.375 C7.9591766 39.73691585 8.90878771 42.52311757 10.16796875 45.66796875 C11.83163014 50.330907 12.86855382 55.1853354 14 60 C15.65 60 17.3 60 19 60 C18.85899143 57.72886197 18.71203245 55.45809275 18.5625 53.1875 C18.48128906 51.92292969 18.40007812 50.65835938 18.31640625 49.35546875 C18.12815453 46.00818107 18.12815453 46.00818107 17 43 C16.93259135 41.43881572 16.91485544 39.8749748 16.9375 38.3125 C16.94652344 37.50425781 16.95554688 36.69601563 16.96484375 35.86328125 C16.97644531 35.24839844 16.98804688 34.63351563 17 34 C19.375 33.375 19.375 33.375 22 33 C25.42025316 36.42025316 25.95344801 40.71982025 26.125 45.4375 C26.08375 46.283125 26.0425 47.12875 26 48 C26.66 48 27.32 48 28 48 C28.05379226 50.95857409 28.09357093 53.91617721 28.125 56.875 C28.14175781 57.71675781 28.15851563 58.55851562 28.17578125 59.42578125 C28.18544922 60.63427734 28.18544922 60.63427734 28.1953125 61.8671875 C28.21102295 62.98262939 28.21102295 62.98262939 28.22705078 64.12060547 C28 66 28 66 26 68 C23.93701172 68.22705078 23.93701172 68.22705078 21.4296875 68.1953125 C20.53378906 68.18886719 19.63789063 68.18242187 18.71484375 68.17578125 C17.30912109 68.15064453 17.30912109 68.15064453 15.875 68.125 C14.45767578 68.11146484 14.45767578 68.11146484 13.01171875 68.09765625 C10.67422708 68.07404522 8.33723877 68.04111516 6 68 C6 67.01 6 66.02 6 65 C5.34 65 4.68 65 4 65 C3.87882813 64.13117188 3.75765625 63.26234375 3.6328125 62.3671875 C3.46523437 61.21476562 3.29765625 60.06234375 3.125 58.875 C2.96257812 57.73804688 2.80015625 56.60109375 2.6328125 55.4296875 C2.0956917 52.03398012 2.0956917 52.03398012 0.96875 49.03125 C-0.15652326 45.51023367 -0.41636859 42.31082158 -0.625 38.625 C-0.69976562 37.37976563 -0.77453125 36.13453125 -0.8515625 34.8515625 C-0.90054688 33.91054687 -0.94953125 32.96953125 -1 32 C-1.66 32 -2.32 32 -3 32 C-4 28 -5 24 -6 20 C-5.34 20 -4.68 20 -4 20 C-4 20.66 -4 21.32 -4 22 C-3.01 22.33 -2.02 22.66 -1 23 C0.87186032 17.56303166 1.14613573 13.25851354 0.625 7.5625 C0.56828125 6.83095703 0.5115625 6.09941406 0.453125 5.34570312 C0.3132963 3.56288714 0.15824062 1.78127618 0 0 Z " fill="#101010" transform="translate(163,148)"/>
<path d="M0 0 C2.98833287 2.3150721 3.33254611 5.3754617 4.1015625 8.90625 C5.05401303 13.01516882 6.03430381 16.76599412 7.9765625 20.53125 C8.1015625 23.78125 8.1015625 23.78125 7.9765625 26.53125 C2.32044402 30.3578962 -1.87600701 31.20915961 -8.6484375 31.15625 C-9.48117188 31.18847656 -10.31390625 31.22070312 -11.171875 31.25390625 C-17.07411374 31.26330472 -17.07411374 31.26330472 -19.72167969 29.22167969 C-23.0234375 25.40409483 -23.0234375 25.40409483 -23.0234375 22.53125 C-23.6834375 22.53125 -24.3434375 22.53125 -25.0234375 22.53125 C-25.0234375 21.87125 -25.0234375 21.21125 -25.0234375 20.53125 C-26.0134375 20.20125 -27.0034375 19.87125 -28.0234375 19.53125 C-28.0234375 17.88125 -28.0234375 16.23125 -28.0234375 14.53125 C-27.4665625 14.28890625 -26.9096875 14.0465625 -26.3359375 13.796875 C-15.82016632 9.46847323 -15.82016632 9.46847323 -7.0234375 2.53125 C-2.7874493 -0.64574115 -2.7874493 -0.64574115 0 0 Z " fill="#F3F3F3" transform="translate(249.0234375,116.46875)"/>
<path d="M0 0 C1.65 0 3.3 0 5 0 C7.41685712 4.22949995 8.34833144 7.12335991 8 12 C8.66 12 9.32 12 10 12 C10.10957031 12.90621094 10.21914062 13.81242188 10.33203125 14.74609375 C11.34726677 22.89513322 11.34726677 22.89513322 13.625 30.75 C15.40127138 35.489699 15.28197899 39.99748386 15 45 C15.66 45 16.32 45 17 45 C17 45.99 17 46.98 17 48 C9.74 48 2.48 48 -5 48 C-4.63294574 36.76813977 -4.17689313 26.34854964 -1.69921875 15.3984375 C-0.65028896 10.30028712 -0.28028554 5.19011507 0 0 Z " fill="#F2F2F2" transform="translate(152,168)"/>
<path d="M0 0 C0.33 0 0.66 0 1 0 C2.57930686 7.45356901 3.35418399 14.5717046 3.3125 22.1875 C3.31121094 23.18563721 3.30992187 24.18377441 3.30859375 25.2121582 C3.21403758 32.56567366 2.22494773 39.32512337 0.6796875 46.4921875 C-0.97451824 55.02941025 -0.30728446 62.41557707 2.44140625 70.625 C3.04224605 73.17961956 2.85587793 74.55139558 2 77 C1.01 77 0.02 77 -1 77 C-1 77.66 -1 78.32 -1 79 C-2.32 79 -3.64 79 -5 79 C-12.36964784 70.15642259 -11.94899634 56.83315822 -11 46 C-10.27080049 41.89301427 -9.30464013 37.96051468 -8 34 C-7.34 34.66 -6.68 35.32 -6 36 C-3.03 35.505 -3.03 35.505 0 35 C0 23.45 0 11.9 0 0 Z " fill="#111111" transform="translate(314,65)"/>
<path d="M0 0 C0 3.63 0 7.26 0 11 C-0.66 11 -1.32 11 -2 11 C-1.97679687 11.64066406 -1.95359375 12.28132812 -1.9296875 12.94140625 C-1.81532701 18.42254122 -2.39801657 22.7228781 -4 28 C-4.19672167 29.68426085 -4.36147192 31.3724574 -4.5 33.0625 C-4.83217176 37.00703964 -5.74673256 40.24019767 -7 44 C-7.45204047 47.32500879 -7.74874325 50.65431803 -8 54 C-10.64 54 -13.28 54 -16 54 C-15.68629832 47.17428409 -15.18751727 40.58233903 -13.80517578 33.89599609 C-11.71009667 23.74877413 -12.06315062 14.28276849 -13 4 C-10.36 3.67 -7.72 3.34 -5 3 C-5 2.34 -5 1.68 -5 1 C-2 0 -2 0 0 0 Z " fill="#F1F1F1" transform="translate(261,153)"/>
<path d="M0 0 C0.96906439 3.72572329 1.76073898 7.48520914 2.5625 11.25 C2.83191406 12.51328125 3.10132813 13.7765625 3.37890625 15.078125 C3.58386719 16.04234375 3.78882813 17.0065625 4 18 C4.66 18 5.32 18 6 18 C7.78409802 21.06246747 8.22880021 23.22079273 8.125 26.75 C8.10695313 27.54921875 8.08890625 28.3484375 8.0703125 29.171875 C8.03550781 30.07679688 8.03550781 30.07679688 8 31 C7.34 31 6.68 31 6 31 C6 32.98 6 34.96 6 37 C5.34 37 4.68 37 4 37 C4.01160156 37.94101563 4.02320313 38.88203125 4.03515625 39.8515625 C4.04869141 41.71941406 4.04869141 41.71941406 4.0625 43.625 C4.07410156 44.85476562 4.08570313 46.08453125 4.09765625 47.3515625 C4.00863924 50.67723791 3.63686087 53.74047588 3 57 C2.01 56.67 1.02 56.34 0 56 C0 55.34 0 54.68 0 54 C-0.99 54 -1.98 54 -3 54 C-4.43054179 51.13891643 -3.98923829 48.82584836 -3.84375 45.63671875 C-3.79089844 44.35732422 -3.73804688 43.07792969 -3.68359375 41.75976562 C-3.59290277 39.72559152 -3.50018468 37.69151998 -3.40673828 35.6574707 C-3.31829859 33.69243632 -3.2371939 31.72707617 -3.15625 29.76171875 C-3.10275391 28.58569092 -3.04925781 27.40966309 -2.99414062 26.19799805 C-2.99948917 23.27880923 -3.33370408 20.8282696 -4 18 C-4.71578232 10.80697437 -3.68309002 6.21521441 0 0 Z " fill="#090909" transform="translate(286,112)"/>
<path d="M0 0 C2.97 0.33 5.94 0.66 9 1 C10.08441666 4.36169166 9.93734447 6.72172931 9.08203125 10.0625 C7.72011645 15.87180754 7.30667138 21.68779452 6.87695312 27.62695312 C6.39544208 33.25325786 5.20822788 37.79532121 3 43 C0.69 43 -1.62 43 -4 43 C-3.59415759 34.5841101 -3.01030305 26.40369186 -1.4765625 18.10546875 C-0.55667425 12.111115 -0.31417817 6.05206373 0 0 Z " fill="#EDEDED" transform="translate(103,164)"/>
<path d="M0 0 C3.3 0 6.6 0 10 0 C10.12517956 9.51364662 10.12517956 9.51364662 9.5234375 11.8515625 C8.73935335 15.06981835 8.71305762 18.32890471 8.5625 21.625 C8.23200749 27.89507818 7.51315626 33.8886116 6 40 C4.02 40 2.04 40 0 40 C0 26.8 0 13.6 0 0 Z " fill="#F5F5F5" transform="translate(132,167)"/>
<path d="M0 0 C0.33 0 0.66 0 1 0 C1.32050703 5.36552517 1.10987225 10.17445147 -0.3125 15.375 C-3.4016998 26.69720871 -4.55574361 38.50649568 -6.0625 50.125 C-8.11099796 65.66649695 -8.11099796 65.66649695 -11 70 C-11.66 70 -12.32 70 -13 70 C-12.938125 70.86625 -12.87625 71.7325 -12.8125 72.625 C-13 76 -13 76 -16 82 C-30.85 82 -45.7 82 -61 82 C-60.34 77.71 -59.68 73.42 -59 69 C-58.55629245 64.94192474 -58.15163522 60.88778013 -57.7890625 56.82226562 C-57.29442653 51.70960585 -56.35645809 46.95672393 -55 42 C-54.67 42 -54.34 42 -54 42 C-53.64123225 49.64042431 -54.0902719 56.73878558 -55.4375 64.25 C-55.57196533 65.00079834 -55.70643066 65.75159668 -55.8449707 66.52514648 C-56.85571852 71.85571852 -56.85571852 71.85571852 -58 73 C-58.33 75.64 -58.66 78.28 -59 81 C-45.14 81 -31.28 81 -17 81 C-16.67 78.36 -16.34 75.72 -16 73 C-15.0217838 71.26445512 -14.04129291 69.52861475 -12.984375 67.83984375 C-10.08323662 62.41747797 -9.75895203 55.77870142 -9.24609375 49.75 C-9 48 -9 48 -8 47 C-7.81422064 45.29554813 -7.67670464 43.58573886 -7.5625 41.875 C-7.29712383 38.58517796 -6.95770046 35.85988276 -6 32.6875 C-4.42867747 26.89324816 -4.31503993 20.97746816 -4 15 C-3.34 15 -2.68 15 -2 15 C-2 13.02 -2 11.04 -2 9 C-1.34 9 -0.68 9 0 9 C0 6.03 0 3.06 0 0 Z " fill="#333333" transform="translate(294,134)"/>
<path d="M0 0 C0.66 0 1.32 0 2 0 C2 1.65 2 3.3 2 5 C2.66 5 3.32 5 4 5 C3.67 5.99 3.34 6.98 3 8 C3.04125 9.11375 3.0825 10.2275 3.125 11.375 C2.9854368 15.42233284 2.1812607 16.68771524 0 20 C-0.50150668 21.36701015 -0.97930732 22.74286934 -1.4375 24.125 C-2.63978392 27.47873937 -3.72057713 29.30739465 -7 31 C-7.66 31 -8.32 31 -9 31 C-9.33 31.66 -9.66 32.32 -10 33 C-10.12375 32.195625 -10.2475 31.39125 -10.375 30.5625 C-10.58125 29.716875 -10.7875 28.87125 -11 28 C-11.66 27.67 -12.32 27.34 -13 27 C-12.57742724 25.5164999 -12.13643678 24.03823576 -11.6875 22.5625 C-11.44386719 21.73878906 -11.20023438 20.91507813 -10.94921875 20.06640625 C-10.63597656 19.38449219 -10.32273438 18.70257813 -10 18 C-9.01 17.67 -8.02 17.34 -7 17 C-7 16.01 -7 15.02 -7 14 C-6.34 14 -5.68 14 -5 14 C-4.29136036 11.87408108 -3.65212382 9.72445401 -3.0625 7.5625 C-2.23646071 4.79283886 -1.40058914 2.50105204 0 0 Z " fill="#0F0F0F" transform="translate(71,179)"/>
<path d="M0 0 C1.39259537 0.0031572 1.39259537 0.0031572 2.81332397 0.00637817 C14.61648455 0.03762254 26.29948397 0.38067134 38.05883789 1.46337891 C56.5518317 3.06824295 75.19941122 2.94908046 93.75 3.25 C91.10541049 5.89458951 89.17930997 5.48809957 85.58154297 5.50224304 C84.3036792 5.49146477 84.3036792 5.49146477 83 5.48046875 C82.11328613 5.48001053 81.22657227 5.47955231 80.31298828 5.4790802 C78.42316359 5.47605137 76.53334154 5.46814639 74.64355469 5.45581055 C71.81696206 5.43792374 68.99070495 5.43529849 66.1640625 5.43554688 C57.28666317 5.41846294 48.4283868 5.27049823 39.5625 4.80078125 C38.81403809 4.76228561 38.06557617 4.72378998 37.29443359 4.68412781 C34.23814813 4.5021135 31.67005855 4.22335285 28.75 3.25 C25.72406859 3.00899661 22.71853317 2.82324292 19.6875 2.6875 C18.3277002 2.6248999 18.3277002 2.6248999 16.94042969 2.56103516 C9.12773271 2.23846846 1.31884299 2.14284754 -6.5 2.125 C-7.64863525 2.12040771 -8.79727051 2.11581543 -9.98071289 2.11108398 C-11.57580688 2.11410522 -11.57580688 2.11410522 -13.203125 2.1171875 C-14.62866699 2.11887939 -14.62866699 2.11887939 -16.08300781 2.12060547 C-18.22944583 2.00821178 -18.22944583 2.00821178 -19.25 3.25 C-21.94654854 3.32319621 -24.61691458 3.34242537 -27.3125 3.3125 C-28.07111328 3.30798828 -28.82972656 3.30347656 -29.61132812 3.29882812 C-31.49091871 3.2870068 -33.37046899 3.26907078 -35.25 3.25 C-35.25 2.92 -35.25 2.59 -35.25 2.25 C-23.45249232 0.2815067 -11.93976386 -0.06771538 0 0 Z " fill="#383838" transform="translate(141.25,7.75)"/>
<path d="M0 0 C-0.11958255 4.23191496 -0.24389445 8.46365866 -0.37231445 12.6953125 C-0.41523495 14.13049691 -0.4569334 15.56571846 -0.49731445 17.00097656 C-0.72415281 25.03273461 -1.0198239 33.0166761 -2 41 C-3.98 41 -5.96 41 -8 41 C-8.25813409 35.06291583 -7.24776814 29.78896512 -6 24 C-4.59410256 17.10199963 -3.70550498 10.37207195 -3.34375 3.3359375 C-3.2303125 2.56507813 -3.116875 1.79421875 -3 1 C-1 0 -1 0 0 0 Z " fill="#E6E6E6" transform="translate(123,175)"/>
<path d="M0 0 C0.70755432 0.00121857 1.41510864 0.00243713 2.144104 0.00369263 C13.76673875 0.02691127 25.3820893 0.23827487 37 0.5625 C38.11396149 0.59183624 38.11396149 0.59183624 39.25042725 0.62176514 C41.35205045 0.6786416 43.45334326 0.74227879 45.5546875 0.80859375 C46.75335449 0.84525146 47.95202148 0.88190918 49.18701172 0.91967773 C52.125 1.125 52.125 1.125 55.125 2.125 C57.78106301 2.27846953 60.41595095 2.38217898 63.07421875 2.44140625 C64.23314384 2.4725779 64.23314384 2.4725779 65.41548157 2.50437927 C67.8810648 2.56971038 70.34675361 2.62868315 72.8125 2.6875 C74.48503691 2.73070087 76.15756319 2.77431566 77.83007812 2.81835938 C81.9282775 2.9253749 86.02658296 3.02668857 90.125 3.125 C90.125 3.455 90.125 3.785 90.125 4.125 C68.67904466 4.3203868 47.30634506 4.43967043 25.90081787 2.98205566 C9.64016734 1.88463841 -6.58456045 1.92348157 -22.875 2.125 C-22.875 1.795 -22.875 1.465 -22.875 1.125 C-15.26276989 -0.09528116 -7.69297624 -0.02864276 0 0 Z " fill="#575757" transform="translate(142.875,16.875)"/>
<path d="M0 0 C1.32 0 2.64 0 4 0 C4.02886984 3.97915159 4.04675406 7.95827653 4.0625 11.9375 C4.07087891 13.07380859 4.07925781 14.21011719 4.08789062 15.38085938 C4.09111328 16.46044922 4.09433594 17.54003906 4.09765625 18.65234375 C4.10289307 19.65257568 4.10812988 20.65280762 4.11352539 21.68334961 C4 24 4 24 3 25 C2.78436641 26.65712164 2.62892616 28.3221696 2.5 29.98828125 C2.4175 31.00470703 2.335 32.02113281 2.25 33.06835938 C2.1675 34.13892578 2.085 35.20949219 2 36.3125 C1.83635802 38.41299825 1.6698049 40.51327223 1.5 42.61328125 C1.4278125 43.54954346 1.355625 44.48580566 1.28125 45.45043945 C1 48 1 48 0 52 C7.59 52.33 15.18 52.66 23 53 C23.33 49.37 23.66 45.74 24 42 C24.33 41.67 24.66 41.34 25 41 C25.28101946 38.68047431 25.44782625 36.36114486 25.62109375 34.03125 C25.80865234 33.02578125 25.80865234 33.02578125 26 32 C26.66 31.67 27.32 31.34 28 31 C27.88398175 33.14633769 27.75667743 35.29206607 27.625 37.4375 C27.55539063 38.63246094 27.48578125 39.82742187 27.4140625 41.05859375 C26.95558402 45.42278988 25.95193698 49.71628358 25 54 C16.09 54 7.18 54 -2 54 C-2 40.52023988 -2 40.52023988 -1.16015625 35.921875 C-0.98452148 34.91310303 -0.80888672 33.90433105 -0.62792969 32.86499023 C-0.44133789 31.83704346 -0.25474609 30.80909668 -0.0625 29.75 C1.58784627 20.141397 2.70947834 10.74700169 3 1 C2.01 0.67 1.02 0.34 0 0 Z " fill="#555555" transform="translate(90,162)"/>
<path d="M0 0 C2 0 2 0 3.625 1.25 C5 3 5 3 5 7 C8.465 6.505 8.465 6.505 12 6 C13.08174162 9.36541838 12.92538169 10.29847322 12 14 C6.39 14 0.78 14 -5 14 C-4.34 11.69 -3.68 9.38 -3 7 C-2.34 7 -1.68 7 -1 7 C-1.020625 6.030625 -1.04125 5.06125 -1.0625 4.0625 C-1 1 -1 1 0 0 Z " fill="#040404" transform="translate(47,201)"/>
<path d="M0 0 C1.34209166 2.68418333 0.63233676 4.11935477 0 7 C0 7.99 0 8.98 0 10 C0.66 10.66 1.32 11.32 2 12 C2.33 11.34 2.66 10.68 3 10 C3.66 10 4.32 10 5 10 C3.46745644 15.87475032 1.32330984 21.39473306 -1 27 C-1.33 27 -1.66 27 -2 27 C-2.33 24.36 -2.66 21.72 -3 19 C-2.34 19 -1.68 19 -1 19 C-1 18.34 -1 17.68 -1 17 C-1.66 17 -2.32 17 -3 17 C-3.33 16.01 -3.66 15.02 -4 14 C-3.67 13.34 -3.34 12.68 -3 12 C-3.66 12 -4.32 12 -5 12 C-4.95875 12.78375 -4.9175 13.5675 -4.875 14.375 C-5 17 -5 17 -7 19 C-7.12375 19.825 -7.2475 20.65 -7.375 21.5 C-8 24 -8 24 -10.0625 25.3125 C-10.701875 25.539375 -11.34125 25.76625 -12 26 C-12 26.99 -12 27.98 -12 29 C-12.66 29 -13.32 29 -14 29 C-12.77443263 24.62297367 -11.46939453 20.30322683 -10 16 C-9.34 16 -8.68 16 -8 16 C-7.8453125 15.1646875 -7.8453125 15.1646875 -7.6875 14.3125 C-6.85807174 11.52260494 -5.5490342 9.46698039 -4 7 C-3.26569217 5.73213037 -2.53665702 4.46119462 -1.8125 3.1875 C-1.214375 2.135625 -0.61625 1.08375 0 0 Z " fill="#181818" transform="translate(76,167)"/>
<path d="M0 0 C2.5 1.8125 2.5 1.8125 5 4 C5 4.99 5 5.98 5 7 C4.3294458 6.98952637 3.6588916 6.97905273 2.96801758 6.96826172 C-0.08378316 6.92656829 -3.13552384 6.90063147 -6.1875 6.875 C-7.24259766 6.85824219 -8.29769531 6.84148437 -9.38476562 6.82421875 C-10.91713867 6.81455078 -10.91713867 6.81455078 -12.48046875 6.8046875 C-13.41785889 6.79421387 -14.35524902 6.78374023 -15.32104492 6.77294922 C-18.22877364 7.01938936 -20.33811914 7.84194346 -23 9 C-25.71875 9.37890625 -25.71875 9.37890625 -28.5 9.5625 C-32.15229734 9.81385192 -35.37024872 10.27404974 -39 11 C-38.67 19.58 -38.34 28.16 -38 37 C-39.98787504 33.02424992 -41.09966643 30.1352904 -41.31640625 25.76953125 C-41.35830078 24.96708984 -41.40019531 24.16464844 -41.44335938 23.33789062 C-41.48267578 22.50451172 -41.52199219 21.67113281 -41.5625 20.8125 C-41.60568359 19.96751953 -41.64886719 19.12253906 -41.69335938 18.25195312 C-41.79931518 16.16815567 -41.9001502 14.08409897 -42 12 C-41.34 12 -40.68 12 -40 12 C-39.67 10.68 -39.34 9.36 -39 8 C-37.62328125 7.94392578 -37.62328125 7.94392578 -36.21875 7.88671875 C-28.29223046 7.60524663 -28.29223046 7.60524663 -20.75 5.4375 C-13.14478215 2.13651183 -4.76644142 4.14927353 3 6 C2.505 5.38125 2.01 4.7625 1.5 4.125 C0 2 0 2 0 0 Z " fill="#646464" transform="translate(216,144)"/>
<path d="M0 0 C0.33 0 0.66 0 1 0 C2.57930686 7.45356901 3.35418399 14.5717046 3.3125 22.1875 C3.31121094 23.18563721 3.30992187 24.18377441 3.30859375 25.2121582 C3.21409469 32.56123193 2.23659947 39.31720998 0.671875 46.4765625 C-0.75963972 53.98369204 -0.36150342 61.51173121 1 69 C-0.96132225 67.15738936 -1.92014916 65.62387168 -2.26367188 62.93994141 C-2.33241153 60.39188733 -2.30973944 57.86076035 -2.25 55.3125 C-2.24484375 54.45205078 -2.2396875 53.59160156 -2.234375 52.70507812 C-2.04556398 37.04556398 -2.04556398 37.04556398 0 35 C0.08851529 32.40640678 0.11525945 29.83960309 0.09765625 27.24609375 C0.0962413 26.47064713 0.09482635 25.6952005 0.09336853 24.89625549 C0.08775345 22.40996506 0.07519846 19.9237634 0.0625 17.4375 C0.05748694 15.75586067 0.0529237 14.07421994 0.04882812 12.39257812 C0.03777913 8.26168434 0.02050445 4.13085724 0 0 Z " fill="#595959" transform="translate(314,65)"/>
<path d="M0 0 C5.73842251 -0.20413361 10.60539047 -0.27141454 16 2 C15.63752904 4.62791446 15.23545243 5.77739043 13.28125 7.625 C10.53129944 9.28250445 8.93021544 9.31303482 5.75 9.1875 C4.85796875 9.16042969 3.9659375 9.13335937 3.046875 9.10546875 C2.37140625 9.07066406 1.6959375 9.03585938 1 9 C0.67 6.03 0.34 3.06 0 0 Z " fill="#CFCFCF" transform="translate(84,19)"/>
<path d="M0 0 C0.33 0 0.66 0 1 0 C1.32050703 5.36552517 1.10987225 10.17445147 -0.3125 15.375 C-3.4016998 26.69720871 -4.55574361 38.50649568 -6.0625 50.125 C-6.62341284 54.34563924 -7.20026036 58.55619417 -7.9375 62.75 C-8.07027344 63.50796875 -8.20304687 64.2659375 -8.33984375 65.046875 C-9.11631078 67.34411473 -10.18040809 68.43326691 -12 70 C-11.38171053 64.84758774 -10.7037328 59.70395085 -10 54.5625 C-9.835 53.34691406 -9.67 52.13132813 -9.5 50.87890625 C-9 48 -9 48 -8 47 C-7.81422064 45.29554813 -7.67670464 43.58573886 -7.5625 41.875 C-7.29712383 38.58517796 -6.95770046 35.85988276 -6 32.6875 C-4.42867747 26.89324816 -4.31503993 20.97746816 -4 15 C-3.34 15 -2.68 15 -2 15 C-2 13.02 -2 11.04 -2 9 C-1.34 9 -0.68 9 0 9 C0 6.03 0 3.06 0 0 Z " fill="#505050" transform="translate(294,134)"/>
<path d="M0 0 C1.60869614 0.09681742 3.21742013 0.19317339 4.82617188 0.2890625 C8.69695419 0.52075718 12.56731292 0.75857481 16.4375 1 C16.4375 1.33 16.4375 1.66 16.4375 2 C15.53183289 1.99333817 14.62616577 1.98667633 13.6930542 1.97981262 C5.15896491 1.91970728 -3.3750533 1.8740285 -11.90930557 1.84456348 C-16.296888 1.82890597 -20.68429556 1.80766623 -25.07177734 1.77368164 C-29.30577056 1.7410911 -33.53959556 1.72314763 -37.77370453 1.71536827 C-39.38925576 1.7098242 -41.00479777 1.69899797 -42.6202774 1.68280983 C-44.88279635 1.66103915 -47.14461976 1.65803285 -49.40722656 1.65942383 C-50.69518127 1.65276199 -51.98313599 1.64610016 -53.31011963 1.63923645 C-56.77618504 2.02370257 -58.15850591 2.52022537 -60.5625 5 C-60.8925 5.99 -61.2225 6.98 -61.5625 8 C-62.2225 8 -62.8825 8 -63.5625 8 C-63.5625 8.66 -63.5625 9.32 -63.5625 10 C-64.2225 9.67 -64.8825 9.34 -65.5625 9 C-64.9191152 7.686298 -64.27271785 6.37407102 -63.625 5.0625 C-63.26535156 4.33160156 -62.90570313 3.60070312 -62.53515625 2.84765625 C-61.5625 1 -61.5625 1 -60.5625 0 C-58.91049103 -0.1586004 -57.25207772 -0.25131488 -55.59375 -0.31640625 C-54.54574219 -0.35830078 -53.49773437 -0.40019531 -52.41796875 -0.44335938 C-51.31066406 -0.48267578 -50.20335938 -0.52199219 -49.0625 -0.5625 C-48.01707031 -0.60568359 -46.97164062 -0.64886719 -45.89453125 -0.69335938 C-30.52864987 -1.2772258 -15.33738256 -0.95929059 0 0 Z " fill="#D0D0D0" transform="translate(172.5625,19)"/>
<path d="M0 0 C0.66 0 1.32 0 2 0 C4.71502758 12.91827641 4.50435744 28.53258208 0 41 C-0.33 41 -0.66 41 -1 41 C-1.09765625 34.84765625 -1.09765625 34.84765625 -1 33 C-0.505 32.505 -0.505 32.505 0 32 C0.08700342 30.36527118 0.10701063 28.72685945 0.09765625 27.08984375 C0.09443359 26.10048828 0.09121094 25.11113281 0.08789062 24.09179688 C0.07951172 23.05087891 0.07113281 22.00996094 0.0625 20.9375 C0.05798828 19.89271484 0.05347656 18.84792969 0.04882812 17.77148438 C0.03699913 15.1809334 0.02051689 12.59049441 0 10 C-1.85752012 13.00290786 -3.35280053 15.50512285 -4 19 C-4.66 19 -5.32 19 -6 19 C-1.87804878 1.87804878 -1.87804878 1.87804878 0 0 Z " fill="#D5D5D5" transform="translate(304,70)"/>
<path d="M0 0 C0.33 0 0.66 0 1 0 C1.33 1.98 1.66 3.96 2 6 C2.66 5.01 3.32 4.02 4 3 C4 3.66 4 4.32 4 5 C4.66 5 5.32 5 6 5 C6 10.94 6 16.88 6 23 C4.02 22.67 2.04 22.34 0 22 C0 14.74 0 7.48 0 0 Z " fill="#020202" transform="translate(39,131)"/>
<path d="M0 0 C0.33 0 0.66 0 1 0 C0.67 2.31 0.34 4.62 0 7 C0.598125 6.79375 1.19625 6.5875 1.8125 6.375 C4 6 4 6 7 8 C7.33 8.99 7.66 9.98 8 11 C9.65 10.01 11.3 9.02 13 8 C12.35330586 9.34313399 11.68096422 10.67391178 11 12 C10.7009375 12.86625 10.401875 13.7325 10.09375 14.625 C8 17 8 17 5.78833008 17.40356445 C2.9482965 17.49350619 0.1512931 17.4342964 -2.6875 17.3125 C-3.67556641 17.28994141 -4.66363281 17.26738281 -5.68164062 17.24414062 C-8.12261559 17.18517988 -10.56054868 17.10295048 -13 17 C-13.16508679 11.27011256 -12.47076861 8.0444859 -10 3 C-8.54393481 7.52092968 -9.72967159 10.51648796 -11 15 C-6.05 15 -1.1 15 4 15 C4.33 12.69 4.66 10.38 5 8 C2.69 8.33 0.38 8.66 -2 9 C-2 7.35 -2 5.7 -2 4 C-1.34 4 -0.68 4 0 4 C0 2.68 0 1.36 0 0 Z " fill="#323232" transform="translate(54,199)"/>
<path d="M0 0 C6.625 -0.25 6.625 -0.25 10 2 C10.2981102 6.02448769 9.98224245 9.07103021 9 13 C11.97 13 14.94 13 18 13 C18.33 13.66 18.66 14.32 19 15 C13.555 14.505 13.555 14.505 8 14 C7.875 6.375 7.875 6.375 9 3 C5.2849377 3.46938517 5.2849377 3.46938517 2 5 C0.47156347 7.88294753 -0.31308379 10.82055924 -1 14 C-1.66 14 -2.32 14 -3 14 C-3.04898438 14.61488281 -3.09796875 15.22976562 -3.1484375 15.86328125 C-3.22320312 16.67152344 -3.29796875 17.47976562 -3.375 18.3125 C-3.44460937 19.11300781 -3.51421875 19.91351563 -3.5859375 20.73828125 C-4 23 -4 23 -6 26 C-6.66 26 -7.32 26 -8 26 C-7.566875 24.515 -7.566875 24.515 -7.125 23 C-5.98624782 19.02250133 -4.98680107 15.01769007 -4 11 C-3.34 11 -2.68 11 -2 11 C-2.04125 10.29875 -2.0825 9.5975 -2.125 8.875 C-1.98331668 5.61628372 -1.13265314 3.0440053 0 0 Z " fill="#4C4C4C" transform="translate(85,139)"/>
<path d="M0 0 C1.31726074 0.00290039 1.31726074 0.00290039 2.66113281 0.00585938 C10.3463858 0.05607155 17.96792345 0.47530866 25.625 1.125 C26.12 2.61 26.12 2.61 26.625 4.125 C27.285 4.125 27.945 4.125 28.625 4.125 C29.285 6.435 29.945 8.745 30.625 11.125 C30.22410156 10.71507812 29.82320313 10.30515625 29.41015625 9.8828125 C28.84167969 9.34398437 28.27320313 8.80515625 27.6875 8.25 C27.14222656 7.71632813 26.59695313 7.18265625 26.03515625 6.6328125 C18.39995845 1.85617336 8.23188911 2.70509151 -0.4375 2.5 C-1.7936424 2.46173029 -3.14976282 2.42267367 -4.50585938 2.3828125 C-7.79544104 2.28915893 -11.08502612 2.2034314 -14.375 2.125 C-14.375 1.795 -14.375 1.465 -14.375 1.125 C-9.58814465 -0.10590566 -4.90564123 -0.02596559 0 0 Z " fill="#666666" transform="translate(268.375,16.875)"/>
<path d="M0 0 C0.66 0 1.32 0 2 0 C1.5601636 11.67841474 0.25623023 22.75868061 -3.1875 34 C-4.14432313 37.01487219 -4.14432313 37.01487219 -4 40.3125 C-4 41.199375 -4 42.08625 -4 43 C-6 45 -6 45 -8.1640625 45.1953125 C-8.97617188 45.17210937 -9.78828125 45.14890625 -10.625 45.125 C-11.44226563 45.10695312 -12.25953125 45.08890625 -13.1015625 45.0703125 C-13.72804687 45.04710937 -14.35453125 45.02390625 -15 45 C-15 42.36 -15 39.72 -15 37 C-14.67 37 -14.34 37 -14 37 C-14 38.98 -14 40.96 -14 43 C-11.36 43 -8.72 43 -6 43 C-6.02320313 42.34773438 -6.04640625 41.69546875 -6.0703125 41.0234375 C-6.1780249 35.80707978 -5.7515236 31.94547839 -4 27 C-3.79987749 25.35789887 -3.63635216 23.71112161 -3.5 22.0625 C-3.14610197 17.82204329 -2.170416 14.09645601 -1 10 C-0.55916504 6.6741451 -0.25573838 3.34478876 0 0 Z " fill="#404040" transform="translate(259,164)"/>
<path d="M0 0 C4.65173265 6.97759898 6.67406053 14.80011118 8 23 C8.66 23 9.32 23 10 23 C10.65040413 32.70186168 8.80642737 40.82899626 6 50 C5.07105417 46.9468792 4.98128314 44.57230392 5.33984375 41.41015625 C5.43330078 40.54326172 5.52675781 39.67636719 5.62304688 38.78320312 C5.72681641 37.88537109 5.83058594 36.98753906 5.9375 36.0625 C6.13638452 34.28280429 6.33306752 32.50286091 6.52734375 30.72265625 C6.61749756 29.93640869 6.70765137 29.15016113 6.80053711 28.34008789 C7.01002386 25.88240061 7.03303206 23.46539264 7 21 C6.34 21 5.68 21 5 21 C4.80664062 20.19175781 4.61328125 19.38351563 4.4140625 18.55078125 C4.15367187 17.48214844 3.89328125 16.41351563 3.625 15.3125 C3.36976563 14.25675781 3.11453125 13.20101562 2.8515625 12.11328125 C2.0808768 9.03603568 2.0808768 9.03603568 0.8984375 6.35546875 C0 4 0 4 0 0 Z " fill="#737373" transform="translate(263,126)"/>
<path d="M0 0 C4.29 0 8.58 0 13 0 C13 2.31 13 4.62 13 7 C12.34 7 11.68 7 11 7 C11 5.35 11 3.7 11 2 C7.7 2 4.4 2 1 2 C1 15.2 1 28.4 1 42 C2.98 42 4.96 42 7 42 C7 42.33 7 42.66 7 43 C4.66705225 43.04241723 2.33297433 43.04092937 0 43 C-1 42 -1 42 -1.02172852 38.03100586 C-0.97937059 36.25881857 -0.93134407 34.48676143 -0.87890625 32.71484375 C-0.85529526 31.78402481 -0.83168427 30.85320587 -0.80735779 29.8941803 C-0.73051875 26.90847275 -0.64658205 23.92301152 -0.5625 20.9375 C-0.50929955 18.91863202 -0.45655904 16.89975186 -0.40429688 14.88085938 C-0.27487636 9.92041566 -0.1390882 4.96018167 0 0 Z " fill="#585858" transform="translate(131,165)"/>
<path d="M0 0 C0.66 0.33 1.32 0.66 2 1 C2.50244141 2.96191406 2.50244141 2.96191406 2.8515625 5.515625 C2.98046875 6.43730469 3.109375 7.35898438 3.2421875 8.30859375 C3.43167969 9.76458984 3.43167969 9.76458984 3.625 11.25 C3.7590625 12.20519531 3.893125 13.16039062 4.03125 14.14453125 C4.62097008 18.47115102 5.07331252 22.62666403 5 27 C3 28 3 28 1.0625 28 C-1 27 -1 27 -2.8125 23.6875 C-4.32117438 19.00266904 -4.32117438 19.00266904 -3 16 C0 21.625 0 21.625 0 25 C0.66 25 1.32 25 2 25 C1.855625 23.69804687 1.71125 22.39609375 1.5625 21.0546875 C1.37483215 19.32814324 1.18734149 17.60157971 1 15.875 C0.90460938 15.0190625 0.80921875 14.163125 0.7109375 13.28125 C0.23154791 8.82977526 -0.11765458 4.48558075 0 0 Z " fill="#525252" transform="translate(178,181)"/>
<path d="M0 0 C0.33 1.32 0.66 2.64 1 4 C1.99 4 2.98 4 4 4 C3.5461336 9.44639678 2.39843274 14.57664311 -1 19 C-3.13671875 19.7265625 -3.13671875 19.7265625 -5 20 C-4.0026554 12.95992045 -2.7758018 6.56098608 0 0 Z " fill="#D2D2D2" transform="translate(59,186)"/>
<path d="M0 0 C2.38554311 7.7349428 0.11734127 15.81656143 -3 23 C-5.31 23 -7.62 23 -10 23 C-9.88581333 20.41577541 -9.75907638 17.83320487 -9.625 15.25 C-9.5940625 14.52039063 -9.563125 13.79078125 -9.53125 13.0390625 C-9.31050269 8.99202856 -8.85079003 6.70158006 -7 3 C-7.33 8.94 -7.66 14.88 -8 21 C-6.68 21 -5.36 21 -4 21 C-3.93941406 20.21753906 -3.87882812 19.43507812 -3.81640625 18.62890625 C-3.73261719 17.61699219 -3.64882812 16.60507813 -3.5625 15.5625 C-3.48128906 14.55316406 -3.40007812 13.54382813 -3.31640625 12.50390625 C-3 10 -3 10 -2 9 C-1.60851239 7.48834346 -1.26027543 5.96530368 -0.9375 4.4375 C-0.76089844 3.61121094 -0.58429688 2.78492188 -0.40234375 1.93359375 C-0.26957031 1.29550781 -0.13679688 0.65742188 0 0 Z " fill="#A2A2A2" transform="translate(109,184)"/>
<path d="M0 0 C3.62021421 5.43032132 4.55443079 11.56860283 4 18 C3.15083404 21.38570684 2.08590181 24.68402667 1 28 C0.59692589 29.37289486 0.20005565 30.74764396 -0.1875 32.125 C-0.455625 33.07375 -0.72375 34.0225 -1 35 C-1.66 35 -2.32 35 -3 35 C-3.33 35.99 -3.66 36.98 -4 38 C-1.9 21.9 -1.9 21.9 0 20 C0.08669432 18.5112814 0.10703494 17.018555 0.09765625 15.52734375 C0.09443359 14.62822266 0.09121094 13.72910156 0.08789062 12.80273438 C0.07951172 11.85720703 0.07113281 10.91167969 0.0625 9.9375 C0.05798828 8.98810547 0.05347656 8.03871094 0.04882812 7.06054688 C0.0370011 4.70696935 0.02052025 2.35351523 0 0 Z " fill="#939393" transform="translate(53,148)"/>
<path d="M0 0 C0.93684631 -0.0004985 1.87369263 -0.00099701 2.83892822 -0.00151062 C4.81223684 0.00081857 6.78554907 0.01047844 8.75878906 0.02709961 C11.74311614 0.05060397 14.72654176 0.04766184 17.7109375 0.04101562 C27.32489428 0.0563859 36.60519559 0.18521816 46.015625 2.36328125 C46.015625 2.69328125 46.015625 3.02328125 46.015625 3.36328125 C44.55741019 3.39120451 43.09902257 3.41007543 41.640625 3.42578125 C40.82851562 3.43738281 40.01640625 3.44898437 39.1796875 3.4609375 C36.63331305 3.3823457 34.22312169 3.16725653 31.69921875 2.87109375 C25.02877507 2.17283608 18.35533556 2.17723146 11.65649414 2.17797852 C9.45374497 2.17578187 7.2514899 2.15753154 5.04882812 2.13867188 C-2.24262393 2.11142161 -8.8847535 2.53634282 -15.984375 4.36328125 C-16.644375 4.03328125 -17.304375 3.70328125 -17.984375 3.36328125 C-11.76452794 0.64153591 -6.75083305 -0.07037087 0 0 Z " fill="#585858" transform="translate(91.984375,109.63671875)"/>
<path d="M0 0 C0.495 1.98 0.495 1.98 1 4 C1.66 4 2.32 4 3 4 C3 7.3 3 10.6 3 14 C-2.17371573 14.07504832 -7.34710361 14.12901911 -12.52124023 14.16479492 C-14.27552827 14.17973392 -16.02977994 14.20009262 -17.78393555 14.22631836 C-28.32635187 14.37980487 -37.8239959 14.07883421 -48 11 C-44.68196072 10.08414715 -42.18329961 10.03092505 -38.75 10.4375 C-37.41195312 10.59025391 -37.41195312 10.59025391 -36.046875 10.74609375 C-35.37140625 10.82988281 -34.6959375 10.91367188 -34 11 C-34 11.66 -34 12.32 -34 13 C-22.12 13 -10.24 13 2 13 C1.34 10.69 0.68 8.38 0 6 C-0.125 2.5625 -0.125 2.5625 0 0 Z " fill="#686868" transform="translate(153,144)"/>
<path d="M0 0 C0 2.31 0 4.62 0 7 C-1.60332791 7.08121924 -3.20784026 7.13929134 -4.8125 7.1875 C-5.70582031 7.22230469 -6.59914063 7.25710937 -7.51953125 7.29296875 C-10 7 -10 7 -11.82421875 5.67578125 C-13 4 -13 4 -13 1 C-8.61414671 0.29826347 -4.44209357 -0.10834375 0 0 Z " fill="#F7F7F7" transform="translate(31,20)"/>
<path d="M0 0 C3.3 0 6.6 0 10 0 C10.125194 9.51474392 10.125194 9.51474392 9.52734375 11.83203125 C8.71890688 15.15560504 8.66757165 18.533313 8.5 21.9375 C8.28088198 26.36449548 8.01691498 30.66963702 7 35 C6.67 35 6.34 35 6 35 C5.83761052 26.3211842 6.08677496 17.63617754 7 9 C7.33 8.67 7.66 8.34 8 8 C8.36760731 5.67182036 8.70241581 3.3381615 9 1 C6.36 1 3.72 1 1 1 C1 6.94 1 12.88 1 19 C0.67 19 0.34 19 0 19 C0 12.73 0 6.46 0 0 Z " fill="#B8B8B8" transform="translate(132,167)"/>
<path d="M0 0 C0.99 0 1.98 0 3 0 C3.0580476 3.27075883 3.09361165 6.54138524 3.125 9.8125 C3.14175781 10.74126953 3.15851563 11.67003906 3.17578125 12.62695312 C3.18222656 13.51962891 3.18867187 14.41230469 3.1953125 15.33203125 C3.20578613 16.15421143 3.21625977 16.9763916 3.22705078 17.82348633 C3 20 3 20 1 23 C1 17.72 1 12.44 1 7 C0.34 7 -0.32 7 -1 7 C-0.98839844 7.80824219 -0.97679688 8.61648437 -0.96484375 9.44921875 C-0.95130859 11.05216797 -0.95130859 11.05216797 -0.9375 12.6875 C-0.92589844 13.74324219 -0.91429688 14.79898438 -0.90234375 15.88671875 C-0.99134575 18.72410262 -1.35060162 21.2438919 -2 24 C-2.33 24 -2.66 24 -3 24 C-2.89045592 20.37435813 -2.7597504 16.74978569 -2.625 13.125 C-2.5940625 12.09246094 -2.563125 11.05992187 -2.53125 9.99609375 C-2.47324219 8.51689453 -2.47324219 8.51689453 -2.4140625 7.0078125 C-2.3826416 6.09660645 -2.3512207 5.18540039 -2.31884766 4.24658203 C-2 2 -2 2 0 0 Z " fill="#383838" transform="translate(121,169)"/>
<path d="M0 0 C0.89203125 0.06960937 1.7840625 0.13921875 2.703125 0.2109375 C2.703125 0.5409375 2.703125 0.8709375 2.703125 1.2109375 C-0.926875 1.2109375 -4.556875 1.2109375 -8.296875 1.2109375 C-8.565 2.7371875 -8.833125 4.2634375 -9.109375 5.8359375 C-9.729463 8.98035539 -10.32930433 11.27444495 -11.796875 14.1484375 C-13.6846672 18.00267991 -14.17071364 21.69202735 -14.76953125 25.91796875 C-14.94355469 26.67464844 -15.11757812 27.43132812 -15.296875 28.2109375 C-15.956875 28.5409375 -16.616875 28.8709375 -17.296875 29.2109375 C-16.636875 24.2609375 -15.976875 19.3109375 -15.296875 14.2109375 C-14.636875 14.2109375 -13.976875 14.2109375 -13.296875 14.2109375 C-13.544375 13.0146875 -13.791875 11.8184375 -14.046875 10.5859375 C-14.40325832 7.35549518 -14.20804814 5.93458727 -13.171875 2.7109375 C-8.9946125 -0.92146467 -5.36409609 -0.24811898 0 0 Z " fill="#4E4E4E" transform="translate(92.296875,36.7890625)"/>
<path d="M0 0 C0.79560764 2.91499943 1.25322499 5.74561419 1.5625 8.75 C1.64628906 9.54921875 1.73007812 10.3484375 1.81640625 11.171875 C1.87699219 11.77515625 1.93757813 12.3784375 2 13 C1.34 13 0.68 13 0 13 C-0.33 14.65 -0.66 16.3 -1 18 C-2.5 16.9375 -2.5 16.9375 -4 15 C-4.82672285 8.9767335 -2.9428429 5.05801124 0 0 Z " fill="#050505" transform="translate(286,112)"/>
<path d="M0 0 C1.9550735 0.01005846 3.91015205 0.0191792 5.86523438 0.02734375 C10.59778397 0.04911037 15.33008419 0.08347918 20.0625 0.125 C20.0625 0.455 20.0625 0.785 20.0625 1.125 C18.85601807 1.15005615 17.64953613 1.1751123 16.40649414 1.20092773 C11.94674339 1.29482523 7.48715487 1.39508833 3.02758789 1.49731445 C1.09435815 1.54073041 -0.83891159 1.58240042 -2.7722168 1.62231445 C-5.54488202 1.67985631 -8.31734457 1.7435962 -11.08984375 1.80859375 C-11.95963364 1.82530624 -12.82942352 1.84201874 -13.72557068 1.85923767 C-17.64865966 1.57526213 -17.64865966 1.57526213 -20.9375 3.125 C-23.63404854 3.19819621 -26.30441458 3.21742537 -29 3.1875 C-29.75861328 3.18298828 -30.51722656 3.17847656 -31.29882812 3.17382812 C-33.17841871 3.1620068 -35.05796899 3.14407078 -36.9375 3.125 C-36.9375 2.795 -36.9375 2.465 -36.9375 2.125 C-24.58800151 -0.00592212 -12.50187913 -0.11306196 0 0 Z " fill="#6B6B6B" transform="translate(142.9375,7.875)"/>
<path d="M0 0 C0.33 0 0.66 0 1 0 C0.88398175 2.14633769 0.75667743 4.29206607 0.625 6.4375 C0.55539063 7.63246094 0.48578125 8.82742187 0.4140625 10.05859375 C-0.04441598 14.42278988 -1.04806302 18.71628358 -2 23 C-10.58 23 -19.16 23 -28 23 C-28 22.67 -28 22.34 -28 22 C-20.08 22 -12.16 22 -4 22 C-3.67 18.37 -3.34 14.74 -3 11 C-2.67 10.67 -2.34 10.34 -2 10 C-1.79300437 8.50503158 -1.63320741 7.0033408 -1.5 5.5 C-1.11111111 1.11111111 -1.11111111 1.11111111 0 0 Z " fill="#3B3B3B" transform="translate(117,193)"/>
<path d="M0 0 C-0.11958255 4.23191496 -0.24389445 8.46365866 -0.37231445 12.6953125 C-0.41523495 14.13049691 -0.4569334 15.56571846 -0.49731445 17.00097656 C-0.72415281 25.03273461 -1.0198239 33.0166761 -2 41 C-2.33 41 -2.66 41 -3 41 C-3 27.8 -3 14.6 -3 1 C-1 0 -1 0 0 0 Z " fill="#9F9F9F" transform="translate(123,175)"/>
<path d="M0 0 C1.5443958 0.320451 3.08736435 0.64854042 4.625 1 C4.625 1.66 4.625 2.32 4.625 3 C-4.82073505 3.30470113 -14.0171436 2.14169926 -23.375 1 C-17.00116876 -3.24922083 -7.26073459 -1.32013356 0 0 Z " fill="#4C4C4C" transform="translate(101.375,10)"/>
<path d="M0 0 C0.99 0 1.98 0 3 0 C3.22786458 2.05078125 3.45572917 4.1015625 3.68359375 6.15234375 C3.81886614 8.01140229 3.81886614 8.01140229 5 9 C5.08713831 10.70772358 5.10700007 12.41898649 5.09765625 14.12890625 C5.09282227 15.68061523 5.09282227 15.68061523 5.08789062 17.26367188 C5.07951172 18.35228516 5.07113281 19.44089844 5.0625 20.5625 C5.05798828 21.65498047 5.05347656 22.74746094 5.04882812 23.87304688 C5.03699826 26.58208495 5.02051543 29.29101599 5 32 C4.34 32 3.68 32 3 32 C2.67 22.43 2.34 12.86 2 3 C1.01 3.33 0.02 3.66 -1 4 C-0.67 2.68 -0.34 1.36 0 0 Z " fill="#2C2C2C" transform="translate(304,67)"/>
<path d="M0 0 C-1.65 0.33 -3.3 0.66 -5 1 C-4.67 9.58 -4.34 18.16 -4 27 C-5.98787504 23.02424992 -7.09966643 20.1352904 -7.31640625 15.76953125 C-7.35830078 14.96708984 -7.40019531 14.16464844 -7.44335938 13.33789062 C-7.48267578 12.50451172 -7.52199219 11.67113281 -7.5625 10.8125 C-7.60568359 9.96751953 -7.64886719 9.12253906 -7.69335938 8.25195312 C-7.79931518 6.16815567 -7.9001502 4.08409897 -8 2 C-7.34 2 -6.68 2 -6 2 C-6 1.34 -6 0.68 -6 0 C-3.50907189 -1.24546405 -2.58919267 -0.7767578 0 0 Z " fill="#5B5B5B" transform="translate(182,154)"/>
<path d="M0 0 C0 3.2002215 -0.63242392 5.61483471 -1.5 8.6875 C-1.7784375 9.68136719 -2.056875 10.67523438 -2.34375 11.69921875 C-2.5603125 12.45847656 -2.776875 13.21773437 -3 14 C-0.36 14 2.28 14 5 14 C5 17.63 5 21.26 5 25 C3.35 25 1.7 25 0 25 C-0.33 26.32 -0.66 27.64 -1 29 C-1 27.35 -1 25.7 -1 24 C0.32 24 1.64 24 3 24 C3 21.03 3 18.06 3 15 C0.69 15 -1.62 15 -4 15 C-4.63019694 5.98468271 -4.63019694 5.98468271 -2 1.875 C-1.34 1.25625 -0.68 0.6375 0 0 Z " fill="#909090" transform="translate(45,16)"/>
<path d="M0 0 C-0.75619629 0.08040527 -1.51239258 0.16081055 -2.29150391 0.24365234 C-5.73678042 0.61390205 -9.1808576 0.99435089 -12.625 1.375 C-14.40970703 1.56449219 -14.40970703 1.56449219 -16.23046875 1.7578125 C-17.38417969 1.88671875 -18.53789062 2.015625 -19.7265625 2.1484375 C-20.78439941 2.26364746 -21.84223633 2.37885742 -22.93212891 2.49755859 C-26.11374306 3.0186283 -28.97378971 3.90136271 -32 5 C-31.67 4.34 -31.34 3.68 -31 3 C-30.01 3 -29.02 3 -28 3 C-28 2.34 -28 1.68 -28 1 C-5.46719775 -3.6447985 -5.46719775 -3.6447985 0 0 Z " fill="#444444" transform="translate(38,11)"/>
<path d="M0 0 C0.33 0 0.66 0 1 0 C1 2.64 1 5.28 1 8 C0.34 8 -0.32 8 -1 8 C-1 9.65 -1 11.3 -1 13 C-1.66 13 -2.32 13 -3 13 C-3 14.65 -3 16.3 -3 18 C-3.66 18 -4.32 18 -5 18 C-5.33 21.3 -5.66 24.6 -6 28 C-6.66 28 -7.32 28 -8 28 C-8.33 28.66 -8.66 29.32 -9 30 C-8.28547412 25.23649415 -7.20465156 20.65798604 -6 16 C-5.34 16 -4.68 16 -4 16 C-4.0825 15.21625 -4.165 14.4325 -4.25 13.625 C-3.90508489 8.62373094 -2.01353919 4.5484412 0 0 Z " fill="#787878" transform="translate(293,70)"/>
<path d="M0 0 C0.88194123 2.92020542 1.01762514 5.05642653 0.5625 8.0625 C-0.37179271 15.51225506 -1.04320468 22.96258917 2 30 C1.34 29.67 0.68 29.34 0 29 C0 28.01 0 27.02 0 26 C-0.66 26 -1.32 26 -2 26 C-4.68423452 20.63153097 -3.69855577 10.94855518 -2.328125 5.1640625 C-1.5 3 -1.5 3 0 0 Z " fill="#8D8D8D" transform="translate(292,104)"/>
<path d="M0 0 C0.66 0 1.32 0 2 0 C2 2.97 2 5.94 2 9 C2.66 9 3.32 9 4 9 C4.41640288 16.2484945 3.44166784 22.16914355 1 29 C-0.0717433 25.65080219 0.0853842 23.03490736 0.5 19.5625 C1.14466021 12.94453255 0.69167357 6.59750171 0 0 Z " fill="#B4B4B4" transform="translate(248,157)"/>
<path d="M0 0 C0 0.66 0 1.32 0 2 C-1.32 2 -2.64 2 -4 2 C-4 2.66 -4 3.32 -4 4 C-8.95 4 -13.9 4 -19 4 C-19 3.34 -19 2.68 -19 2 C-19.66 1.67 -20.32 1.34 -21 1 C-17.87504511 0.83248032 -14.75002908 0.66612942 -11.625 0.5 C-10.73554688 0.45230469 -9.84609375 0.40460938 -8.9296875 0.35546875 C-7.65351563 0.28779297 -7.65351563 0.28779297 -6.3515625 0.21875 C-5.56604004 0.17685547 -4.78051758 0.13496094 -3.97119141 0.09179688 C-2.64854076 0.03020205 -1.32408408 0 0 0 Z " fill="#4D4D4D" transform="translate(252,146)"/>
<path d="M0 0 C1.41925781 -0.01836914 1.41925781 -0.01836914 2.8671875 -0.03710938 C11.7993663 -0.05592717 11.7993663 -0.05592717 15.625 2.1875 C16.12 3.1775 16.12 3.1775 16.625 4.1875 C9.75 3.3125 9.75 3.3125 8.625 2.1875 C6.0498055 2.05977986 3.51326801 2.00228146 0.9375 2 C0.22916016 1.98775391 -0.47917969 1.97550781 -1.20898438 1.96289062 C-7.22416498 1.94622807 -12.05544095 3.32312205 -17.375 6.1875 C-12.30968199 -0.6244794 -7.95004932 0.00537165 0 0 Z " fill="#676767" transform="translate(57.375,1.8125)"/>
<path d="M0 0 C2.97 0 5.94 0 9 0 C5 2 5 2 1 2 C1.165 2.66 1.33 3.32 1.5 4 C2.12183299 7.73099794 2.06408926 11.21873378 2 15 C1.01 15.33 0.02 15.66 -1 16 C-1 14.35 -1 12.7 -1 11 C-1.66 11 -2.32 11 -3 11 C-2.67 9.35 -2.34 7.7 -2 6 C-1.34 6 -0.68 6 0 6 C0 4.02 0 2.04 0 0 Z " fill="#2D2D2D" transform="translate(247,155)"/>
<path d="M0 0 C0.33 1.32 0.66 2.64 1 4 C1.66 4 2.32 4 3 4 C3.12117187 4.92941406 3.24234375 5.85882813 3.3671875 6.81640625 C4.32345663 14.56534056 4.32345663 14.56534056 6.1875 22.125 C7.03187359 25.11278346 6.86611379 26.13752465 6 29 C3.53911654 23.18336636 2.32170667 17.69336515 1.4296875 11.44140625 C1.2512891 9.06001036 1.2512891 9.06001036 0 8 C-0.14115161 5.32941149 -0.04247107 2.67567762 0 0 Z " fill="#676767" transform="translate(167,167)"/>
<path d="M0 0 C0.33 0 0.66 0 1 0 C1.47545004 9.45617311 0.10435896 17.83100739 -2 27 C-2.33 27 -2.66 27 -3 27 C-2.88899025 23.81185409 -2.75863821 20.62477124 -2.625 17.4375 C-2.5940625 16.54224609 -2.563125 15.64699219 -2.53125 14.72460938 C-2.30127783 9.49274255 -1.67595556 4.96655124 0 0 Z " fill="#424242" transform="translate(151,168)"/>
<path d="M0 0 C0.33 0.99 0.66 1.98 1 3 C1.66 3 2.32 3 3 3 C3.33 5.31 3.66 7.62 4 10 C2.68 10.33 1.36 10.66 0 11 C0 11.66 0 12.32 0 13 C-1.32 13 -2.64 13 -4 13 C-5.8125 10.625 -5.8125 10.625 -7 8 C-6.67 7.34 -6.34 6.68 -6 6 C-5.01 6 -4.02 6 -3 6 C-2.67 7.32 -2.34 8.64 -2 10 C-0.68 9.67 0.64 9.34 2 9 C1.34 8.34 0.68 7.68 0 7 C0.66 7 1.32 7 2 7 C1.34 6.01 0.68 5.02 0 4 C0 2.68 0 1.36 0 0 Z " fill="#292929" transform="translate(313,131)"/>
<path d="M0 0 C1.69719127 0.94726954 3.36935236 1.94228261 5 3 C5.99 3 6.98 3 8 3 C8 3.99 8 4.98 8 6 C6.68 6 5.36 6 4 6 C4 5.34 4 4.68 4 4 C-1.61 4 -7.22 4 -13 4 C-8.41453601 0.94302401 -5.65414049 -0.57695311 0 0 Z " fill="#4D4D4D" transform="translate(61,52)"/>
<path d="M0 0 C1.32 0 2.64 0 4 0 C4.33 8.58 4.66 17.16 5 26 C0.57505814 19.3625872 1.88239649 9.72263079 2 2 C1.34 2 0.68 2 0 2 C0 1.34 0 0.68 0 0 Z " fill="#484848" transform="translate(50,125)"/>
<path d="M0 0 C6.71713827 2.95554084 10.08523444 7.25372809 13 14 C12.67 14.66 12.34 15.32 12 16 C11.566875 15.525625 11.13375 15.05125 10.6875 14.5625 C8.97690387 12.76313043 8.97690387 12.76313043 6 12 C6 10.02 6 8.04 6 6 C4.68 5.67 3.36 5.34 2 5 C2 4.34 2 3.68 2 3 C1.34 2.67 0.68 2.34 0 2 C0 1.34 0 0.68 0 0 Z " fill="#303030" transform="translate(245,98)"/>
<path d="M0 0 C0.33 0 0.66 0 1 0 C0.67 5.28 0.34 10.56 0 16 C1.65 16 3.3 16 5 16 C5.33 15.01 5.66 14.02 6 13 C6 14.65 6 16.3 6 18 C3.36 18 0.72 18 -2 18 C-1.85860519 15.74971671 -1.71171997 13.49977794 -1.5625 11.25 C-1.48128906 9.99703125 -1.40007812 8.7440625 -1.31640625 7.453125 C-1.07484478 4.81682447 -0.75716066 2.51962706 0 0 Z " fill="#ACACAC" transform="translate(247,189)"/>
<path d="M0 0 C2 0.6875 2 0.6875 4 2.6875 C4 3.6775 4 4.6675 4 5.6875 C1.03 5.6875 -1.94 5.6875 -5 5.6875 C-4.625 3.25 -4.625 3.25 -4 0.6875 C-2 -0.3125 -2 -0.3125 0 0 Z " fill="#EAEAEA" transform="translate(59,63.3125)"/>
<path d="M0 0 C3.3 0 6.6 0 10 0 C7 2 7 2 2 2 C2.33 7.61 2.66 13.22 3 19 C-0.78646218 13.32030673 -0.10159635 6.60376302 0 0 Z " fill="#454545" transform="translate(184,160)"/>
<path d="M0 0 C4.97093824 0.41153737 9.44508386 0.79600832 14 3 C14 3.66 14 4.32 14 5 C16.64 4.67 19.28 4.34 22 4 C22 4.99 22 5.98 22 7 C15.83663397 6.58625552 10.67473514 5.41793062 5 3 C4.01 2.608125 3.02 2.21625 2 1.8125 C1.34 1.544375 0.68 1.27625 0 1 C0 0.67 0 0.34 0 0 Z " fill="#636363" transform="translate(182,122)"/>
<path d="M0 0 C1.33010838 2.66021676 0.84010022 4.09608836 0.3125 7 C0.16425781 7.886875 0.01601562 8.77375 -0.13671875 9.6875 C-1 12 -1 12 -3.08203125 13.3125 C-4.03142578 13.6528125 -4.03142578 13.6528125 -5 14 C-5 14.99 -5 15.98 -5 17 C-5.66 17 -6.32 17 -7 17 C-5.77443263 12.62297367 -4.46939453 8.30322683 -3 4 C-2.34 4 -1.68 4 -1 4 C-0.67 2.68 -0.34 1.36 0 0 Z " fill="#373737" transform="translate(69,179)"/>
<path d="M0 0 C0.33 0 0.66 0 1 0 C1.12022642 5.77086794 0.91696124 11.29446341 0 17 C-0.33 17.33 -0.66 17.66 -1 18 C-1.23075082 19.34747084 -1.41153063 20.70377565 -1.5625 22.0625 C-1.706875 23.361875 -1.85125 24.66125 -2 26 C-2.33 26 -2.66 26 -3 26 C-3.58051881 17.05571013 -1.81374025 8.70163476 0 0 Z " fill="#B6B6B6" transform="translate(280,156)"/>
<path d="M0 0 C0.33 0 0.66 0 1 0 C1.60172923 9.47723538 -0.63599942 17.90281921 -3 27 C-3.33 27 -3.66 27 -4 27 C-4 23.04 -4 19.08 -4 15 C-3.34 15 -2.68 15 -2 15 C-2 13.02 -2 11.04 -2 9 C-1.34 9 -0.68 9 0 9 C0 6.03 0 3.06 0 0 Z " fill="#555555" transform="translate(294,134)"/>
<path d="M0 0 C5.28 0 10.56 0 16 0 C16.66 2.31 17.32 4.62 18 7 C17.01 8.485 17.01 8.485 16 10 C15.67 7.36 15.34 4.72 15 2 C14.16855469 2.02320313 13.33710938 2.04640625 12.48046875 2.0703125 C10.85044922 2.09738281 10.85044922 2.09738281 9.1875 2.125 C8.10855469 2.14820313 7.02960937 2.17140625 5.91796875 2.1953125 C3 2 3 2 0 0 Z " fill="#535353" transform="translate(18,36)"/>
<path d="M0 0 C0.66 0 1.32 0 2 0 C2.06058594 0.77085937 2.12117187 1.54171875 2.18359375 2.3359375 C2.26738281 3.33882812 2.35117188 4.34171875 2.4375 5.375 C2.55931641 6.87160156 2.55931641 6.87160156 2.68359375 8.3984375 C2.84965626 10.97927613 2.84965626 10.97927613 4 13 C4.07065617 15.04055005 4.08421976 17.08334257 4.0625 19.125 C4.05347656 20.22070312 4.04445312 21.31640625 4.03515625 22.4453125 C4.02355469 23.28835937 4.01195312 24.13140625 4 25 C3.67 25 3.34 25 3 25 C0.78227509 16.72049367 0.39728885 8.52080037 0 0 Z " fill="#A8A8A8" transform="translate(186,171)"/>
<path d="M0 0 C3 3.625 3 3.625 3 7 C2.01 7 1.02 7 0 7 C0 7.66 0 8.32 0 9 C-1.65 9.33 -3.3 9.66 -5 10 C-5 10.66 -5 11.32 -5 12 C-5.99 12 -6.98 12 -8 12 C-8 12.66 -8 13.32 -8 14 C-9.98 14.33 -11.96 14.66 -14 15 C-12.73577236 12.47154472 -11.47154472 12.23577236 -9 11 C-8.67 10.34 -8.34 9.68 -8 9 C-5.68895182 7.94952356 -3.35416349 6.94992562 -1 6 C-0.34 5.67 0.32 5.34 1 5 C0.67 3.35 0.34 1.7 0 0 Z " fill="#717171" transform="translate(74,96)"/>
<path d="M0 0 C0 0.33 0 0.66 0 1 C-0.92232422 1.07347656 -0.92232422 1.07347656 -1.86328125 1.1484375 C-2.67152344 1.22320312 -3.47976562 1.29796875 -4.3125 1.375 C-5.51326172 1.47941406 -5.51326172 1.47941406 -6.73828125 1.5859375 C-9.27224441 1.89564426 -9.27224441 1.89564426 -12 4 C-12.25015873 7.58357241 -12.25015873 7.58357241 -12 11 C-12.99 10.67 -13.98 10.34 -15 10 C-15.33 7.69 -15.66 5.38 -16 3 C-11.14640505 -1.01676824 -5.95027665 -0.28136159 0 0 Z " fill="#727272" transform="translate(240,94)"/>
<path d="M0 0 C0.33 0.66 0.66 1.32 1 2 C0.67 2.99 0.34 3.98 0 5 C2.97 5 5.94 5 9 5 C8.67 3.68 8.34 2.36 8 1 C8.66 1 9.32 1 10 1 C10.33 2.98 10.66 4.96 11 7 C7.04 7 3.08 7 -1 7 C-1.33 5.68 -1.66 4.36 -2 3 C-1.34 2.01 -0.68 1.02 0 0 Z " fill="#6F6F6F" transform="translate(54,64)"/>
<path d="M0 0 C0.66 0 1.32 0 2 0 C2 4.29 2 8.58 2 13 C0.35 13 -1.3 13 -3 13 C-3 15.31 -3 17.62 -3 20 C-3.66 20 -4.32 20 -5 20 C-5 17.03 -5 14.06 -5 11 C-3.02 11 -1.04 11 1 11 C0.67 7.37 0.34 3.74 0 0 Z " fill="#232323" transform="translate(74,20)"/>
<path d="M0 0 C0.99 0.495 0.99 0.495 2 1 C2 1.66 2 2.32 2 3 C2.66 3 3.32 3 4 3 C8.20456068 7.8741759 8.52691634 11.59112914 8.25 17.875 C8.23195313 18.65875 8.21390625 19.4425 8.1953125 20.25 C8.14855148 22.16720189 8.07682003 24.08376715 8 26 C7.67 26 7.34 26 7 26 C7 21.38 7 16.76 7 12 C6.34 12 5.68 12 5 12 C5 10.35 5 8.7 5 7 C4.34 7 3.68 7 3 7 C0 2.61538462 0 2.61538462 0 0 Z " fill="#5D5D5D" transform="translate(302,16)"/>
<path d="M0 0 C0.88336837 2.4667645 1.1312406 3.63859372 0.22265625 6.140625 C-0.16019531 6.83671875 -0.54304688 7.5328125 -0.9375 8.25 C-1.31777344 8.95640625 -1.69804687 9.6628125 -2.08984375 10.390625 C-2.39019531 10.92171875 -2.69054687 11.4528125 -3 12 C-5.31 12 -7.62 12 -10 12 C-9.67 9.69 -9.34 7.38 -9 5 C-8.67 5 -8.34 5 -8 5 C-8 6.65 -8 8.3 -8 10 C-6.35 10 -4.7 10 -3 10 C-3 8.35 -3 6.7 -3 5 C-2.34 5 -1.68 5 -1 5 C-0.67 3.35 -0.34 1.7 0 0 Z " fill="#B4B4B4" transform="translate(273,195)"/>
<path d="M0 0 C0.66 0 1.32 0 2 0 C3.30433619 5.93627021 3.11086318 11.83332252 3.0625 17.875 C3.05798828 18.94492188 3.05347656 20.01484375 3.04882812 21.1171875 C3.03709749 23.74484986 3.02068228 26.37239538 3 29 C2.67 29 2.34 29 2 29 C1.98018066 28.34402832 1.96036133 27.68805664 1.93994141 27.01220703 C1.84487493 24.04938931 1.73512248 21.08729468 1.625 18.125 C1.5940625 17.09246094 1.563125 16.05992188 1.53125 14.99609375 C1.49257813 14.00996094 1.45390625 13.02382812 1.4140625 12.0078125 C1.3826416 11.09660645 1.3512207 10.18540039 1.31884766 9.24658203 C1.20117489 6.80068814 1.20117489 6.80068814 -1 5 C-0.625 2.375 -0.625 2.375 0 0 Z " fill="#969696" transform="translate(304,70)"/>
<path d="M0 0 C0.33 0 0.66 0 1 0 C1.18451025 12.66970387 1.18451025 12.66970387 0 18 C-0.66 18 -1.32 18 -2 18 C-2.33 18.66 -2.66 19.32 -3 20 C-2.45136137 13.2142064 -1.45732062 6.64990964 0 0 Z " fill="#DCDCDC" transform="translate(120,183)"/>
<path d="M0 0 C0.66 0 1.32 0 2 0 C2 0.99 2 1.98 2 3 C2.66 3 3.32 3 4 3 C3.979375 3.78375 3.95875 4.5675 3.9375 5.375 C3.81315937 7.98114961 3.81315937 7.98114961 5 10 C4.01 10.495 4.01 10.495 3 11 C2.27306096 12.97888961 1.60183749 14.97954558 1 17 C0.67 17 0.34 17 0 17 C0 11.39 0 5.78 0 0 Z " fill="#3A3A3A" transform="translate(283,134)"/>
<path d="M0 0 C0.99 0 1.98 0 3 0 C3.66 3.3 4.32 6.6 5 10 C5.66 10 6.32 10 7 10 C7 10.66 7 11.32 7 12 C8.32 12.66 9.64 13.32 11 14 C8 14 8 14 5 13 C3.61328125 11.07421875 3.61328125 11.07421875 2.3125 8.6875 C1.87550781 7.90761719 1.43851563 7.12773437 0.98828125 6.32421875 C0 4 0 4 0 0 Z " fill="#3A3A3A" transform="translate(7,21)"/>
<path d="M0 0 C0.66 0 1.32 0 2 0 C1.50421987 4.46202121 0.90420254 8.89052561 0.125 13.3125 C-0.01679688 14.13363281 -0.15859375 14.95476562 -0.3046875 15.80078125 C-1.08485451 18.26838813 -2.04389905 19.34853772 -4 21 C-3.29843593 13.84404654 -1.69214979 6.98144819 0 0 Z " fill="#A2A2A2" transform="translate(286,183)"/>
<path d="M0 0 C4.29 0 8.58 0 13 0 C13 2.31 13 4.62 13 7 C12.34 7 11.68 7 11 7 C11 5.35 11 3.7 11 2 C7.37 2 3.74 2 0 2 C0 1.34 0 0.68 0 0 Z " fill="#353535" transform="translate(131,165)"/>
<path d="M0 0 C3.0625 1 3.0625 1 5 2 C1.87819599 2.96661363 -0.52083795 2.98988909 -3.75 2.5625 C-4.94882813 2.40974609 -4.94882813 2.40974609 -6.171875 2.25390625 C-6.77515625 2.17011719 -7.3784375 2.08632812 -8 2 C-8 2.66 -8 3.32 -8 4 C-8.99 4.33 -9.98 4.66 -11 5 C-11.66 5.66 -12.32 6.32 -13 7 C-12.6875 4.625 -12.6875 4.625 -12 2 C-7.95398061 -0.69734626 -4.74576236 -0.43218852 0 0 Z " fill="#1E1E1E" transform="translate(240,95)"/>
<path d="M0 0 C0.82638376 2.89234315 1 4.88742431 1 8 C1.66 7.67 2.32 7.34 3 7 C2.25 9.9375 2.25 9.9375 1 13 C-1.078125 13.69140625 -1.078125 13.69140625 -3 14 C-2.69147815 12.041036 -2.3780582 10.08284287 -2.0625 8.125 C-1.88847656 7.03445312 -1.71445312 5.94390625 -1.53515625 4.8203125 C-1 2 -1 2 0 0 Z " fill="#959595" transform="translate(57,192)"/>
<path d="M0 0 C0.33 0 0.66 0 1 0 C1.53084792 2.91516484 2.04999055 5.83160557 2.5625 8.75 C2.71396484 9.575 2.86542969 10.4 3.02148438 11.25 C3.16005859 12.04921875 3.29863281 12.8484375 3.44140625 13.671875 C3.57232666 14.4050293 3.70324707 15.13818359 3.83813477 15.89355469 C4.01247412 18.16233287 3.66874807 19.83778579 3 22 C2.01 21.01 1.02 20.02 0 19 C0.495 17.515 0.495 17.515 1 16 C0.91232913 13.25392224 0.77043265 10.54908492 0.5625 7.8125 C0.51029297 7.06291016 0.45808594 6.31332031 0.40429688 5.54101562 C0.27486216 3.69362918 0.13813482 1.84675629 0 0 Z " fill="#232323" transform="translate(163,148)"/>
<path d="M0 0 C0.33 0 0.66 0 1 0 C0.67 5.61 0.34 11.22 0 17 C-0.66 17 -1.32 17 -2 17 C-2.33 18.32 -2.66 19.64 -3 21 C-3.09765625 14.84765625 -3.09765625 14.84765625 -3 13 C-2.67 12.67 -2.34 12.34 -2 12 C-1.60430892 9.98688551 -1.25747809 7.96402792 -0.9375 5.9375 C-0.67259766 4.28041016 -0.67259766 4.28041016 -0.40234375 2.58984375 C-0.26957031 1.73519531 -0.13679688 0.88054688 0 0 Z " fill="#393939" transform="translate(299,47)"/>
<path d="M0 0 C2.64 0 5.28 0 8 0 C8.33 0.99 8.66 1.98 9 3 C9.66 3 10.32 3 11 3 C11.66 5.31 12.32 7.62 13 10 C8.125 5.25 8.125 5.25 7 3 C4.6859378 2.26924352 2.35171131 1.59861742 0 1 C0 0.67 0 0.34 0 0 Z " fill="#404040" transform="translate(286,18)"/>
<path d="M0 0 C1.66052929 3.32105857 0.049567 6.61731908 -1 10 C-2.125 12.5 -2.125 12.5 -3 14 C-4.98 14 -6.96 14 -9 14 C-9 13.67 -9 13.34 -9 13 C-7.35 13 -5.7 13 -4 13 C-3.896875 11.783125 -3.79375 10.56625 -3.6875 9.3125 C-3.23780688 5.58930552 -2.21617222 3.08337005 0 0 Z " fill="#515151" transform="translate(281,202)"/>
<path d="M0 0 C0.99 0.33 1.98 0.66 3 1 C3 4.96 3 8.92 3 13 C2.01 13.495 2.01 13.495 1 14 C1.33 12.02 1.66 10.04 2 8 C1.34 8 0.68 8 0 8 C0 5.36 0 2.72 0 0 Z " fill="#0D0D0D" transform="translate(145,191)"/>
<path d="M0 0 C0.91145054 2.97022221 1.01801972 5.06485586 0.44140625 8.109375 C0.30283203 8.86347656 0.16425781 9.61757812 0.02148438 10.39453125 C-0.20571289 11.56048828 -0.20571289 11.56048828 -0.4375 12.75 C-0.58509766 13.54277344 -0.73269531 14.33554688 -0.88476562 15.15234375 C-1.24903966 17.10297246 -1.62352512 19.0516893 -2 21 C-2.33 21 -2.66 21 -3 21 C-2.89037184 17.8742604 -2.75968759 14.74975219 -2.625 11.625 C-2.5940625 10.73554688 -2.563125 9.84609375 -2.53125 8.9296875 C-2.49257813 8.07890625 -2.45390625 7.228125 -2.4140625 6.3515625 C-2.3826416 5.56604004 -2.3512207 4.78051758 -2.31884766 3.97119141 C-2 2 -2 2 0 0 Z " fill="#606060" transform="translate(267,179)"/>
<path d="M0 0 C0.33 1.32 0.66 2.64 1 4 C0.21625 3.95875 -0.5675 3.9175 -1.375 3.875 C-4.16116119 3.71271266 -4.16116119 3.71271266 -6 6 C-6.66 5.67 -7.32 5.34 -8 5 C-8 3.68 -8 2.36 -8 1 C-5.10765685 0.17361624 -3.11257569 0 0 0 Z " fill="#1D1D1D" transform="translate(162,143)"/>
<path d="M0 0 C1.4049404 3.89060419 0.69513239 7.23092362 0.0625 11.25 C-0.13214844 12.51328125 -0.32679688 13.7765625 -0.52734375 15.078125 C-0.76130859 16.52445313 -0.76130859 16.52445313 -1 18 C-1.33 18 -1.66 18 -2 18 C-2 15.36 -2 12.72 -2 10 C-2.99 10.33 -3.98 10.66 -5 11 C-5 10.01 -5 9.02 -5 8 C-3.68 8 -2.36 8 -1 8 C-1.020625 6.865625 -1.04125 5.73125 -1.0625 4.5625 C-1 1 -1 1 0 0 Z " fill="#1F1F1F" transform="translate(269,161)"/>
<path d="M0 0 C2.05078125 0.03255208 4.1015625 0.06510417 6.15234375 0.09765625 C5.57484375 0.36578125 4.99734375 0.63390625 4.40234375 0.91015625 C0.69446105 2.86709434 -1.49078363 4.02703838 -2.84765625 8.09765625 C-3.50765625 8.09765625 -4.16765625 8.09765625 -4.84765625 8.09765625 C-4.84765625 8.75765625 -4.84765625 9.41765625 -4.84765625 10.09765625 C-5.50765625 9.76765625 -6.16765625 9.43765625 -6.84765625 9.09765625 C-6.20427145 7.78395425 -5.5578741 6.47172727 -4.91015625 5.16015625 C-4.55050781 4.42925781 -4.19085938 3.69835937 -3.8203125 2.9453125 C-2.33478292 0.1234029 -2.33478292 0.1234029 0 0 Z " fill="#B4B4B4" transform="translate(113.84765625,18.90234375)"/>
<path d="M0 0 C1.64574566 -0.02688151 3.29161413 -0.04634123 4.9375 -0.0625 C5.85402344 -0.07410156 6.77054687 -0.08570313 7.71484375 -0.09765625 C10 0 10 0 11 1 C11.07205511 2.68608966 11.08386068 4.37500659 11.0625 6.0625 C11.05347656 6.98160156 11.04445313 7.90070313 11.03515625 8.84765625 C11.02355469 9.55792969 11.01195313 10.26820313 11 11 C10.34 11 9.68 11 9 11 C9 8.36 9 5.72 9 3 C4.545 2.01 4.545 2.01 0 1 C0 0.67 0 0.34 0 0 Z " fill="#2E2E2E" transform="translate(103,163)"/>
<path d="M0 0 C0.33 0 0.66 0 1 0 C1 4.29 1 8.58 1 13 C0.34 13 -0.32 13 -1 13 C-1.33 13.99 -1.66 14.98 -2 16 C-2.20674944 10.21101581 -1.59162079 5.57067277 0 0 Z " fill="#656565" transform="translate(239,176)"/>
<path d="M0 0 C1.14662109 -0.02513672 1.14662109 -0.02513672 2.31640625 -0.05078125 C4.91647923 0.39453512 5.78581388 1.31253502 7.4375 3.3125 C6.70144531 3.30089844 5.96539062 3.28929687 5.20703125 3.27734375 C4.23121094 3.26832031 3.25539063 3.25929688 2.25 3.25 C1.28707031 3.23839844 0.32414062 3.22679687 -0.66796875 3.21484375 C-3.41826513 3.30763378 -5.88729591 3.69138315 -8.5625 4.3125 C-8.5625 3.6525 -8.5625 2.9925 -8.5625 2.3125 C-5.60294139 0.62036057 -3.40550083 0.01728681 0 0 Z " fill="#292929" transform="translate(57.5625,8.6875)"/>
<path d="M0 0 C0.33 0 0.66 0 1 0 C1 2.31 1 4.62 1 7 C0.34 7 -0.32 7 -1 7 C-1 7.99 -1 8.98 -1 10 C-3.97 9.67 -6.94 9.34 -10 9 C-10 8.67 -10 8.34 -10 8 C-8.906875 7.979375 -7.81375 7.95875 -6.6875 7.9375 C-3.04267663 7.43885957 -3.04267663 7.43885957 -1.8671875 5.375 C-0.93575266 3.21776965 -0.93575266 3.21776965 0 0 Z " fill="#303030" transform="translate(273,199)"/>
<path d="M0 0 C0.66 0 1.32 0 2 0 C2 4.95 2 9.9 2 15 C1.67 15 1.34 15 1 15 C0.67 12.69 0.34 10.38 0 8 C-0.33 8 -0.66 8 -1 8 C-1.125 2.25 -1.125 2.25 0 0 Z " fill="#F0F0F0" transform="translate(118,201)"/>
<path d="M0 0 C0.66 0 1.32 0 2 0 C1.67 2.31 1.34 4.62 1 7 C0.01 7 -0.98 7 -2 7 C-2.33 7.66 -2.66 8.32 -3 9 C-5 7 -5 7 -5.125 4.375 C-5.08375 3.59125 -5.0425 2.8075 -5 2 C-2.525 2.99 -2.525 2.99 0 4 C0 2.68 0 1.36 0 0 Z " fill="#141414" transform="translate(55,192)"/>
<path d="M0 0 C0.33 0 0.66 0 1 0 C1 4.62 1 9.24 1 14 C0.34 14 -0.32 14 -1 14 C-1.33 14.99 -1.66 15.98 -2 17 C-2.09765625 10.84765625 -2.09765625 10.84765625 -2 9 C-1.67 8.67 -1.34 8.34 -1 8 C-0.76924918 6.65252916 -0.58846937 5.29622435 -0.4375 3.9375 C-0.293125 2.638125 -0.14875 1.33875 0 0 Z " fill="#404040" transform="translate(278,174)"/>
<path d="M0 0 C1.32 0 2.64 0 4 0 C4 2.97 4 5.94 4 9 C3.01 9.495 3.01 9.495 2 10 C2 7.69 2 5.38 2 3 C1.01 3.33 0.02 3.66 -1 4 C-0.67 2.68 -0.34 1.36 0 0 Z " fill="#4D4D4D" transform="translate(259,150)"/>
<path d="M0 0 C0.96484618 3.05192479 1.00348185 5.0371838 0.1875 8.125 C0.01605469 8.80820313 -0.15539063 9.49140625 -0.33203125 10.1953125 C-1 12 -1 12 -3 14 C-3.34615998 8.34605369 -2.43425238 4.96993194 0 0 Z " fill="#797979" transform="translate(44,202)"/>
<path d="M0 0 C0.99 0.33 1.98 0.66 3 1 C3.98248524 5.0527516 4.08159574 8.83861737 4 13 C1.12420019 8.68630028 0 5.19265239 0 0 Z " fill="#616161" transform="translate(163,190)"/>
<path d="M0 0 C0.33 0 0.66 0 1 0 C1.21824777 6.0018137 0.5056904 11.19233704 -1 17 C-1.33 17 -1.66 17 -2 17 C-2.22084624 10.90218999 -2.01167675 5.78357065 0 0 Z " fill="#242424" transform="translate(238,189)"/>
<path d="M0 0 C0.33 0 0.66 0 1 0 C1 1.98 1 3.96 1 6 C1.99 6 2.98 6 4 6 C4 6.66 4 7.32 4 8 C2.35 8 0.7 8 -1 8 C-1.33 9.32 -1.66 10.64 -2 12 C-3.40907283 9.18185434 -2.50872691 7.82722796 -1.5625 4.875 C-1.27503906 3.96492187 -0.98757812 3.05484375 -0.69140625 2.1171875 C-0.46324219 1.41851562 -0.23507813 0.71984375 0 0 Z " fill="#272727" transform="translate(50,183)"/>
<path d="M0 0 C0.33 0 0.66 0 1 0 C1.20190089 6.35987804 0.6277833 11.85221129 -1 18 C-1.66 18 -2.32 18 -3 18 C-2.85957123 16.35369672 -2.71250671 14.70795821 -2.5625 13.0625 C-2.48128906 12.14597656 -2.40007812 11.22945312 -2.31640625 10.28515625 C-2 8 -2 8 -1 7 C-0.63239269 4.67182036 -0.29758419 2.3381615 0 0 Z " fill="#1B1B1B" transform="translate(263,152)"/>
<path d="M0 0 C0.99 0 1.98 0 3 0 C3.66 4.29 4.32 8.58 5 13 C4.34 12.67 3.68 12.34 3 12 C2.1484375 9.27734375 2.1484375 9.27734375 1.375 5.9375 C0.98441406 4.28041016 0.98441406 4.28041016 0.5859375 2.58984375 C0.39257812 1.73519531 0.19921875 0.88054687 0 0 Z " fill="#4F4F4F" transform="translate(251,121)"/>
<path d="M0 0 C1.33332095 2.6666419 0.67102033 4.16680303 0 7 C-0.66 7 -1.32 7 -2 7 C-2 8.65 -2 10.3 -2 12 C-2.99 12.495 -2.99 12.495 -4 13 C-3.40546697 3.40546697 -3.40546697 3.40546697 0 0 Z " fill="#A4A4A4" transform="translate(297,91)"/>
<path d="M0 0 C0.33 0 0.66 0 1 0 C1 2.64 1 5.28 1 8 C0.34 8 -0.32 8 -1 8 C-1 9.65 -1 11.3 -1 13 C-1.66 13 -2.32 13 -3 13 C-2.69128878 11.20767663 -2.37790936 9.41615679 -2.0625 7.625 C-1.88847656 6.62726563 -1.71445312 5.62953125 -1.53515625 4.6015625 C-1 2 -1 2 0 0 Z " fill="#525252" transform="translate(293,70)"/>
<path d="M0 0 C0.99 0.495 0.99 0.495 2 1 C2 2.32 2 3.64 2 5 C2.66 5 3.32 5 4 5 C4.99 7.31 5.98 9.62 7 12 C4.53199953 10.84826645 2.95216435 9.95216435 1 8 C0.43479997 5.34462628 0.26211802 2.70855287 0 0 Z " fill="#545454" transform="translate(42,67)"/>
<path d="M0 0 C1.60080151 4.00200378 0.29279692 7.04556236 -1 11 C-1.66 11 -2.32 11 -3 11 C-3.33 11.99 -3.66 12.98 -4 14 C-3 6.57142857 -3 6.57142857 -2 3 C-1.34 3 -0.68 3 0 3 C0 2.01 0 1.02 0 0 Z " fill="#7B7B7B" transform="translate(53,172)"/>
<path d="M0 0 C0.33 1.32 0.66 2.64 1 4 C1.66 4 2.32 4 3 4 C3.33 6.97 3.66 9.94 4 13 C1.33395417 11.66697708 1.00875212 10.81009519 0 8 C-0.16468671 5.30840157 -0.09005213 2.70156394 0 0 Z " fill="#A3A3A3" transform="translate(167,167)"/>
<path d="M0 0 C2.125 0.375 2.125 0.375 4 1 C2.02 1.99 2.02 1.99 0 3 C0.33 5.97 0.66 8.94 1 12 C0.01 11.34 -0.98 10.68 -2 10 C-2.36328125 8.125 -2.36328125 8.125 -2.3125 6 C-2.30669922 4.948125 -2.30669922 4.948125 -2.30078125 3.875 C-2 2 -2 2 0 0 Z " fill="#9B9B9B" transform="translate(6,13)"/>
<path d="M0 0 C1.32 0.33 2.64 0.66 4 1 C1.69 3.31 -0.62 5.62 -3 8 C-3 4.42424104 -1.91159393 2.94704065 0 0 Z " fill="#D5D5D5" transform="translate(48,13)"/>
<path d="M0 0 C0.33 0 0.66 0 1 0 C0.67 2.31 0.34 4.62 0 7 C0.99 7 1.98 7 3 7 C3 7.66 3 8.32 3 9 C1.35 9 -0.3 9 -2 9 C-2 7.35 -2 5.7 -2 4 C-1.34 4 -0.68 4 0 4 C0 2.68 0 1.36 0 0 Z " fill="#373737" transform="translate(54,199)"/>
<path d="M0 0 C1 2 1 2 0.44140625 3.9453125 C0.15136719 4.66460937 -0.13867188 5.38390625 -0.4375 6.125 C-0.72496094 6.84945312 -1.01242188 7.57390625 -1.30859375 8.3203125 C-1.53675781 8.87460938 -1.76492187 9.42890625 -2 10 C-2.33 10 -2.66 10 -3 10 C-3.33 7.36 -3.66 4.72 -4 2 C-2.68 1.34 -1.36 0.68 0 0 Z " fill="#484848" transform="translate(77,184)"/>
<path d="M0 0 C1 2 1 2 0.125 5 C-1 8 -1 8 -2 10 C-2.66 10 -3.32 10 -4 10 C-2.99806563 6.20696275 -2.18975773 3.28463659 0 0 Z " fill="#494949" transform="translate(81,155)"/>
<path d="M0 0 C0.33 1.32 0.66 2.64 1 4 C1.66 4 2.32 4 3 4 C3 7.3 3 10.6 3 14 C2.67 14 2.34 14 2 14 C0.66416101 9.15758367 -0.25328119 5.06562383 0 0 Z " fill="#565656" transform="translate(153,144)"/>
<path d="M0 0 C1.53445094 3.06890187 0.54984289 5.70094266 0 9 C-0.66 9 -1.32 9 -2 9 C-2.33 9.99 -2.66 10.98 -3 12 C-4.24546405 9.50907189 -3.7767578 8.58919267 -3 6 C-2.34 6 -1.68 6 -1 6 C-1.020625 5.195625 -1.04125 4.39125 -1.0625 3.5625 C-1 1 -1 1 0 0 Z " fill="#8C8C8C" transform="translate(84,144)"/>
<path d="M0 0 C3.14624993 -0.26218749 4.61837017 -0.24754367 7.3125 1.5 C8.1478125 2.2425 8.1478125 2.2425 9 3 C6.1875 3.625 6.1875 3.625 3 4 C2.01 3.34 1.02 2.68 0 2 C0 1.34 0 0.68 0 0 Z " fill="#171717" transform="translate(249,151)"/>
<path d="M0 0 C4.05606165 0.46800711 7.46588679 0.87953208 11 3 C11 3.66 11 4.32 11 5 C7.13351728 3.95902388 3.50538557 2.96301592 0 1 C0 0.67 0 0.34 0 0 Z " fill="#B5B5B5" transform="translate(173,107)"/>
<path d="M0 0 C0.66 0 1.32 0 2 0 C1.95875 0.7425 1.9175 1.485 1.875 2.25 C2.00398134 5.08758952 2.57051222 6.58773938 4 9 C1.5 7.8125 1.5 7.8125 -1 6 C-1.375 3.375 -1.375 3.375 -1 1 C-0.67 0.67 -0.34 0.34 0 0 Z " fill="#393939" transform="translate(71,72)"/>
<path d="M0 0 C0.66 0 1.32 0 2 0 C2 0.66 2 1.32 2 2 C2.66 2 3.32 2 4 2 C4 5.3 4 8.6 4 12 C3.67 12 3.34 12 3 12 C2 8 1 4 0 0 Z " fill="#3C3C3C" transform="translate(157,168)"/>
<path d="M0 0 C1.32 0 2.64 0 4 0 C4.33 1.32 4.66 2.64 5 4 C3.35 4.33 1.7 4.66 0 5 C0 3.35 0 1.7 0 0 Z " fill="#030303" transform="translate(311,136)"/>
<path d="M0 0 C0.33 0.66 0.66 1.32 1 2 C0.67 2.66 0.34 3.32 0 4 C-0.99 4 -1.98 4 -3 4 C-3 4.99 -3 5.98 -3 7 C-3.99 7 -4.98 7 -6 7 C-4.60667426 3.63279613 -3.0210714 2.0140476 0 0 Z " fill="#ADADAD" transform="translate(69,116)"/>
<path d="M0 0 C0.33 0.99 0.66 1.98 1 3 C0.34 3 -0.32 3 -1 3 C-1 3.66 -1 4.32 -1 5 C-1.66 5 -2.32 5 -3 5 C-3.33 5.99 -3.66 6.98 -4 8 C-4.33 7.34 -4.66 6.68 -5 6 C-2.59016393 1.29508197 -2.59016393 1.29508197 0 0 Z " fill="#181818" transform="translate(64,195)"/>
<path d="M0 0 C1.33332095 2.6666419 0.67102033 4.16680303 0 7 C-0.66 7 -1.32 7 -2 7 C-2.33 7.99 -2.66 8.98 -3 10 C-4.24546405 7.50907189 -3.7767578 6.58919267 -3 4 C-2.34 4 -1.68 4 -1 4 C-0.67 2.68 -0.34 1.36 0 0 Z " fill="#727272" transform="translate(69,179)"/>
<path d="M0 0 C1.98 0 3.96 0 6 0 C3.47211993 2.79872437 1.79588866 4.45773019 -2 5 C-1.34 3.35 -0.68 1.7 0 0 Z " fill="#4B4B4B" transform="translate(233,122)"/>
<path d="M0 0 C1.60080151 4.00200378 0.29279692 7.04556236 -1 11 C-1.33 11 -1.66 11 -2 11 C-2.25 3.375 -2.25 3.375 0 0 Z " fill="#BEBEBE" transform="translate(305,100)"/>
<path d="M0 0 C1.98 0 3.96 0 6 0 C6.33 1.32 6.66 2.64 7 4 C4.69 3.67 2.38 3.34 0 3 C0 2.01 0 1.02 0 0 Z " fill="#3E3E3E" transform="translate(55,61)"/>
<path d="M0 0 C1.37245106 2.74490212 0.93580311 4.12060581 0 7 C-2.0625 8.3125 -2.0625 8.3125 -4 9 C-2.94124926 5.59687262 -1.99097846 2.98646769 0 0 Z " fill="#313131" transform="translate(76,167)"/>
<path d="M0 0 C1.485 0.99 1.485 0.99 3 2 C2.67 5.3 2.34 8.6 2 12 C1.67 12 1.34 12 1 12 C0.67 8.04 0.34 4.08 0 0 Z " fill="#515151" transform="translate(239,164)"/>
<path d="M0 0 C0.99 0.33 1.98 0.66 3 1 C2.34 1.66 1.68 2.32 1 3 C0.01 3 -0.98 3 -2 3 C-2.33 3.99 -2.66 4.98 -3 6 C-3.66 4.68 -4.32 3.36 -5 2 C-3.35 2 -1.7 2 0 2 C0 1.34 0 0.68 0 0 Z " fill="#2A2A2A" transform="translate(223,128)"/>
<path d="M0 0 C1.43088528 2.86177057 0.59991697 4.93375773 0 8 C-0.66 8 -1.32 8 -2 8 C-2.33 8.66 -2.66 9.32 -3 10 C-2.49287967 6.28111761 -1.88391785 3.26545761 0 0 Z " fill="#474747" transform="translate(287,90)"/>
<path d="M0 0 C0.99 0 1.98 0 3 0 C3 2.97 3 5.94 3 9 C2.67 9 2.34 9 2 9 C2 7.02 2 5.04 2 3 C1.01 3.33 0.02 3.66 -1 4 C-0.67 2.68 -0.34 1.36 0 0 Z " fill="#323232" transform="translate(304,67)"/>
<path d="M0 0 C1.65 0 3.3 0 5 0 C4.67 1.98 4.34 3.96 4 6 C2 4.6875 2 4.6875 0 3 C0 2.01 0 1.02 0 0 Z " fill="#DDDDDD" transform="translate(18,21)"/>
</svg>
