<?xml version="1.0" encoding="UTF-8"?>
<svg version="1.1" xmlns="http://www.w3.org/2000/svg" width="180" height="100">
<path d="M0 0 C59.4 0 118.8 0 180 0 C180 33 180 66 180 100 C120.6 100 61.2 100 0 100 C0 67 0 34 0 0 Z " fill="#FDFEFC" transform="translate(0,0)"/>
<path d="M0 0 C0.7734375 0.495 0.7734375 0.495 1.5625 1 C5.58257354 2.64926094 9.41742646 2.64926094 13.4375 1 C13.953125 0.67 14.46875 0.34 15 0 C14.34 1.98 13.68 3.96 13 6 C13.99 5.67 14.98 5.34 16 5 C18.86883538 4.89308255 21.71373087 4.84273562 24.58300781 4.83886719 C25.89816124 4.83141983 25.89816124 4.83141983 27.23988342 4.82382202 C30.14430524 4.80920184 33.04867241 4.80239805 35.953125 4.796875 C37.9723104 4.79112271 39.99149578 4.78536499 42.01068115 4.77960205 C46.24752049 4.76909198 50.48434086 4.76324959 54.72119141 4.75976562 C60.14281677 4.75428585 65.56419036 4.73026882 70.98573685 4.70179367 C75.15853602 4.68314224 79.33127491 4.67796032 83.50411224 4.67642975 C85.50234094 4.67340754 87.50056869 4.6653936 89.49875641 4.65224457 C92.29916856 4.63513447 95.09897042 4.63707665 97.89941406 4.64355469 C99.13096977 4.62973251 99.13096977 4.62973251 100.3874054 4.6156311 C106.42772271 4.65926344 111.55091996 5.55091996 116 10 C117.3921875 10.4021875 117.3921875 10.4021875 118.8125 10.8125 C123.05662447 12.39364441 125.95793882 14.91587764 128 19 C128.13129024 21.28806948 128.20289223 23.57966784 128.24609375 25.87109375 C128.2790282 27.26367825 128.31223992 28.65625623 128.34570312 30.04882812 C128.39314115 32.24547897 128.43758218 34.44210255 128.47680664 36.63891602 C128.5165249 38.75825406 128.56806391 40.87705287 128.62109375 42.99609375 C128.6461499 44.26638428 128.67120605 45.5366748 128.69702148 46.84545898 C128.76447214 50.15870338 128.76447214 50.15870338 131 53 C131.125 55.6875 131.125 55.6875 131 58 C127.58429647 56.53612706 125.31488288 54.92558495 123 52 C122.59380422 49.34260769 122.41851885 47.08219003 122.42578125 44.42578125 C122.41161667 43.70134323 122.39745209 42.97690521 122.38285828 42.23051453 C122.34102707 39.92435726 122.32572663 37.61898298 122.3125 35.3125 C122.28347063 32.99566813 122.24898898 30.67903556 122.21000671 28.36235046 C122.18746695 26.92234821 122.17167946 25.48222194 122.16316223 24.04206848 C122.4138011 20.73794072 122.4138011 20.73794072 121 18 C120.97519938 22.32331963 120.95709242 26.64660106 120.94506836 30.9699707 C120.94005331 32.43937909 120.93323967 33.90878252 120.92456055 35.37817383 C120.91237072 37.49561795 120.90674331 39.61299583 120.90234375 41.73046875 C120.89710693 43.00301514 120.89187012 44.27556152 120.88647461 45.58666992 C120.98501833 48.54955121 121.3523646 51.12175943 122 54 C122.33635212 59.78105201 121.33027114 64.86024837 120 70.4375 C119.80921875 71.26443359 119.6184375 72.09136719 119.421875 72.94335938 C118.95471563 74.96382366 118.47830626 76.98214547 118 79 C116.35 79 114.7 79 113 79 C111.73606225 76.47212451 111.8196832 74.16886359 111.65795898 71.38720703 C111.02614597 62.33870727 108.93779151 57.14613489 102.99609375 50.3203125 C101 48 101 48 100 45 C100.08378906 45.67546875 100.16757813 46.3509375 100.25390625 47.046875 C100.35574219 47.93890625 100.45757812 48.8309375 100.5625 49.75 C100.71912109 51.07257812 100.71912109 51.07257812 100.87890625 52.421875 C100.99456676 54.88432451 100.73638695 56.66538064 100 59 C98.35 58.67 96.7 58.34 95 58 C94.505 58.99 94.505 58.99 94 60 C93.01 60 92.02 60 91 60 C91 59.01 91 58.02 91 57 C89.35 57.33 87.7 57.66 86 58 C85.01 55.69 84.02 53.38 83 51 C82.28457031 50.97494385 81.56914063 50.9498877 80.83203125 50.92407227 C77.5545453 50.80720848 74.27728384 50.68489577 71 50.5625 C69.87464844 50.52318359 68.74929687 50.48386719 67.58984375 50.44335938 C61.66838092 50.21827453 55.86477138 49.85527916 50 49 C50 51.64 50 54.28 50 57 C49.34 57 48.68 57 48 57 C48.0309375 58.00160156 48.061875 59.00320312 48.09375 60.03515625 C47.99897137 64.04350243 47.39197158 67.53512433 46.5 71.4375 C46.2215625 72.67371094 45.943125 73.90992187 45.65625 75.18359375 C45.4396875 76.11300781 45.223125 77.04242188 45 78 C43.35 78 41.7 78 40 78 C39.84442627 77.17798096 39.68885254 76.35596191 39.52856445 75.5090332 C38.93816117 72.44001946 38.33049204 69.37506801 37.71118164 66.31176758 C37.31824504 64.34130962 36.94510189 62.36693798 36.57226562 60.39257812 C36.31767578 59.14541016 36.06308594 57.89824219 35.80078125 56.61328125 C35.57559814 55.46641846 35.35041504 54.31955566 35.1184082 53.13793945 C33.2939386 48.01898991 29.51805962 45.20301103 25.125 42.25 C21.09020339 39.32324413 18.34499737 35.88131031 15.4453125 31.85546875 C14.1215924 29.8812969 14.1215924 29.8812969 12 29 C10.52634144 28.88376271 9.04819377 28.8214292 7.5703125 28.7890625 C6.25353516 28.74652344 6.25353516 28.74652344 4.91015625 28.703125 C3.06139518 28.65126634 1.21240701 28.60692885 -0.63671875 28.5703125 C-1.51714844 28.539375 -2.39757813 28.5084375 -3.3046875 28.4765625 C-4.10890137 28.45674316 -4.91311523 28.43692383 -5.74169922 28.41650391 C-8.52410591 27.90333787 -9.93342158 26.90492402 -12 25 C-12.66015625 22.74609375 -12.66015625 22.74609375 -12 20 C-9.50804305 16.77826261 -6.48467443 14.05382512 -3.53320312 11.25976562 C-1.83794508 9.56450758 -0.3183445 8.00386097 1 6 C1.08035969 2.6477334 1.08035969 2.6477334 0 0 Z " fill="#A6B54F" transform="translate(41,11)"/>
<path d="M0 0 C18.81 0 37.62 0 57 0 C56.02256795 10.75175252 54.02007912 21.3945846 52 32 C37.15 32 22.3 32 7 32 C5.10295539 26.30886617 3.69450927 20.71306136 2.375 14.875 C2.14554687 13.88628906 1.91609375 12.89757812 1.6796875 11.87890625 C1.463125 10.92628906 1.2465625 9.97367188 1.0234375 8.9921875 C0.72832275 7.69837158 0.72832275 7.69837158 0.42724609 6.37841797 C0 4 0 4 0 0 Z " fill="#A6B54E" transform="translate(5,57)"/>
<path d="M0 0 C2.31 0.33 4.62 0.66 7 1 C7 8.26 7 15.52 7 23 C5.02 23 3.04 23 1 23 C-0.40574405 15.69515146 -1.67267309 8.46197824 -1 1 C-0.67 0.67 -0.34 0.34 0 0 Z " fill="#AAB856" transform="translate(95,64)"/>
<path d="M0 0 C1.485 0.99 1.485 0.99 3 2 C3.26697888 4.62462244 3.34832984 7.01065933 3.29296875 9.6328125 C3.28872391 10.38464813 3.28447906 11.13648376 3.28010559 11.91110229 C3.2632917 14.31609685 3.22563624 16.72025809 3.1875 19.125 C3.17245659 20.75389416 3.15876758 22.38280144 3.14648438 24.01171875 C3.11337954 28.00813434 3.06158009 32.00392582 3 36 C1 35 1 35 0 32 C-0.0845387 29.5589224 -0.11605786 27.14740787 -0.09765625 24.70703125 C-0.0962413 24.00100266 -0.09482635 23.29497406 -0.09336853 22.56755066 C-0.08777764 20.31582374 -0.07522688 18.06419679 -0.0625 15.8125 C-0.05748382 14.28450665 -0.05292112 12.75651173 -0.04882812 11.22851562 C-0.0378112 7.48563865 -0.02055287 3.74283627 0 0 Z " fill="#F3F5E7" transform="translate(161,28)"/>
<path d="M0 0 C0.99 0.66 1.98 1.32 3 2 C3.4670898 7.51165965 2.73883423 11.78349732 1 17 C-0.65 17 -2.3 17 -4 17 C-4.10794277 14.73020335 -4.18556176 12.45894804 -4.25 10.1875 C-4.29640625 8.92292969 -4.3428125 7.65835938 -4.390625 6.35546875 C-4 3 -4 3 -1.984375 1.05078125 C-1.32953125 0.70402344 -0.6746875 0.35726562 0 0 Z " fill="#A9B754" transform="translate(145,71)"/>
</svg>
