<?xml version="1.0" encoding="UTF-8"?>
<svg version="1.1" xmlns="http://www.w3.org/2000/svg" width="910" height="575">
<path d="M0 0 C300.3 0 600.6 0 910 0 C910 189.75 910 379.5 910 575 C609.7 575 309.4 575 0 575 C0 385.25 0 195.5 0 0 Z " fill="#FEFEFE" transform="translate(0,0)"/>
<path d="M0 0 C25.90473087 15.74601288 37.15734055 48.35202059 44.16650391 76.41918945 C44.85253837 79.25583438 45.52024301 82.09638999 46.1875 84.9375 C46.50509277 86.21923096 46.50509277 86.21923096 46.82910156 87.52685547 C51.73155833 107.42026362 53.94944135 130.15743455 43.14477539 148.49365234 C33.18441558 164.31892012 19.93522756 173.06865439 2.1875 177.9375 C1.5275 177.9375 0.8675 177.9375 0.1875 177.9375 C0.5175 194.7675 0.8475 211.5975 1.1875 228.9375 C7.74995324 231.5624813 14.26590473 234.07642746 20.9375 236.375 C22.69406041 236.98683565 24.45057063 237.59881544 26.20703125 238.2109375 C29.18126289 239.24393122 32.15768371 240.27002067 35.13671875 241.2890625 C43.09908516 244.05315386 50.58106842 247.30331602 58.1875 250.9375 C58.1875 243.3475 58.1875 235.7575 58.1875 227.9375 C55.980625 228.040625 53.77375 228.14375 51.5 228.25 C44.81974039 228.27699095 44.81974039 228.27699095 42.1796875 226.859375 C40.875 225.5 40.875 225.5 39.1875 222.9375 C38.8575 222.6075 38.5275 222.2775 38.1875 221.9375 C37.20662433 214.24071884 40.0812601 209.76108235 44.125 203.375 C45.02460449 201.90667725 45.02460449 201.90667725 45.94238281 200.40869141 C47.14132918 198.45324398 48.34707353 196.501946 49.56005859 194.55517578 C51.56359992 191.33255801 53.50204513 188.07643277 55.4375 184.8125 C61.57564411 174.58714648 67.77153466 164.39615158 73.97875977 154.21261597 C76.33200522 150.34990646 78.66908842 146.47780945 81 142.6015625 C82.14542208 140.71329214 83.29123061 138.82525612 84.4375 136.9375 C84.94958008 136.07817871 85.46166016 135.21885742 85.98925781 134.33349609 C86.47233398 133.54281738 86.95541016 132.75213867 87.453125 131.9375 C87.86336914 131.256875 88.27361328 130.57625 88.69628906 129.875 C91.01592604 126.86114291 93.23732371 124.31227572 97.12748909 123.56468201 C99.52268786 123.41687235 101.88909892 123.3971047 104.28881836 123.41992188 C105.19674637 123.4129126 106.10467438 123.40590332 107.04011536 123.39868164 C110.03617091 123.38110186 113.03127887 123.39272546 116.02734375 123.40625 C118.11332887 123.40355485 120.19931276 123.39967224 122.28529358 123.39465332 C126.65573088 123.38875809 131.02584099 123.39732135 135.39624023 123.41601562 C140.9929383 123.43879082 146.58886848 123.42569101 152.18553829 123.40172577 C156.49302431 123.38725654 160.80032896 123.39187924 165.10782051 123.40223694 C167.17105768 123.40490184 169.2343114 123.40164282 171.29752922 123.39231873 C174.18439065 123.38213639 177.07001741 123.39767871 179.95678711 123.41992188 C181.23110092 123.40777649 181.23110092 123.40777649 182.53115845 123.39538574 C187.88514672 123.47163932 190.93001807 124.39722534 195.1875 127.9375 C196.87158203 130.09375 196.87158203 130.09375 198.1953125 132.4375 C198.70030273 133.3135791 199.20529297 134.1896582 199.72558594 135.09228516 C200.24926758 136.03120605 200.77294922 136.97012695 201.3125 137.9375 C202.46541627 139.94573151 203.61907684 141.95353589 204.7734375 143.9609375 C205.63533691 145.47445801 205.63533691 145.47445801 206.51464844 147.01855469 C208.93113276 151.23505886 211.42795425 155.40092653 213.9375 159.5625 C214.4130835 160.35422607 214.88866699 161.14595215 215.37866211 161.96166992 C219.48277762 168.78805961 223.61774246 175.59570629 227.75354004 182.40292358 C228.86517418 184.2338166 229.975288 186.06562286 231.08496094 187.89770508 C234.10835959 192.8869225 237.13412131 197.87295651 240.23828125 202.8125 C240.66343018 203.49658936 241.0885791 204.18067871 241.52661133 204.88549805 C242.58239081 206.58118426 243.64993245 208.26953278 244.71875 209.95703125 C246.40453515 213.37791973 246.98626853 216.13646116 247.1875 219.9375 C244.94457189 224.34028481 243.66607478 225.69821261 239.1875 227.9375 C235.2275 227.9375 231.2675 227.9375 227.1875 227.9375 C227.1875 242.1275 227.1875 256.3175 227.1875 270.9375 C231.1475 269.9475 235.1075 268.9575 239.1875 267.9375 C241.89010068 267.38769426 244.59800758 266.86271681 247.3125 266.375 C249.20355469 266.03275391 249.20355469 266.03275391 251.1328125 265.68359375 C251.78209717 265.56661133 252.43138184 265.44962891 253.1003418 265.32910156 C255.39509994 264.89854921 257.67874676 264.42353343 259.96484375 263.94921875 C265.49014028 262.83835999 271.03844056 262.0449185 276.625 261.3125 C277.58470703 261.1784375 278.54441406 261.044375 279.53320312 260.90625 C280.96889648 260.71675781 280.96889648 260.71675781 282.43359375 260.5234375 C283.27591553 260.4104834 284.1182373 260.2975293 284.98608398 260.18115234 C289.70693326 259.82185946 294.45299799 259.9375 299.1875 259.9375 C299.1875 240.7975 299.1875 221.6575 299.1875 201.9375 C296.5475 201.6075 293.9075 201.2775 291.1875 200.9375 C288.95336914 200.20068359 288.95336914 200.20068359 287.22265625 199.3359375 C286.57248535 199.01471924 285.92231445 198.69350098 285.25244141 198.36254883 C284.59163574 198.01603271 283.93083008 197.6695166 283.25 197.3125 C282.55052246 196.94987061 281.85104492 196.58724121 281.13037109 196.21362305 C267.05980012 188.74710576 257.38205994 178.12185982 252.125 163.0078125 C251.6609375 161.48800781 251.6609375 161.48800781 251.1875 159.9375 C250.82527344 158.89078125 250.46304687 157.8440625 250.08984375 156.765625 C242.06088907 122.703393 258.06553126 77.07665742 275.5625 48.09350586 C281.70053652 38.37628007 289.69903124 27.11984652 301.0859375 23.30078125 C309.78030505 21.79785154 317.22171708 22.51480334 324.55078125 27.56640625 C342.66772468 41.1747325 351.78642675 62.98105899 358.046875 84.12109375 C358.8547416 86.82412687 359.70885696 89.4637308 360.6328125 92.125 C362.55023833 97.82800355 363.92408017 103.64979884 365.3125 109.5 C365.70888672 111.12711914 365.70888672 111.12711914 366.11328125 112.78710938 C370.76314509 132.22448436 372.53457353 154.86957202 362.125 172.6875 C352.22727703 188.58612449 338.09650758 197.4602481 320.1875 201.9375 C319.8575 220.4175 319.5275 238.8975 319.1875 257.9375 C336.36001564 257.7398684 336.36001564 257.7398684 353.53173828 257.48706055 C355.69041711 257.47245247 357.84910975 257.45971256 360.0078125 257.44921875 C361.12148193 257.42363892 362.23515137 257.39805908 363.38256836 257.3717041 C372.20003861 257.36674935 372.20003861 257.36674935 375.88623047 260.34301758 C378.9835478 263.83497506 379.60268734 265.92802396 379.52734375 270.6328125 C379.01246241 274.1245365 377.41319962 276.78169167 375.7421875 279.859375 C372.68372319 285.91482694 370.442478 292.33497563 368.04736328 298.67529297 C367.26309357 300.73862151 366.4616585 302.79405303 365.65234375 304.84765625 C358.77160277 322.47784622 353.28467854 340.8116944 349.71484375 359.3984375 C349.144207 362.14594779 348.45637254 364.84680869 347.75 367.5625 C341.40552077 392.78100789 338.56271999 419.64237829 337.984375 445.61328125 C337.93821045 447.5763623 337.93821045 447.5763623 337.89111328 449.57910156 C337.83972868 452.14194838 337.80609751 454.70522896 337.79248047 457.26855469 C337.58848468 468.24806127 337.58848468 468.24806127 333.1875 472.9375 C329.97045662 474.54602169 326.46225505 474.08124798 322.92804241 474.0773077 C322.05940863 474.08025912 321.19077485 474.08321055 320.29581884 474.08625141 C317.3529398 474.09498956 314.41009984 474.09652731 311.46720886 474.09812927 C309.34889787 474.10285701 307.23058778 474.10800747 305.11227876 474.11354691 C299.26604366 474.12749289 293.4198148 474.13504782 287.57356727 474.1415199 C282.56548457 474.14787919 277.5574122 474.15795087 272.54933592 474.16808056 C256.04739344 474.20144463 239.54544694 474.22297211 223.04348204 474.24128041 C218.74921864 474.24604676 214.45495555 474.25105566 210.16069245 474.25608563 C183.51728813 474.28712794 156.87388133 474.31375253 130.23046398 474.33050442 C124.05590498 474.33444181 117.88134602 474.33845362 111.70678711 474.3425293 C110.93965753 474.34303096 110.17252796 474.34353263 109.38215203 474.3440495 C84.50048812 474.36047381 59.61892244 474.39893872 34.73730687 474.4498164 C9.16905037 474.50200303 -16.39915382 474.53481382 -41.96746467 474.54208195 C-45.57645629 474.5431106 -49.18544781 474.54434692 -52.79443932 474.54570198 C-53.50474855 474.54596002 -54.21505778 474.54621806 -54.94689153 474.54648391 C-66.39209919 474.55118445 -77.83717765 474.57614216 -89.2823369 474.60845341 C-100.78003915 474.64044049 -112.27754045 474.64998287 -123.7752922 474.63802146 C-130.00782624 474.63217406 -136.23995395 474.63620491 -142.47242737 474.6661911 C-148.17275642 474.69339423 -153.87238737 474.69317555 -159.57273086 474.67068065 C-161.64005134 474.66743697 -163.70741726 474.67444559 -165.77466164 474.69247787 C-168.57580948 474.7154398 -171.37442928 474.70175493 -174.17551899 474.67858028 C-174.98644578 474.69405652 -175.79737258 474.70953275 -176.63287291 474.72547796 C-179.61289298 474.6707015 -182.05137434 474.54939618 -184.43145039 472.6359678 C-187.03509589 469.62427305 -188.43625605 467.21562651 -188.51611328 463.234375 C-188.54623505 462.34949905 -188.57635681 461.46462311 -188.60739136 460.55293274 C-188.61578033 459.60733994 -188.62416931 458.66174713 -188.6328125 457.6875 C-188.66174591 456.68982101 -188.69067932 455.69214203 -188.7204895 454.66423035 C-188.78081693 452.52977804 -188.83091809 450.39501643 -188.8717041 448.26010132 C-188.98244558 442.66781083 -189.17956013 437.07842959 -189.3671875 431.48828125 C-189.41987793 429.83799675 -189.41987793 429.83799675 -189.47363281 428.15437317 C-190.9141703 384.68185733 -198.86879973 339.13163999 -211.453125 297.4921875 C-212.45970674 294.15324599 -213.41981093 290.80372947 -214.359375 287.4453125 C-214.62186035 286.50977539 -214.8843457 285.57423828 -215.15478516 284.61035156 C-215.66320567 282.79297817 -216.16828191 280.97466467 -216.66943359 279.15527344 C-218.05993118 274.20810953 -219.72860609 269.63192405 -221.8125 264.9375 C-222.4613524 263.04969715 -223.0873987 261.1538612 -223.6875 259.25 C-225.37699646 254.0919161 -227.33696943 249.11997537 -229.46484375 244.12890625 C-231.20859255 239.99950691 -232.85579503 235.83332536 -234.49804688 231.6628418 C-235.77391497 228.44720912 -237.09633967 225.26717612 -238.52734375 222.1171875 C-238.80521729 221.4989209 -239.08309082 220.8806543 -239.36938477 220.24365234 C-240.13963804 218.54316481 -240.92480627 216.84945574 -241.7109375 215.15625 C-242.95484552 211.52156842 -243.13173934 208.75469034 -242.8125 204.9375 C-240.62140205 201.41609258 -238.65645819 199.43032014 -234.8125 197.9375 C-231.82687378 197.67680359 -231.82687378 197.67680359 -228.28857422 197.6628418 C-227.31623337 197.6551754 -227.31623337 197.6551754 -226.32424927 197.64735413 C-224.17180161 197.63342581 -222.01967509 197.63442407 -219.8671875 197.63671875 C-218.34009691 197.63281998 -216.81300737 197.62848294 -215.28591919 197.62373352 C-212.06281056 197.61625461 -208.83981123 197.61656479 -205.61669922 197.62182617 C-202.38413257 197.62637279 -199.15194957 197.61987499 -195.91943359 197.60131836 C-167.28256193 197.43843902 -139.02525642 199.03196739 -110.6875 203.375 C-109.24300647 203.58945099 -107.79842395 203.80330326 -106.35375977 204.01660156 C-95.5628769 205.62181957 -84.78387823 207.31946916 -74.02734375 209.140625 C-73.25511475 209.27114258 -72.48288574 209.40166016 -71.68725586 209.53613281 C-69.8125 209.9375 -69.8125 209.9375 -67.8125 210.9375 C-66.16510175 211.20809614 -64.51302199 211.45035171 -62.859375 211.6796875 C-54.07172169 213.09527182 -45.61081658 215.62935 -37.0625 218.0625 C-31.37 219.67125 -25.6775 221.28 -19.8125 222.9375 C-19.8125 208.0875 -19.8125 193.2375 -19.8125 177.9375 C-22.4525 177.6075 -25.0925 177.2775 -27.8125 176.9375 C-38.29227618 173.73129793 -46.41523123 167.91876367 -53.8125 159.9375 C-54.62654297 159.11378906 -54.62654297 159.11378906 -55.45703125 158.2734375 C-65.85625277 147.26249707 -70.4051595 133.29080402 -70.3125 118.375 C-70.30750488 117.29508789 -70.30250977 116.21517578 -70.29736328 115.10253906 C-69.55449455 79.72149444 -56.13724016 33.06851308 -30.4609375 7.60546875 C-21.29481946 -0.90154716 -12.34327397 -3.43992881 0 0 Z " fill="#2D2F3A" transform="translate(329.8125,33.0625)"/>
<path d="M0 0 C14.65367183 -0.18558589 29.29992057 -0.19928494 43.95391846 -0.03088379 C46.79732216 -0.00205492 49.64036593 0.01075124 52.48388672 0.02050781 C80.02788772 0.20986597 80.02788772 0.20986597 86.2734375 6.45703125 C88.90659919 9.95103426 90.5808632 13.67060065 92.10644531 17.75292969 C93.48824673 21.22782047 95.49174211 24.2358368 97.5 27.375 C98.23356376 28.59946825 98.96133824 29.82742144 99.68359375 31.05859375 C100.89591051 33.12158523 102.10899785 35.18398645 103.32861328 37.24267578 C109.67176055 47.95826223 115.67423018 58.74229435 121 70 C121.43344727 70.91475098 121.86689453 71.82950195 122.31347656 72.77197266 C127.58175612 83.94749725 132.63142714 95.11518982 136.80859375 106.74609375 C137.77911045 109.39671806 138.81810191 111.94001832 140 114.5 C145.12078314 125.7657229 148.89722793 137.55056899 152.6875 149.3125 C153.06801514 150.49239502 153.44853027 151.67229004 153.84057617 152.88793945 C156.07236234 159.88408042 158.11456581 166.90362593 160 174 C160.49972208 175.79955637 160.99972556 177.59903461 161.5 179.3984375 C172 217.93945312 172 217.93945312 172 236 C131.74 236 91.48 236 50 236 C49.39336376 231.7535463 48.8600125 227.82460817 48.64282227 223.59057617 C48.58929092 222.5823027 48.53575958 221.57402924 48.48060608 220.53520203 C48.42642014 219.46526505 48.37223419 218.39532806 48.31640625 217.29296875 C48.19229478 214.99152364 48.06793817 212.69009174 47.94335938 210.38867188 C47.7518187 206.78814866 47.5625023 203.18754483 47.37768555 199.58666992 C47.19703411 196.09256004 47.00729963 192.59903206 46.81640625 189.10546875 C46.76424454 188.04160446 46.71208282 186.97774017 46.65834045 185.88163757 C46.3415897 180.19450262 45.71111732 174.77903356 44.45343018 169.22006226 C43.65910313 165.33091772 43.47374792 161.3902812 43.1875 157.4375 C42.23153736 146.0656563 39.99159202 135.05915283 37.60839844 123.91308594 C37.06994661 121.33491289 36.57201247 118.75534004 36.1015625 116.1640625 C34.07762033 105.12012372 31.35594101 94.2902789 28.5 83.4375 C28.30845337 82.70443634 28.11690674 81.97137268 27.91955566 81.21609497 C25.88244149 73.44907995 23.7035378 65.81701838 20.85302734 58.30004883 C19.73569894 55.28735538 18.88605644 52.22946623 18.0625 49.125 C16.46569027 43.40879398 14.5432164 37.93462407 12.3515625 32.421875 C11.11010276 29.27875728 9.92972417 26.1206412 8.76367188 22.94921875 C6.39239101 16.50855308 3.85790878 10.23250193 0.8828125 4.0390625 C0 2 0 2 0 0 Z " fill="#FDFDFD" transform="translate(112,251)"/>
<path d="M0 0 C6.68167504 0.48087813 13.34618529 1.09797086 20 1.875 C21.2375 2.01679688 22.475 2.15859375 23.75 2.3046875 C28.16122957 2.93700843 32.4203066 4.07553628 36.72998047 5.19238281 C40.10894118 6.02690588 43.4966415 6.72392256 46.91015625 7.40234375 C69.90605145 12.20364969 69.90605145 12.20364969 77.109375 22.08984375 C77.73328125 23.05019531 78.3571875 24.01054687 79 25 C80.16320175 26.35458323 81.34872297 27.69054235 82.5625 29 C90.41756955 38.07363643 97.91764126 47.30904741 105 57 C105.50998535 57.69464355 106.0199707 58.38928711 106.54541016 59.10498047 C112.9946879 67.90048385 119.26552809 76.71793105 125 86 C125.86260508 87.3502242 126.72738575 88.69905976 127.59375 90.046875 C139.50017035 108.61142497 150.43226702 127.603519 160.5625 147.1875 C160.94794983 147.92830811 161.33339966 148.66911621 161.73052979 149.43237305 C165.92561903 157.51512858 169.73492493 165.52262661 172.87329102 174.0871582 C173.92656024 176.81013873 175.11883827 179.34715647 176.4609375 181.9375 C179.64669342 188.10476478 182.11129822 194.53619541 184.625 201 C185.34042969 202.80984375 185.34042969 202.80984375 186.0703125 204.65625 C193 222.36545139 193 222.36545139 193 229 C157.36 229 121.72 229 85 229 C80.84659091 208.23295455 80.84659091 208.23295455 79.4296875 200.99462891 C76.79857474 187.63276193 73.82229135 174.41477861 69.98046875 161.34375 C69.35904522 159.22447294 68.75525101 157.09988051 68.17578125 154.96875 C63.53916358 138.01677227 57.955153 121.1937977 51.20703125 104.96484375 C49.8765909 101.6968689 48.75365009 98.40499927 47.73828125 95.02734375 C46.97675469 92.81506501 46.97675469 92.81506501 45.55078125 90.109375 C44.10468434 87.20989605 42.97263222 84.35741309 41.875 81.3125 C38.45372631 72.29184444 34.22483832 63.66642765 30 55 C29.65533691 54.28875977 29.31067383 53.57751953 28.95556641 52.84472656 C21.48433251 37.46384895 12.93432432 22.76981895 4.1652832 8.09716797 C3.62476318 7.1898291 3.08424316 6.28249023 2.52734375 5.34765625 C1.79632446 4.12574585 1.79632446 4.12574585 1.05053711 2.87915039 C0 1 0 1 0 0 Z " fill="#FDFDFD" transform="translate(220,258)"/>
<path d="M0 0 C21.91489696 4.63233785 45.04277094 10.60023767 61 27 C62.79335721 28.48181048 64.60636458 29.94013575 66.4375 31.375 C71.23851477 35.2392314 75.57273234 39.41813469 79.85327148 43.83935547 C82.74616167 46.81629214 85.75520148 49.4196126 89 52 C92.7255319 55.58338124 96.2075243 59.36928047 99.6875 63.1875 C103.42626555 67.27318512 107.22379302 71.2541924 111.1875 75.125 C115.28773195 79.17967382 118.9280101 83.45321848 122.5234375 87.95703125 C125.41189491 91.506098 128.41929049 94.93648918 131.4375 98.375 C142.12553018 110.62904756 151.55295837 123.78140105 161 137 C161.65871094 137.91523438 162.31742188 138.83046875 162.99609375 139.7734375 C175.09293091 156.77282977 186.04641639 174.71482882 196.1875 192.9375 C196.91066406 194.22587769 196.91066406 194.22587769 197.6484375 195.5402832 C198.30779297 196.74044067 198.30779297 196.74044067 198.98046875 197.96484375 C199.37129639 198.6724585 199.76212402 199.38007324 200.16479492 200.10913086 C201 202 201 202 201 205 C171.3 205 141.6 205 111 205 C109.06932111 199.85152296 107.24722381 194.78238197 105.5625 189.5625 C103.96129639 184.67293868 102.18432866 179.96871222 100.00390625 175.30859375 C98.8191215 172.58404983 97.88935034 169.81461123 96.9375 167 C94.4257546 159.82695907 91.43208196 152.89372244 88.375 145.9375 C87.65558228 144.29491211 87.65558228 144.29491211 86.92163086 142.61914062 C84.4107324 136.88920047 84.4107324 136.88920047 81.43188477 131.39746094 C80.18513763 129.30998321 79.33818973 127.46529542 78.56640625 125.17578125 C77.04531733 120.96148759 75.0796776 117.11553353 72.9375 113.1875 C72.12964038 111.68780581 71.32237027 110.18779394 70.515625 108.6875 C69.89204102 107.53121094 69.89204102 107.53121094 69.25585938 106.3515625 C68.01938931 104.03630596 66.80991872 101.70906201 65.609375 99.375 C51.26512761 71.54552937 34.1533427 44.66447664 15.12890625 19.7890625 C13.59270808 17.77650196 12.08191351 15.75560361 10.58984375 13.7109375 C10.18797852 13.1636499 9.78611328 12.6163623 9.37207031 12.05249023 C8.25956237 10.53574662 7.15112299 9.01602115 6.04296875 7.49609375 C4.16842946 5.20578667 2.3559696 3.74182921 0 2 C0 1.34 0 0.68 0 0 Z " fill="#FCFCFC" transform="translate(324,282)"/>
<path d="M0 0 C10.00092493 -0.08840876 19.99860385 -0.04732703 29.99920654 0.05575562 C29.35760926 3.39088996 28.57809953 6.44102498 27.37420654 9.61825562 C20.03909154 29.4364027 13.8348255 49.34902009 8.58123779 69.81259155 C8.04759173 71.86927781 7.49567947 73.91990048 6.93670654 75.96981812 C3.78707466 87.85475717 1.84396196 99.90769959 -0.00079346 112.05575562 C-0.14404053 112.99789917 -0.2872876 113.94004272 -0.43487549 114.91073608 C-3.46880534 135.20260456 -5.09227052 155.56617264 -6.00079346 176.05575562 C-7.32079346 176.05575562 -8.64079346 176.05575562 -10.00079346 176.05575562 C-11.77695345 174.12856161 -13.24473749 172.30281847 -14.75079346 170.18075562 C-15.64327658 168.97317264 -16.53651297 167.76614602 -17.43048096 166.55966187 C-17.86843994 165.96040894 -18.30639893 165.36115601 -18.75762939 164.7437439 C-27.44075782 152.95365161 -37.2634625 141.91457305 -47.20489502 131.17782593 C-49.71107798 128.47114834 -52.16461497 125.73295011 -54.56329346 122.93075562 C-58.78677046 118.05594721 -63.40965319 113.58046459 -68.00079346 109.05575562 C-69.66867534 107.39030505 -71.33552912 105.72382343 -73.00079346 104.05575562 C-73.66079346 103.39575562 -74.32079346 102.73575562 -75.00079346 102.05575562 C-74.73581371 97.32688633 -72.93975531 92.69896407 -71.16876221 88.34872437 C-70.81394775 87.47651245 -70.4591333 86.60430054 -70.09356689 85.70565796 C-69.55264404 84.3939563 -69.55264404 84.3939563 -69.00079346 83.05575562 C-68.67369385 82.26249878 -68.34659424 81.46924194 -68.00958252 80.65194702 C-59.10601406 59.26123453 -49.22394928 38.55758515 -37.43780518 18.59677124 C-36.13405824 16.29140289 -34.98739582 13.97529367 -33.87969971 11.57138062 C-31.3281833 6.30766809 -29.02749383 2.75985743 -23.30157471 0.77059937 C-15.63516445 -0.50870661 -7.74550406 0.07095837 0 0 Z " fill="#FCFCFC" transform="translate(653.0007934570313,310.9442443847656)"/>
<path d="M0 0 C1.68958023 -0.01708298 3.3791267 -0.03786462 5.06861877 -0.06214905 C8.59965304 -0.09620792 12.12573709 -0.07855194 15.65649414 -0.02514648 C20.16177038 0.0378537 24.65217022 -0.04068055 29.15596485 -0.15456295 C55.37001248 -0.72885967 55.37001248 -0.72885967 62.17221069 3.57345581 C65.88450472 7.43983531 67.60643147 11.79375255 69.01425171 16.90115356 C69.84766728 19.69932947 71.24651477 21.93791098 72.84375 24.3671875 C73.29685547 25.12306152 73.74996094 25.87893555 74.21679688 26.65771484 C74.66216797 27.39844238 75.10753906 28.13916992 75.56640625 28.90234375 C76.05947266 29.72299316 76.55253906 30.54364258 77.06054688 31.38916016 C80.56645026 37.21632888 84.08935298 43.033055 87.62890625 48.83984375 C88.07355225 49.57066162 88.51819824 50.30147949 88.97631836 51.05444336 C90.89330482 54.19056434 92.83200331 57.27463117 94.94140625 60.28515625 C96.62890625 62.96484375 96.62890625 62.96484375 96.62890625 65.96484375 C46.46890625 65.96484375 -3.69109375 65.96484375 -55.37109375 65.96484375 C-53.85481192 62.17413917 -52.40148997 59.15247333 -50.31640625 55.7109375 C-49.70748535 54.70135986 -49.09856445 53.69178223 -48.47119141 52.65161133 C-47.81940918 51.57935303 -47.16762695 50.50709473 -46.49609375 49.40234375 C-45.13139056 47.14460369 -43.76680878 44.88679025 -42.40234375 42.62890625 C-41.72171875 41.50516602 -41.04109375 40.38142578 -40.33984375 39.22363281 C-38.55905751 36.27597225 -36.78956814 33.32206455 -35.02734375 30.36328125 C-34.51284668 29.50033447 -33.99834961 28.6373877 -33.46826172 27.74829102 C-32.53350314 26.17935377 -31.60007724 24.60962117 -30.66845703 23.03881836 C-29.79881942 21.5832604 -28.91027126 20.13880935 -28.00184631 18.70713806 C-26.27224781 15.89497364 -26.27224781 15.89497364 -24.72236633 12.49649048 C-18.93084219 1.00571331 -12.25319849 -0.17390704 0 0 Z " fill="#FCFCFC" transform="translate(451.37109375,175.03515625)"/>
<path d="M0 0 C42.57 0 85.14 0 129 0 C129 16.17 129 32.34 129 49 C122.565 50.98 122.565 50.98 116 53 C103.81870109 56.92517191 91.7161662 60.82764569 80 66 C75.22835695 68.03327745 71.25665818 69.4671123 66 69 C63.30859375 67.671875 63.30859375 67.671875 60.4375 65.75 C59.27938252 65.00204208 58.11907185 64.25747323 56.95703125 63.515625 C56.32361816 63.10892578 55.69020508 62.70222656 55.03759766 62.28320312 C40.87749873 53.36570014 25.94134642 45.75996984 11.04541016 38.16796875 C10.05763077 37.66374641 10.05763077 37.66374641 9.04989624 37.14933777 C7.2430304 36.22799879 5.43455083 35.30982654 3.62597656 34.3918457 C1 33 1 33 0 32 C0 21.44 0 10.88 0 0 Z " fill="#FCFDFC" transform="translate(408,261)"/>
<path d="M0 0 C6.60351219 1.08254298 9.95216517 5.09378419 13.81640625 10.3515625 C22.42981625 23.66779322 28.19871018 38.51679332 32.8125 53.625 C33.24864355 55.00782965 33.68484313 56.39064163 34.12109375 57.7734375 C39.81987058 76.12753047 45.79613166 99.05903778 37.8125 117.625 C32.27378631 127.36325482 24.51815236 134.9850782 13.8125 138.625 C12.8225 138.625 11.8325 138.625 10.8125 138.625 C10.80663376 137.90725403 10.80076752 137.18950806 10.79472351 136.45001221 C10.73678853 129.6816269 10.66470724 122.91352369 10.57678509 116.14546585 C10.53208205 112.66601127 10.49282622 109.18667375 10.46606445 105.70703125 C10.43504861 101.70542826 10.38026003 97.70445632 10.32421875 93.703125 C10.31782883 92.45509094 10.3114389 91.20705688 10.30485535 89.92120361 C10.28506119 88.76030212 10.26526703 87.59940063 10.24487305 86.40332031 C10.22821846 84.87109833 10.22821846 84.87109833 10.21122742 83.30792236 C9.7518227 80.21671989 8.9819904 78.8478998 6.8125 76.625 C3.1969609 75.4198203 -0.46272224 74.66699574 -4.1875 75.625 C-7.67019772 79.22649414 -8.68999992 81.53686562 -8.73339844 86.5168457 C-8.76297638 88.25808464 -8.76297638 88.25808464 -8.79315186 90.03450012 C-8.79499481 91.89880928 -8.79499481 91.89880928 -8.796875 93.80078125 C-8.81341125 95.08107712 -8.82994751 96.36137299 -8.84698486 97.6804657 C-8.89056868 101.0719595 -8.91063701 104.4631951 -8.92572021 107.85491943 C-8.94532414 111.32075207 -8.98729025 114.78630717 -9.02734375 118.25195312 C-9.10129735 125.04290098 -9.15289828 131.83374379 -9.1875 138.625 C-10.63367984 138.32786908 -12.07849682 138.02409972 -13.52270508 137.7175293 C-14.72978874 137.46485542 -14.72978874 137.46485542 -15.96125793 137.20707703 C-22.98293554 135.37117729 -29.12534515 128.42630371 -33.1875 122.625 C-34.69395121 120.02475583 -35.99763315 117.3833277 -37.1875 114.625 C-37.70086914 113.50363647 -37.70086914 113.50363647 -38.22460938 112.35961914 C-39.28066934 109.36039814 -39.44584539 107.05099822 -39.453125 103.87890625 C-39.45570313 102.79416016 -39.45828125 101.70941406 -39.4609375 100.59179688 C-39.45320313 99.46837891 -39.44546875 98.34496094 -39.4375 97.1875 C-39.44523437 96.06794922 -39.45296875 94.94839844 -39.4609375 93.79492188 C-39.44787438 88.29208239 -39.2492246 83.79080811 -37.1875 78.625 C-36.80789634 76.40002379 -36.45657991 74.17013808 -36.125 71.9375 C-32.38319426 50.01666638 -23.43547977 18.95653758 -6.1875 3.625 C-5.73375 3.026875 -5.28 2.42875 -4.8125 1.8125 C-3.1875 0.625 -3.1875 0.625 0 0 Z " fill="#FBFBFB" transform="translate(319.1875,51.375)"/>
<path d="M0 0 C15.58302778 9.51418126 22.2543234 32.5825356 28 49 C28.35835937 50.00804687 28.71671875 51.01609375 29.0859375 52.0546875 C35.3408211 70.91941643 42.76344442 96.75555173 34.1328125 115.91796875 C32.57273001 118.78529278 30.99959041 121.41229476 29 124 C28.56945312 124.57363281 28.13890625 125.14726562 27.6953125 125.73828125 C21.91547147 133.0333779 15.85462115 135.85279643 7 138 C6.99857498 137.28447464 6.99714996 136.56894928 6.99568176 135.83174133 C6.97782919 129.07827909 6.93614987 122.32542935 6.86790943 115.57227802 C6.83366304 112.10058825 6.80853332 108.62933737 6.80444336 105.1574707 C6.79933406 101.16304533 6.75420534 97.16993294 6.70703125 93.17578125 C6.7109639 91.93290848 6.71489655 90.69003571 6.71894836 89.40950012 C6.84883491 82.49075718 6.84883491 82.49075718 3.60058594 76.71801758 C0.92726846 74.95195157 -0.3931135 74.31988023 -3.5625 74.375 C-4.30628906 74.36210937 -5.05007813 74.34921875 -5.81640625 74.3359375 C-9.08578178 75.33020197 -10.1226979 77.20356497 -12 80 C-12.6085588 82.83425452 -12.6085588 82.83425452 -12.54589844 85.8918457 C-12.57547638 87.63308464 -12.57547638 87.63308464 -12.60565186 89.40950012 C-12.60749481 91.27380928 -12.60749481 91.27380928 -12.609375 93.17578125 C-12.62591125 94.45607712 -12.64244751 95.73637299 -12.65948486 97.0554657 C-12.70306868 100.4469595 -12.72313701 103.8381951 -12.73822021 107.22991943 C-12.75782414 110.69575207 -12.79979025 114.16130717 -12.83984375 117.62695312 C-12.91379735 124.41790098 -12.96539828 131.20874379 -13 138 C-22.99548679 136.74846242 -29.83840836 131.23846482 -36.23828125 123.56640625 C-42.58772206 114.3167774 -43.97313494 104.95139923 -43 94 C-42.92749023 93.13439453 -42.85498047 92.26878906 -42.78027344 91.37695312 C-41.4638622 76.71123096 -38.66498381 62.9568477 -34 49 C-33.72639648 48.17628906 -33.45279297 47.35257813 -33.17089844 46.50390625 C-16.6353592 -2.46449766 -16.6353592 -2.46449766 0 0 Z " fill="#FBFBFB" transform="translate(642,76)"/>
<path d="M0 0 C4.27899229 1.54496697 8.06895083 3.70283091 11.9375 6.0625 C12.59500244 6.46098145 13.25250488 6.85946289 13.92993164 7.27001953 C36.95930225 21.29557083 59.33774742 36.6555336 80 54 C81.76962973 55.43898143 83.54050101 56.87643714 85.3125 58.3125 C91.39741078 63.28868242 97.35818445 68.40665506 103.30664062 73.54443359 C104.46746786 74.54224962 105.63309771 75.53449771 106.80273438 76.52197266 C107.39892578 77.02647949 107.99511719 77.53098633 108.609375 78.05078125 C109.14014648 78.49719971 109.67091797 78.94361816 110.21777344 79.40356445 C112.57282403 81.51310909 114.7746972 83.75387378 117 86 C118.06928019 87.06573318 119.13948696 88.13053723 120.21044922 89.19458008 C123.41275312 92.37899073 126.61192769 95.56652564 129.81005859 98.75512695 C131.18220403 100.12224324 132.5552456 101.48846071 133.92919922 102.85375977 C135.93178694 104.84409851 137.93102127 106.83775553 139.9296875 108.83203125 C140.83628616 109.73088799 140.83628616 109.73088799 141.76119995 110.64790344 C146.04461957 114.93076902 150.05789564 119.40245107 154 124 C154.52001083 124.60270218 155.04002167 125.20540436 155.57579041 125.82637024 C158.53586718 129.25761921 161.47603818 132.7059545 164.41845703 136.15234375 C166.0016482 138.00192552 167.5920907 139.84506882 169.18359375 141.6875 C170.18506617 142.85402045 171.18637477 144.02068157 172.1875 145.1875 C172.65704102 145.72785889 173.12658203 146.26821777 173.61035156 146.82495117 C175.66071855 149.22482993 176.99014291 150.97042872 178 154 C155.23 154 132.46 154 109 154 C96 131 96 131 90.125 120.5 C83.55593992 109.01933093 76.36284913 97.98429543 69 87 C68.50113281 86.25379395 68.00226563 85.50758789 67.48828125 84.73876953 C57.09308462 69.2442485 46.10916613 54.19980848 34 40 C32.53754992 38.21169205 31.07921742 36.42000898 29.625 34.625 C19.07544395 21.66213755 19.07544395 21.66213755 7.53515625 9.59765625 C4.70512973 6.65241237 2.35886279 3.32660137 0 0 Z " fill="#FCFCFC" transform="translate(440,333)"/>
<path d="M0 0 C-3.55925846 7.32451901 -7.2445791 14.50857111 -11.3125 21.5625 C-19.12824028 35.24592325 -25.66302047 49.54982168 -31.31274414 64.25292969 C-33.27311998 69.33637234 -35.49446538 74.16001352 -38 79 C-42.25710425 76.30174716 -45.83642297 73.43127641 -49.5 69.9375 C-54.99990706 64.77464438 -60.79810794 60.10549663 -66.7734375 55.5078125 C-69.91953463 53.08583222 -72.96432727 50.55876946 -76 48 C-72.03231426 39.47827102 -65.38558497 32.13955199 -59.5 24.875 C-58.97881592 24.23079102 -58.45763184 23.58658203 -57.9206543 22.92285156 C-56.85886309 21.6228601 -55.7849772 20.33266463 -54.69995117 19.05200195 C-53.50824797 17.6135034 -52.36592761 16.13333043 -51.26293945 14.62573242 C-45.86280905 7.68028835 -40.67797399 6.08718064 -32.1875 4.5625 C-31.07568359 4.33369141 -29.96386719 4.10488281 -28.81835938 3.86914062 C-25.5518199 3.20589358 -22.27925155 2.59681928 -19 2 C-17.97366455 1.80277344 -16.9473291 1.60554688 -15.88989258 1.40234375 C-14.92591553 1.21929687 -13.96193848 1.03625 -12.96875 0.84765625 C-11.69741211 0.60607788 -11.69741211 0.60607788 -10.40039062 0.35961914 C-6.89203196 -0.16599236 -3.54075665 -0.13361346 0 0 Z " fill="#FBFBFB" transform="translate(600,317)"/>
<path d="M0 0 C1.39659851 -0.00934319 1.39659851 -0.00934319 2.82141113 -0.01887512 C3.82458374 -0.00966537 4.82775635 -0.00045563 5.86132812 0.0090332 C6.89318237 0.0085347 7.92503662 0.00803619 8.98815918 0.00752258 C11.17034836 0.00986368 13.35254021 0.01959424 15.53466797 0.03613281 C18.87947677 0.05972206 22.22348856 0.05669427 25.56835938 0.05004883 C27.68685372 0.0556256 29.8053447 0.06273548 31.92382812 0.0715332 C32.92700073 0.0706218 33.93017334 0.06971039 34.96374512 0.06877136 C35.89481079 0.07830338 36.82587646 0.08783539 37.78515625 0.09765625 C38.60439575 0.10226364 39.42363525 0.10687103 40.2677002 0.11161804 C42.39257812 0.37231445 42.39257812 0.37231445 45.39257812 2.37231445 C45.77352905 4.45959473 45.77352905 4.45959473 45.78076172 7.06567383 C45.7902182 8.04008423 45.79967468 9.01449463 45.80941772 10.01843262 C45.80334503 11.07365112 45.79727234 12.12886963 45.79101562 13.21606445 C45.7938858 14.29609741 45.79675598 15.37613037 45.79971313 16.4888916 C45.80175724 18.77539595 45.79620331 21.06191764 45.78369141 23.34838867 C45.7676433 26.85806193 45.78352912 30.36658347 45.80273438 33.8762207 C45.80075201 36.09367117 45.79690846 38.31112093 45.79101562 40.52856445 C45.79708832 41.58378296 45.80316101 42.63900146 45.80941772 43.72619629 C45.79996124 44.70060669 45.79050476 45.67501709 45.78076172 46.67895508 C45.77837494 47.53896118 45.77598816 48.39896729 45.77352905 49.28503418 C45.64781525 49.97383667 45.52210144 50.66263916 45.39257812 51.37231445 C42.21901189 53.48802527 41.42042196 53.62652797 37.78515625 53.64697266 C36.85409058 53.65650467 35.9230249 53.66603668 34.96374512 53.67585754 C33.96057251 53.67494614 32.9573999 53.67403473 31.92382812 53.6730957 C30.37604675 53.67952339 30.37604675 53.67952339 28.79699707 53.68608093 C26.61483494 53.69182531 24.43265366 53.69232371 22.25048828 53.68798828 C18.90559376 53.68482676 15.5615821 53.70829211 12.21679688 53.73364258 C10.09830841 53.73591533 7.97981756 53.73661918 5.86132812 53.7355957 C4.85815552 53.74480545 3.85498291 53.7540152 2.82141113 53.76350403 C1.89034546 53.75727524 0.95927979 53.75104645 0 53.74462891 C-0.8192395 53.74525833 -1.638479 53.74588776 -2.48254395 53.74653625 C-5.17630108 53.27212658 -6.0442201 52.60363248 -7.60742188 50.37231445 C-7.9883728 48.24743652 -7.9883728 48.24743652 -7.99560547 45.76489258 C-8.00506195 44.8338269 -8.01451843 43.90276123 -8.02426147 42.94348145 C-8.01818878 41.94030884 -8.01211609 40.93713623 -8.00585938 39.90356445 C-8.00872955 38.87171021 -8.01159973 37.83985596 -8.01455688 36.7767334 C-8.01659888 34.59455822 -8.01105958 32.4123648 -7.99853516 30.23022461 C-7.98248393 26.88524545 -7.99837979 23.54147467 -8.01757812 20.1965332 C-8.01559572 18.07804095 -8.0117521 15.95954944 -8.00585938 13.84106445 C-8.01193207 12.83789185 -8.01800476 11.83471924 -8.02426147 10.80114746 C-8.01480499 9.87008179 -8.00534851 8.93901611 -7.99560547 7.97973633 C-7.99321869 7.16049683 -7.99083191 6.34125732 -7.9883728 5.49719238 C-7.14953467 0.81829939 -4.37520289 -0.00336149 0 0 Z " fill="#303030" transform="translate(163.607421875,163.627685546875)"/>
<path d="M0 0 C167.97 0 335.94 0 509 0 C508.67 0.99 508.34 1.98 508 3 C459.78775105 3.01711077 411.57550188 3.03303236 363.36325073 3.04234314 C362.65019965 3.0424812 361.93714857 3.04261925 361.20248988 3.04276149 C345.70762725 3.04575409 330.2127646 3.04852432 314.71790189 3.05106533 C307.11971454 3.05231271 299.52152719 3.05360926 291.92333984 3.05493164 C290.78914652 3.05512778 290.78914652 3.05512778 289.63204019 3.05532788 C265.10410295 3.05959261 240.576168 3.06710644 216.04823215 3.07629722 C190.85194265 3.08572134 165.65565442 3.09188347 140.45936318 3.09391499 C136.9041921 3.09420316 133.34902102 3.0945288 129.79384995 3.09487724 C129.09411065 3.09494467 128.39437135 3.09501209 127.67342783 3.09508156 C116.3893661 3.09626532 105.10530829 3.10090888 93.82124816 3.10683203 C82.48919384 3.11270707 71.15714461 3.11488984 59.8250884 3.11350138 C53.68017754 3.11285792 47.53527824 3.11387637 41.39036942 3.11920547 C35.77360829 3.12404126 30.15686659 3.12433745 24.54010461 3.12089889 C22.49970528 3.12047338 20.45930478 3.1217676 18.41890778 3.12488318 C15.66207592 3.12885059 12.90531575 3.12676119 10.14848518 3.12304783 C9.34194042 3.12567484 8.53539565 3.12830186 7.70441014 3.13100848 C2.2282916 3.1141458 2.2282916 3.1141458 0 2 C0 1.34 0 0.68 0 0 Z " fill="#C4C5CB" transform="translate(150,507)"/>
<path d="M0 0 C4.05933772 2.67547259 7.18845615 5.12786845 8.75 9.8125 C9.3084262 14.64748129 9.8642204 19.60333637 7.62109375 24.05078125 C4.12572361 28.31275999 0.15734902 31.32135059 -5.41796875 32.125 C-11.88967449 32.4718921 -15.2591111 30.40460372 -20.125 26.1875 C-21.25 24.8125 -21.25 24.8125 -21.25 22.8125 C-21.91 22.8125 -22.57 22.8125 -23.25 22.8125 C-24.55459914 20.20330172 -24.3826594 18.22307385 -24.375 15.3125 C-24.37757813 14.3328125 -24.38015625 13.353125 -24.3828125 12.34375 C-24.25 9.8125 -24.25 9.8125 -23.25 7.8125 C-22.59 7.8125 -21.93 7.8125 -21.25 7.8125 C-21.1571875 6.94625 -21.1571875 6.94625 -21.0625 6.0625 C-19.91289022 2.87896522 -17.99323838 1.70664079 -15.25 -0.1875 C-10.07304236 -1.91315255 -5.12711982 -1.8733707 0 0 Z " fill="#D5D5D5" transform="translate(189.25,174.1875)"/>
<path d="M0 0 C0.96808594 -0.01417969 1.93617188 -0.02835938 2.93359375 -0.04296875 C5.5625 0.1875 5.5625 0.1875 8.5625 2.1875 C7.14187485 5.4143998 5.42004559 7.58692512 2.9375 10.078125 C2.23109375 10.78710938 1.5246875 11.49609375 0.796875 12.2265625 C0.05953125 12.95617187 -0.6778125 13.68578125 -1.4375 14.4375 C-2.17484375 15.18257812 -2.9121875 15.92765625 -3.671875 16.6953125 C-4.37828125 17.39914063 -5.0846875 18.10296875 -5.8125 18.828125 C-6.45960938 19.47297852 -7.10671875 20.11783203 -7.7734375 20.78222656 C-9.4375 22.1875 -9.4375 22.1875 -11.4375 22.1875 C-11.4375 21.1975 -11.4375 20.2075 -11.4375 19.1875 C-12.0975 19.1875 -12.7575 19.1875 -13.4375 19.1875 C-14.35251926 9.81702503 -14.35251926 9.81702503 -12.171875 5.93359375 C-8.30909383 1.44264186 -5.98787166 0.0397601 0 0 Z " fill="#343434" transform="translate(181.4375,175.8125)"/>
<path d="M0 0 C2.45314583 4.33716183 2.68811626 8.10672882 2 13 C-0.19149542 17.38299083 -2.40190962 20.20074724 -7 22 C-12.15759225 22.52833872 -16.43024831 22.64897846 -21 20 C-21 19.34 -21 18.68 -21 18 C-19.63671875 16.66015625 -19.63671875 16.66015625 -17.6875 15.0625 C-13.42465257 11.4631011 -9.5384439 7.5813202 -5.68237305 3.55688477 C-2.21377313 0 -2.21377313 0 0 0 Z " fill="#333333" transform="translate(194,181)"/>
<path d="M0 0 C4.27908899 1.54500188 8.06861313 3.70325047 11.9375 6.0625 C12.58340088 6.45300537 13.22930176 6.84351074 13.89477539 7.24584961 C20.67809782 11.36985277 27.34979738 15.66558443 34 20 C31 21 31 21 28 21 C27.67 21.66 27.34 22.32 27 23 C25.69084721 24.03145371 24.35917857 25.03542166 23 26 C20.4767373 23.33562335 17.95685345 20.66807299 15.4375 18 C14.73302734 17.25621094 14.02855469 16.51242187 13.30273438 15.74609375 C0 1.64642137 0 1.64642137 0 0 Z " fill="#F0F1F2" transform="translate(440,333)"/>
<path d="M0 0 C-0.67095703 0.74443359 -0.67095703 0.74443359 -1.35546875 1.50390625 C-5.20917747 5.83419302 -8.71606198 10.22336288 -12 15 C-15.98671063 13.63312778 -18.88494633 11.84804907 -22 9 C-22 8.34 -22 7.68 -22 7 C-18.90249398 5.63021499 -15.79608343 4.28193428 -12.6875 2.9375 C-11.80642578 2.54755859 -10.92535156 2.15761719 -10.01757812 1.75585938 C-9.17001953 1.39169922 -8.32246094 1.02753906 -7.44921875 0.65234375 C-6.27879028 0.14175415 -6.27879028 0.14175415 -5.0847168 -0.37915039 C-3 -1 -3 -1 0 0 Z " fill="#ECEDEF" transform="translate(520,337)"/>
<path d="M0 0 C0 0.66 0 1.32 0 2 C1.98 2 3.96 2 6 2 C6 2.33 6 2.66 6 3 C5.41992188 3.01417969 4.83984375 3.02835938 4.2421875 3.04296875 C-1.8589386 3.41547975 -4.72258464 4.61564925 -9 9 C-10.39699026 11.79398052 -10.60871135 14.53923715 -11.0625 17.625 C-11.32740234 19.40777344 -11.32740234 19.40777344 -11.59765625 21.2265625 C-11.73042969 22.14179688 -11.86320313 23.05703125 -12 24 C-14 22 -14 22 -14.23046875 19.46875 C-14.21628906 18.4890625 -14.20210937 17.509375 -14.1875 16.5 C-14.18105469 15.5203125 -14.17460937 14.540625 -14.16796875 13.53125 C-14 11 -14 11 -13 9 C-12.34 9 -11.68 9 -11 9 C-10.9071875 8.13375 -10.9071875 8.13375 -10.8125 7.25 C-9.66289022 4.06646522 -7.74323838 2.89414079 -5 1 C-2 0 -2 0 0 0 Z " fill="#D2D2D2" transform="translate(179,173)"/>
<path d="M0 0 C0.66 1.32 1.32 2.64 2 4 C-3.61 9.61 -9.22 15.22 -15 21 C-15.99 20.34 -16.98 19.68 -18 19 C-17.49025635 18.49549316 -16.9805127 17.99098633 -16.45532227 17.47119141 C-14.15511905 15.19172966 -11.85877123 12.90842239 -9.5625 10.625 C-8.76005859 9.8309375 -7.95761719 9.036875 -7.13085938 8.21875 C-6.36708984 7.45820313 -5.60332031 6.69765625 -4.81640625 5.9140625 C-4.10943604 5.2123291 -3.40246582 4.5105957 -2.67407227 3.78759766 C-0.92780016 2.09306909 -0.92780016 2.09306909 0 0 Z " fill="#CCCCCC" transform="translate(190,178)"/>
<path d="M0 0 C0.66 0 1.32 0 2 0 C2 0.66 2 1.32 2 2 C2.66 2.33 3.32 2.66 4 3 C3.01 3.495 3.01 3.495 2 4 C1.67 19.51 1.34 35.02 1 51 C0.67 51 0.34 51 0 51 C0 34.17 0 17.34 0 0 Z " fill="#EDECF2" transform="translate(330,211)"/>
<path d="M0 0 C0.33 0.66 0.66 1.32 1 2 C1.66 2 2.32 2 3 2 C3 2.99 3 3.98 3 5 C4.32 5.33 5.64 5.66 7 6 C6.67 6.66 6.34 7.32 6 8 C11.94 9.485 11.94 9.485 18 11 C18 11.33 18 11.66 18 12 C12.62019784 12.58452579 8.32379391 12.88403513 3.9375 9.375 C1.02424474 6.5027765 0.0991156 4.1628554 0 0 Z " fill="#E9E9E9" transform="translate(167,193)"/>
<path d="M0 0 C6.13130564 -0.36787834 10.11797737 0.59831447 14.875 4.5625 C16 6 16 6 16 8 C14.68 8 13.36 8 12 8 C12 7.01 12 6.02 12 5 C6.06 3.515 6.06 3.515 0 2 C0 1.34 0 0.68 0 0 Z " fill="#E5E5E5" transform="translate(179,173)"/>
<path d="M0 0 C1.0625 1.8125 1.0625 1.8125 2 4 C0.85284551 7.44146346 -0.38772067 8.5328473 -3 11 C-3.9075 11.9075 -4.815 12.815 -5.75 13.75 C-6.86375 14.86375 -6.86375 14.86375 -8 16 C-6.42986223 10.03347646 -3.24970218 5.17090975 0 0 Z " fill="#DDDDE1" transform="translate(612,336)"/>
<path d="M0 0 C0.33 0 0.66 0 1 0 C1.33 9.9 1.66 19.8 2 30 C1.01 30.33 0.02 30.66 -1 31 C-0.67 20.77 -0.34 10.54 0 0 Z " fill="#BABDBE" transform="translate(667,471)"/>
<path d="M0 0 C0.66 0.33 1.32 0.66 2 1 C2 1.99 2 2.98 2 4 C1.34 4 0.68 4 0 4 C-0.4021875 4.8353125 -0.4021875 4.8353125 -0.8125 5.6875 C-4.34246575 12.56164384 -4.34246575 12.56164384 -8 15 C-6.62712658 11.30123909 -4.93644547 8.0485524 -2.875 4.6875 C-2.33617187 3.80449219 -1.79734375 2.92148438 -1.2421875 2.01171875 C-0.83226562 1.34785156 -0.42234375 0.68398437 0 0 Z " fill="#E2E2E6" transform="translate(418,203)"/>
<path d="M0 0 C2.42581871 2.42581871 2.96355664 4.07433869 3.09765625 7.48046875 C3.08605469 8.37378906 3.07445312 9.26710937 3.0625 10.1875 C3.05347656 11.08855469 3.04445312 11.98960937 3.03515625 12.91796875 C3.02355469 13.60503906 3.01195312 14.29210937 3 15 C2.01 15.495 2.01 15.495 1 16 C0.93941406 15.32453125 0.87882813 14.6490625 0.81640625 13.953125 C0.73261719 13.06109375 0.64882812 12.1690625 0.5625 11.25 C0.48128906 10.36828125 0.40007812 9.4865625 0.31640625 8.578125 C0.06699735 6.04018545 0.06699735 6.04018545 -0.59765625 3.796875 C-1 2 -1 2 0 0 Z " fill="#DBDBDB" transform="translate(195,179)"/>
<path d="M0 0 C0.33 0 0.66 0 1 0 C1.25 2.3125 1.25 2.3125 1 5 C-0.31787285 6.02028865 -1.65210653 7.01971384 -3 8 C-3.8042208 10.59855733 -3.8042208 10.59855733 -4 13 C-4.99 12.34 -5.98 11.68 -7 11 C-5.23867546 6.99698968 -2.73867517 3.3971023 0 0 Z " fill="#DBDCE0" transform="translate(531,354)"/>
<path d="M0 0 C3.59391114 1.33488128 6.75490696 2.96022723 10 5 C9.67 6.65 9.34 8.3 9 10 C5.73991357 6.83047153 2.77762123 3.60062011 0 0 Z " fill="#DEDFE4" transform="translate(440,333)"/>
<path d="M0 0 C4.455 0.99 4.455 0.99 9 2 C7.515 4.475 7.515 4.475 6 7 C3.95880212 5.38405168 1.95927063 3.7143618 0 2 C0 1.34 0 0.68 0 0 Z " fill="#DFE0E4" transform="translate(324,282)"/>
<path d="M0 0 C0 3.10551666 -0.5393715 4.35261084 -2 7 C-7.875 3.25 -7.875 3.25 -9 1 C-7.68 1 -6.36 1 -5 1 C-5 1.66 -5 2.32 -5 3 C-3.35 2.01 -1.7 1.02 0 0 Z " fill="#DEDFE2" transform="translate(564,389)"/>
<path d="M0 0 C-1.98 2.31 -3.96 4.62 -6 7 C-8 3 -8 3 -8 1 C-3.375 -1.125 -3.375 -1.125 0 0 Z " fill="#CECFD3" transform="translate(520,337)"/>
<path d="M0 0 C3.0916909 2.52956528 3.90931332 5.22454612 5 9 C2 9 2 9 0.25 7.875 C-1 6 -1 6 -0.6875 2.8125 C-0.460625 1.884375 -0.23375 0.95625 0 0 Z " fill="#E7E9EA" transform="translate(218,295)"/>
<path d="M0 0 C0.33 0.66 0.66 1.32 1 2 C1.66 2 2.32 2 3 2 C3.33 3.65 3.66 5.3 4 7 C3.01 7 2.02 7 1 7 C1 6.34 1 5.68 1 5 C-0.98 5.99 -0.98 5.99 -3 7 C-1.125 1.125 -1.125 1.125 0 0 Z " fill="#E5E6E9" transform="translate(616,329)"/>
<path d="M0 0 C0.99 1.32 1.98 2.64 3 4 C2.195625 4.61875 1.39125 5.2375 0.5625 5.875 C-2.03874519 7.74164041 -2.03874519 7.74164041 -3 10 C-3.66 10 -4.32 10 -5 10 C-3.66511872 6.40608886 -2.03977277 3.24509304 0 0 Z " fill="#3F4049" transform="translate(418,164)"/>
<path d="M0 0 C0.66 0.66 1.32 1.32 2 2 C0.52307692 7.66153846 0.52307692 7.66153846 -2.125 9.375 C-2.74375 9.58125 -3.3625 9.7875 -4 10 C-2.8905928 6.51329166 -1.73662334 3.22515763 0 0 Z " fill="#E5E6E7" transform="translate(595,369)"/>
<path d="M0 0 C0 3.51663514 -0.67787284 4.31847023 -2.75 7.0625 C-3.26046875 7.75472656 -3.7709375 8.44695312 -4.296875 9.16015625 C-6.07828178 11.08456587 -7.59957707 11.99286603 -10 13 C-6.73279209 8.61105071 -3.45101522 4.24740335 0 0 Z " fill="#D1D2D5" transform="translate(542,340)"/>
<path d="M0 0 C0.99 0 1.98 0 3 0 C3 3.93169105 1.60580385 5.16427228 -1 8 C-1.66 8 -2.32 8 -3 8 C-1.125 2.25 -1.125 2.25 0 0 Z " fill="#45464F" transform="translate(601,89)"/>
<path d="M0 0 C2.10364211 3.15546316 2.26411176 3.56087261 1.8125 7.0625 C1.73644531 7.75472656 1.66039062 8.44695312 1.58203125 9.16015625 C1 11 1 11 -2 13 C-1.48041715 8.62065881 -0.94324258 4.31196609 0 0 Z " fill="#56575E" transform="translate(658,390)"/>
<path d="M0 0 C1.65 0 3.3 0 5 0 C5.625 1.8125 5.625 1.8125 6 4 C5.01 5.485 5.01 5.485 4 7 C0 2.25 0 2.25 0 0 Z " fill="#EDEFEF" transform="translate(345,308)"/>
<path d="M0 0 C1.32 1.32 2.64 2.64 4 4 C3.34 5.32 2.68 6.64 2 8 C0.02 4.535 0.02 4.535 -2 1 C-1.34 0.67 -0.68 0.34 0 0 Z " fill="#ECEDEF" transform="translate(505,409)"/>
<path d="M0 0 C0.66 0.33 1.32 0.66 2 1 C0.25 4.875 0.25 4.875 -2 6 C-2.65772428 9.02934491 -2.65772428 9.02934491 -3 12 C-3.33 12 -3.66 12 -4 12 C-4.33292585 7.75519536 -4.43885872 5.64457375 -2 2.0625 C-1.34 1.381875 -0.68 0.70125 0 0 Z " fill="#4F5056" transform="translate(91,233)"/>
<path d="M0 0 C6.625 -0.125 6.625 -0.125 10 1 C10 1.66 10 2.32 10 3 C6.7 2.67 3.4 2.34 0 2 C0 1.34 0 0.68 0 0 Z " fill="#F4F4F4" transform="translate(179,173)"/>
<path d="M0 0 C0.33 0.66 0.66 1.32 1 2 C1.66 2.33 2.32 2.66 3 3 C2.34 4.65 1.68 6.3 1 8 C-3 3.25 -3 3.25 -3 1 C-2.01 0.67 -1.02 0.34 0 0 Z " fill="#EBECED" transform="translate(558,210)"/>
<path d="M0 0 C1.0625 1.8125 1.0625 1.8125 2 4 C1.67 4.99 1.34 5.98 1 7 C0.01 7 -0.98 7 -2 7 C-1.125 2.25 -1.125 2.25 0 0 Z " fill="#ECEBEF" transform="translate(612,336)"/>
<path d="M0 0 C1.65 0 3.3 0 5 0 C4.01 1.98 3.02 3.96 2 6 C1.01 5.67 0.02 5.34 -1 5 C-0.67 3.35 -0.34 1.7 0 0 Z " fill="#EEEEF1" transform="translate(627,152)"/>
<path d="M0 0 C0.66 0.66 1.32 1.32 2 2 C1.01 4.31 0.02 6.62 -1 9 C-2.1875 7.3125 -2.1875 7.3125 -3 5 C-1.625 2.25 -1.625 2.25 0 0 Z " fill="#EFEFF0" transform="translate(576,357)"/>
<path d="M0 0 C0.99 1.32 1.98 2.64 3 4 C1.625 5.5 1.625 5.5 0 7 C-0.66 7 -1.32 7 -2 7 C-1.34 4.69 -0.68 2.38 0 0 Z " fill="#E1E1E3" transform="translate(294,87)"/>
<path d="M0 0 C2 1 2 1 4 4 C3.01 5.485 3.01 5.485 2 7 C0.68 5.02 -0.64 3.04 -2 1 C-1.34 0.67 -0.68 0.34 0 0 Z " fill="#E5E7EA" transform="translate(610,442)"/>
<path d="M0 0 C1.65 1.65 3.3 3.3 5 5 C3.35 5.33 1.7 5.66 0 6 C0 4.02 0 2.04 0 0 Z " fill="#E7E7E8" transform="translate(521,388)"/>
<path d="M0 0 C0.66 1.32 1.32 2.64 2 4 C0.625 5.5 0.625 5.5 -1 7 C-1.66 7 -2.32 7 -3 7 C-1.125 2.25 -1.125 2.25 0 0 Z " fill="#4B4C54" transform="translate(394,203)"/>
<path d="M0 0 C4.5 2.25 4.5 2.25 6 6 C5.34 6.66 4.68 7.32 4 8 C2.68 5.36 1.36 2.72 0 0 Z " fill="#3D3E46" transform="translate(519,191)"/>
<path d="M0 0 C1.32 0 2.64 0 4 0 C2.92598892 2.91517292 2.22189824 4.77810176 0 7 C0 4.69 0 2.38 0 0 Z " fill="#ECEBF0" transform="translate(404,180)"/>
<path d="M0 0 C1.98 0 3.96 0 6 0 C4.25 3.875 4.25 3.875 2 5 C1.34 3.35 0.68 1.7 0 0 Z " fill="#EAEDED" transform="translate(526,163)"/>
</svg>
